M48
;DRILL file {KiCad 4.0.7-e2-6376~58~ubuntu16.04.1} date Sat Nov  3 10:39:23 2018
;FORMAT={-:-/ absolute / inch / decimal}
FMAT,2
INCH,TZ
T1C0.020
%
G90
G05
M72
T1
X0.9016Y0.2441
X0.9016Y0.2047
X0.9016Y0.1654
X0.9016Y0.126
X0.9016Y0.0866
X0.9016Y0.0472
X0.9045Y-4.6348
X0.9045Y-4.6742
X0.9045Y-4.7136
X0.9045Y-4.753
X0.9045Y-4.7923
X0.9045Y-4.8317
X1.0482Y0.2431
X1.0482Y0.2037
X1.0482Y0.1644
X1.0482Y0.125
X1.0482Y0.0856
X1.0482Y0.0463
X1.0512Y-4.6358
X1.0512Y-4.6752
X1.0512Y-4.7146
X1.0512Y-4.7539
X1.0512Y-4.7933
X1.0512Y-4.8327
X1.1142Y-2.8484
X1.1142Y-7.5719
X1.1161Y-1.7598
X1.1161Y-6.4833
X1.1447Y-2.8661
X1.1447Y-7.5896
X1.1457Y-1.7402
X1.1457Y-6.4636
X1.1663Y-2.7933
X1.1663Y-7.5167
X1.1683Y-1.814
X1.1683Y-6.5374
X1.1762Y-2.8839
X1.1762Y-7.6073
X1.1781Y-1.7234
X1.1781Y-6.4469
X1.1978Y-2.813
X1.1978Y-7.5364
X1.2008Y-1.7953
X1.2008Y-6.5187
X2.0401Y-1.7259
X2.0431Y-6.6048
X2.0502Y-2.2844
X2.0502Y-2.3238
X2.0502Y-7.0079
X2.0502Y-7.0472
X2.0654Y-1.7561
X2.0684Y-6.635
X2.0862Y1.9041
X2.0892Y-2.9748
X2.0896Y1.7864
X2.0907Y-1.7862
X2.0925Y-3.0925
X2.0937Y-6.6651
X2.1161Y-1.8164
X2.119Y-6.6953
X2.122Y-2.3396
X2.122Y-7.063
X2.123Y-2.2677
X2.123Y-2.3041
X2.123Y-6.9911
X2.123Y-7.0276
X2.125Y1.9109
X2.1279Y-2.968
X2.1289Y1.7864
X2.1319Y-3.0925
X2.1414Y-1.8465
X2.1443Y-6.7255
X2.1638Y1.9178
X2.1667Y-1.8767
X2.1667Y-2.9612
X2.1683Y1.7864
X2.1696Y-6.7556
X2.1713Y-3.0925
X2.176Y-1.592
X2.1789Y-6.471
X2.2013Y-1.6222
X2.2025Y1.9246
X2.2042Y-6.5011
X2.2055Y-2.9543
X2.2077Y1.7864
X2.2106Y-3.0925
X2.2266Y-1.6524
X2.2295Y-6.5313
X2.2413Y1.9314
X2.2442Y-2.9475
X2.247Y1.7864
X2.25Y-3.0925
X2.2519Y-1.6825
X2.2548Y-6.5615
X2.2772Y-1.7127
X2.2801Y1.9383
X2.2801Y-6.5916
X2.283Y-2.9407
X2.2864Y1.7864
X2.2894Y-3.0925
X2.3025Y-1.7428
X2.3054Y-6.6218
X4.0909Y-1.7579
X4.0938Y-6.6369
X4.1162Y-1.7278
X4.1192Y-6.6067
X4.1385Y1.9404
X4.1414Y-2.9385
X4.1415Y-1.6976
X4.1445Y-6.5766
X4.1447Y1.7785
X4.1476Y-3.1004
X4.1668Y-1.6675
X4.1698Y-6.5464
X4.1773Y1.9336
X4.1802Y-2.9454
X4.1841Y1.7785
X4.187Y-3.1004
X4.1921Y-1.6373
X4.1951Y-6.5162
X4.216Y1.9267
X4.2174Y-1.6071
X4.219Y-2.9522
X4.2204Y-6.4861
X4.2234Y1.7785
X4.2264Y-3.1004
X4.2287Y-1.9036
X4.2316Y-6.7825
X4.254Y-1.8735
X4.2548Y1.9199
X4.257Y-6.7524
X4.2578Y-2.959
X4.2628Y1.7785
X4.2657Y-3.1004
X4.2793Y-1.8433
X4.2823Y-6.7222
X4.2936Y1.9131
X4.2965Y-2.9659
X4.3022Y1.7785
X4.3046Y-1.8131
X4.3051Y-3.1004
X4.3076Y-6.6921
X4.3299Y-1.783
X4.3324Y1.9062
X4.3329Y-6.6619
X4.3353Y-2.9727
X4.3415Y1.7785
X4.3445Y-3.1004
X4.3552Y-1.7528
X4.3582Y-6.6318
X5.3839Y0.247
X5.3839Y0.2077
X5.3839Y0.1683
X5.3839Y0.1289
X5.3839Y0.0896
X5.3839Y0.0502
X5.3868Y-4.6319
X5.3868Y-4.6713
X5.3868Y-4.7106
X5.3868Y-4.75
X5.3868Y-4.7894
X5.3868Y-4.8287
X5.5079Y0.2421
X5.5079Y0.2028
X5.5079Y0.1634
X5.5079Y0.124
X5.5079Y0.0846
X5.5079Y0.0453
X5.5118Y-4.6427
X5.5118Y-4.6821
X5.5118Y-4.7215
X5.5118Y-4.7608
X5.5118Y-4.8002
X5.5118Y-4.8396
X5.6486Y-4.6368
X5.6486Y-4.6762
X5.6486Y-4.7156
X5.6486Y-4.7549
X5.6486Y-4.7943
X5.6486Y-4.8337
X5.6516Y0.2402
X5.6516Y0.2008
X5.6516Y0.1614
X5.6516Y0.122
X5.6516Y0.0827
X5.6516Y0.0433
X6.6405Y-6.6058
X6.6435Y-1.7288
X6.6658Y-6.636
X6.6688Y-1.759
X6.6866Y-2.9758
X6.6896Y1.9011
X6.69Y-3.0935
X6.6911Y-6.6661
X6.6929Y1.7835
X6.6941Y-1.7892
X6.7164Y-6.6963
X6.7194Y-1.8193
X6.7254Y-2.969
X6.7283Y1.908
X6.7293Y-3.0935
X6.7323Y1.7835
X6.7418Y-6.7265
X6.7447Y-1.8495
X6.7641Y-2.9622
X6.7671Y-6.7566
X6.7671Y1.9148
X6.7687Y-3.0935
X6.77Y-1.8796
X6.7717Y1.7835
X6.7764Y-6.472
X6.7793Y-1.595
X6.8017Y-6.5021
X6.8029Y-2.9553
X6.8046Y-1.6251
X6.8059Y1.9216
X6.8081Y-3.0935
X6.811Y1.7835
X6.827Y-6.5323
X6.8299Y-1.6553
X6.8417Y-2.9485
X6.8446Y1.9285
X6.8474Y-3.0935
X6.8504Y1.7835
X6.8523Y-6.5624
X6.8552Y-1.6855
X6.8776Y-6.5926
X6.8805Y-2.9417
X6.8805Y-1.7156
X6.8834Y1.9353
X6.8868Y-3.0935
X6.8898Y1.7835
X6.9029Y-6.6228
X6.9058Y-1.7458
X8.6913Y-6.6379
X8.6942Y-1.7609
X8.7166Y-6.6077
X8.7195Y-1.7307
X8.7389Y-2.9395
X8.7418Y1.9375
X8.7419Y-6.5775
X8.7449Y-1.7006
X8.7451Y-3.1014
X8.748Y1.7756
X8.7672Y-6.5474
X8.7702Y-1.6704
X8.7777Y-2.9464
X8.7806Y1.9306
X8.7844Y-3.1014
X8.7874Y1.7756
X8.7925Y-6.5172
X8.7955Y-1.6403
X8.8164Y-2.9532
X8.8178Y-6.4871
X8.8194Y1.9238
X8.8208Y-1.6101
X8.8238Y-3.1014
X8.8268Y1.7756
X8.8291Y-6.7835
X8.832Y-1.9066
X8.8544Y-6.7534
X8.8552Y-2.96
X8.8573Y-1.8764
X8.8582Y1.9169
X8.8632Y-3.1014
X8.8661Y1.7756
X8.8797Y-6.7232
X8.8827Y-1.8462
X8.894Y-2.9669
X8.8969Y1.9101
X8.9026Y-3.1014
X8.905Y-6.6931
X8.9055Y1.7756
X8.908Y-1.8161
X8.9303Y-6.6629
X8.9327Y-2.9737
X8.9333Y-1.7859
X8.9357Y1.9033
X8.9419Y-3.1014
X8.9449Y1.7756
X8.9556Y-6.6327
X8.9586Y-1.7558
X9.2244Y-2.8484
X9.2254Y-7.5728
X9.2264Y-1.7598
X9.2274Y-6.4843
X9.2549Y-2.8661
X9.2559Y-1.7402
X9.2559Y-7.5906
X9.2569Y-6.4646
X9.2766Y-2.7933
X9.2776Y-7.5177
X9.2785Y-1.814
X9.2795Y-6.5384
X9.2864Y-2.8839
X9.2874Y-7.6083
X9.2884Y-1.7234
X9.2894Y-6.4478
X9.3081Y-2.813
X9.3091Y-7.5374
X9.311Y-1.7953
X9.312Y-6.5197
X9.9843Y-4.6329
X9.9843Y-4.6722
X9.9843Y-4.7116
X9.9843Y-4.751
X9.9843Y-4.7904
X9.9843Y-4.8297
X9.9872Y0.2441
X9.9872Y0.2047
X9.9872Y0.1654
X9.9872Y0.126
X9.9872Y0.0866
X9.9872Y0.0472
X10.0915Y-4.6309
X10.0915Y-4.6703
X10.0915Y-4.7096
X10.0915Y-4.749
X10.0915Y-4.7884
X10.0915Y-4.8278
X10.0955Y0.2372
X10.0955Y0.1978
X10.0955Y0.1585
X10.0955Y0.1191
X10.0955Y0.0797
X10.0955Y0.0404
X10.1604Y-2.2844
X10.1604Y-2.3238
X10.1614Y-7.0089
X10.1614Y-7.0482
X10.2323Y-2.3396
X10.2333Y-2.2677
X10.2333Y-2.3041
X10.2333Y-7.064
X10.2343Y-6.9921
X10.2343Y-7.0285
T0
M30
