M48
;DRILL file {KiCad 4.0.7-e2-6376~58~ubuntu16.04.1} date Sat Nov  3 10:39:23 2018
;FORMAT={-:-/ absolute / inch / decimal}
FMAT,2
INCH,TZ
T1C0.012
T2C0.016
T3C0.024
T4C0.031
T5C0.035
T6C0.039
T7C0.040
T8C0.047
%
G90
G05
M72
T1
X1.3643Y-0.0988
X1.3643Y-4.9807
X1.7696Y0.7781
X1.7696Y-4.1038
X2.1535Y-1.3396
X2.1535Y-6.2215
X2.2343Y-0.2559
X2.2343Y-5.1378
X2.2478Y-1.3004
X2.2478Y-6.1823
X2.2657Y-1.3297
X2.2657Y-6.2116
X2.3061Y-0.1457
X2.3061Y-5.0276
X2.3632Y-0.1457
X2.3632Y-5.0276
X2.3974Y-0.1435
X2.3974Y-5.0254
X2.4252Y-1.6024
X2.4252Y-6.4843
X2.4331Y-1.6319
X2.4331Y-6.5138
X2.4697Y-1.6533
X2.4697Y-6.5352
X2.4823Y-0.1811
X2.4823Y-5.063
X2.4833Y-0.0659
X2.4833Y-4.9478
X2.498Y-1.5906
X2.498Y-6.4724
X2.5039Y-0.5289
X2.5039Y-5.4108
X2.5098Y-1.7205
X2.5098Y-6.6024
X2.5109Y-1.5532
X2.5109Y-6.435
X2.5236Y-0.5522
X2.5236Y-5.4341
X2.5315Y-0.5837
X2.5315Y-5.4656
X2.5602Y-1.5873
X2.5602Y-6.4692
X2.563Y-1.7343
X2.563Y-6.6161
X2.5807Y-1.0689
X2.5807Y-5.9508
X2.5808Y-1.0231
X2.5808Y-5.905
X2.5984Y-1.0443
X2.5984Y-5.9262
X2.6214Y-0.5462
X2.6214Y-5.4281
X2.6379Y-0.5977
X2.6379Y-5.4796
X2.6486Y-0.5506
X2.6486Y-5.4325
X2.6604Y-0.0413
X2.6604Y-4.9232
X2.6639Y0.1416
X2.6639Y-4.7402
X2.6832Y0.1883
X2.6832Y-4.6936
X2.6871Y-1.7072
X2.6871Y-6.5891
X2.6929Y-1.9508
X2.6929Y-6.8327
X2.6939Y-0.5219
X2.6939Y-5.4038
X2.706Y1.3947
X2.706Y-3.4872
X2.7077Y-1.8809
X2.7077Y-6.7628
X2.7108Y0.1885
X2.7108Y-4.6934
X2.7203Y-0.5138
X2.7203Y-5.3957
X2.7205Y-1.9852
X2.7205Y-6.8671
X2.7324Y-1.7171
X2.7324Y-6.599
X2.7385Y0.0455
X2.7385Y-4.8364
X2.7463Y-1.917
X2.7463Y-6.7989
X2.7598Y1.0444
X2.7598Y-3.8375
X2.7625Y-0.5621
X2.7625Y-5.444
X2.7749Y-0.6161
X2.7749Y-5.498
X2.7833Y-0.0906
X2.7833Y-4.9724
X2.784Y-0.5901
X2.784Y-5.472
X2.7874Y-1.124
X2.7874Y-6.0059
X2.7913Y0.999
X2.7913Y-3.8829
X2.7916Y1.0775
X2.7916Y-3.8044
X2.8028Y-0.5388
X2.8028Y-5.4207
X2.8051Y-0.3278
X2.8051Y-5.2096
X2.8058Y-0.053
X2.8058Y-4.9349
X2.813Y-0.0856
X2.813Y-4.9675
X2.8228Y1.0305
X2.8228Y-0.6309
X2.8228Y-3.8514
X2.8228Y-5.5128
X2.8283Y-1.0261
X2.8283Y-5.908
X2.8296Y-0.5322
X2.8296Y-5.4141
X2.8345Y-0.975
X2.8345Y-5.8569
X2.8384Y-0.0994
X2.8384Y-4.9813
X2.8386Y-0.6545
X2.8386Y-5.5364
X2.8474Y-0.3248
X2.8474Y-5.2067
X2.8583Y-0.5315
X2.8583Y-5.4134
X2.8659Y-0.1663
X2.8659Y-5.0482
X2.8695Y-0.9335
X2.8695Y-5.8154
X2.8819Y0.2175
X2.8819Y-4.6644
X2.8843Y0.2968
X2.8843Y-4.5851
X2.8858Y0.2589
X2.8858Y-4.623
X2.8976Y0.3477
X2.8976Y-4.5342
X2.9515Y0.3109
X2.9515Y-4.571
X2.9911Y-0.247
X2.9911Y-5.1289
X2.9931Y-0.1904
X2.9931Y-5.0723
X3.0095Y0.2505
X3.0095Y-4.6314
X3.0236Y-0.3297
X3.0236Y-5.2116
X3.0423Y-0.2579
X3.0423Y-5.1398
X3.0482Y0.3189
X3.0482Y-4.563
X3.0548Y-0.3837
X3.0548Y-5.2656
X3.0826Y-0.5446
X3.0826Y-5.4265
X3.0906Y-1.
X3.0906Y-5.8819
X3.091Y-0.3523
X3.091Y-5.2342
X3.1Y-0.3784
X3.1Y-5.2602
X3.107Y-0.5317
X3.107Y-5.4136
X3.1191Y-0.9843
X3.1191Y-5.8661
X3.122Y-1.0197
X3.122Y-5.9016
X3.1314Y-0.5087
X3.1314Y-5.3906
X3.1526Y1.7697
X3.1526Y1.7461
X3.1526Y-3.1122
X3.1526Y-3.1358
X3.1622Y-0.4892
X3.1622Y-5.3711
X3.1969Y-0.001
X3.1969Y-4.8829
X3.2313Y1.2785
X3.2313Y-3.6033
X3.2323Y-0.2707
X3.2323Y-5.1526
X3.2746Y-0.0581
X3.2746Y-0.1118
X3.2746Y-4.94
X3.2746Y-4.9936
X3.311Y-0.1033
X3.311Y-4.9852
X3.3139Y-0.0207
X3.3139Y-4.9026
X3.3219Y1.1811
X3.3219Y-3.7008
X3.4233Y0.0059
X3.4233Y-4.876
X3.4266Y0.0358
X3.4266Y-4.8461
X3.4301Y0.0701
X3.4301Y-4.8118
X3.4331Y1.1929
X3.4331Y-3.689
X3.4547Y-1.2215
X3.4547Y-6.1033
X3.4951Y1.2805
X3.4951Y-3.6014
X3.5197Y-0.1437
X3.5197Y-5.0256
X3.5433Y-1.2215
X3.5433Y-6.1033
X3.5846Y0.9557
X3.5846Y-3.9262
X3.5866Y-0.0325
X3.5866Y-4.9144
X3.5915Y-1.066
X3.5915Y-5.9479
X3.5945Y-0.1033
X3.5945Y-4.9852
X3.6329Y-0.3228
X3.6329Y-5.2047
X3.6457Y-0.1959
X3.6457Y-5.0778
X3.6811Y-1.2283
X3.6811Y-6.1102
X3.6969Y-0.9921
X3.6969Y-5.874
X3.756Y1.3853
X3.756Y-3.4966
X3.8484Y-0.1959
X3.8484Y-0.3159
X3.8484Y-5.0778
X3.8484Y-5.1978
X3.8986Y-1.1654
X3.8986Y-6.0472
X3.9409Y-0.19
X3.9409Y-5.0719
X3.9567Y-0.1427
X3.9567Y-5.0246
X4.0512Y-0.1043
X4.0512Y-4.9862
X4.0541Y-0.1398
X4.0541Y-5.0217
X4.1244Y-0.632
X4.1244Y-5.5139
X4.1358Y-0.5758
X4.1358Y-5.4577
X4.14Y-0.603
X4.14Y-5.4849
X4.1476Y-0.5423
X4.1476Y-5.4242
X4.185Y-0.7313
X4.185Y-5.6132
X4.2156Y0.3937
X4.2156Y-4.4882
X4.2549Y0.2116
X4.2549Y-4.6703
X4.2982Y-0.563
X4.2982Y-5.4449
X4.2991Y-0.6003
X4.2991Y-5.4822
X4.306Y-0.627
X4.306Y-5.5089
X4.3278Y-0.1024
X4.3278Y-4.9843
X4.3524Y-0.0787
X4.3524Y-4.9606
X4.6811Y0.7864
X4.6811Y-4.0955
X5.1644Y-0.3264
X5.1644Y-5.2083
X5.9706Y-0.0988
X5.9706Y-4.9807
X6.3759Y0.7781
X6.3759Y-4.1038
X6.7598Y-1.3396
X6.7598Y-6.2215
X6.8406Y-0.2559
X6.8406Y-5.1378
X6.8541Y-1.3004
X6.8541Y-6.1823
X6.872Y-1.3297
X6.872Y-6.2116
X6.9124Y-0.1457
X6.9124Y-5.0276
X6.9695Y-0.1457
X6.9695Y-5.0276
X7.0037Y-0.1435
X7.0037Y-5.0254
X7.0315Y-1.6024
X7.0315Y-6.4843
X7.0394Y-1.6319
X7.0394Y-6.5138
X7.076Y-1.6533
X7.076Y-6.5352
X7.0886Y-0.1811
X7.0886Y-5.063
X7.0896Y-0.0659
X7.0896Y-4.9478
X7.1043Y-1.5906
X7.1043Y-6.4724
X7.1102Y-0.5289
X7.1102Y-5.4108
X7.1161Y-1.7205
X7.1161Y-6.6024
X7.1172Y-1.5532
X7.1172Y-6.435
X7.1299Y-0.5522
X7.1299Y-5.4341
X7.1378Y-0.5837
X7.1378Y-5.4656
X7.1665Y-1.5873
X7.1665Y-6.4692
X7.1693Y-1.7343
X7.1693Y-6.6161
X7.187Y-1.0689
X7.187Y-5.9508
X7.1871Y-1.0231
X7.1871Y-5.905
X7.2047Y-1.0443
X7.2047Y-5.9262
X7.2277Y-0.5462
X7.2277Y-5.4281
X7.2442Y-0.5977
X7.2442Y-5.4796
X7.2549Y-0.5506
X7.2549Y-5.4325
X7.2667Y-0.0413
X7.2667Y-4.9232
X7.2702Y0.1416
X7.2702Y-4.7402
X7.2895Y0.1883
X7.2895Y-4.6936
X7.2934Y-1.7072
X7.2934Y-6.5891
X7.2992Y-1.9508
X7.2992Y-6.8327
X7.3002Y-0.5219
X7.3002Y-5.4038
X7.3123Y1.3947
X7.3123Y-3.4872
X7.314Y-1.8809
X7.314Y-6.7628
X7.3171Y0.1885
X7.3171Y-4.6934
X7.3266Y-0.5138
X7.3266Y-5.3957
X7.3268Y-1.9852
X7.3268Y-6.8671
X7.3387Y-1.7171
X7.3387Y-6.599
X7.3448Y0.0455
X7.3448Y-4.8364
X7.3526Y-1.917
X7.3526Y-6.7989
X7.3661Y1.0444
X7.3661Y-3.8375
X7.3688Y-0.5621
X7.3688Y-5.444
X7.3812Y-0.6161
X7.3812Y-5.498
X7.3896Y-0.0906
X7.3896Y-4.9724
X7.3903Y-0.5901
X7.3903Y-5.472
X7.3937Y-1.124
X7.3937Y-6.0059
X7.3976Y0.999
X7.3976Y-3.8829
X7.3979Y1.0775
X7.3979Y-3.8044
X7.4091Y-0.5388
X7.4091Y-5.4207
X7.4114Y-0.3278
X7.4114Y-5.2096
X7.4121Y-0.053
X7.4121Y-4.9349
X7.4193Y-0.0856
X7.4193Y-4.9675
X7.4291Y1.0305
X7.4291Y-0.6309
X7.4291Y-3.8514
X7.4291Y-5.5128
X7.4346Y-1.0261
X7.4346Y-5.908
X7.4359Y-0.5322
X7.4359Y-5.4141
X7.4408Y-0.975
X7.4408Y-5.8569
X7.4447Y-0.0994
X7.4447Y-4.9813
X7.4449Y-0.6545
X7.4449Y-5.5364
X7.4537Y-0.3248
X7.4537Y-5.2067
X7.4646Y-0.5315
X7.4646Y-5.4134
X7.4722Y-0.1663
X7.4722Y-5.0482
X7.4758Y-0.9335
X7.4758Y-5.8154
X7.4882Y0.2175
X7.4882Y-4.6644
X7.4906Y0.2968
X7.4906Y-4.5851
X7.4921Y0.2589
X7.4921Y-4.623
X7.5039Y0.3477
X7.5039Y-4.5342
X7.5578Y0.3109
X7.5578Y-4.571
X7.5974Y-0.247
X7.5974Y-5.1289
X7.5994Y-0.1904
X7.5994Y-5.0723
X7.6158Y0.2505
X7.6158Y-4.6314
X7.6299Y-0.3297
X7.6299Y-5.2116
X7.6486Y-0.2579
X7.6486Y-5.1398
X7.6545Y0.3189
X7.6545Y-4.563
X7.6611Y-0.3837
X7.6611Y-5.2656
X7.6889Y-0.5446
X7.6889Y-5.4265
X7.6969Y-1.
X7.6969Y-5.8819
X7.6973Y-0.3523
X7.6973Y-5.2342
X7.7063Y-0.3784
X7.7063Y-5.2602
X7.7133Y-0.5317
X7.7133Y-5.4136
X7.7254Y-0.9843
X7.7254Y-5.8661
X7.7283Y-1.0197
X7.7283Y-5.9016
X7.7377Y-0.5087
X7.7377Y-5.3906
X7.7589Y1.7697
X7.7589Y1.7461
X7.7589Y-3.1122
X7.7589Y-3.1358
X7.7685Y-0.4892
X7.7685Y-5.3711
X7.8031Y-0.001
X7.8031Y-4.8829
X7.8376Y1.2785
X7.8376Y-3.6033
X7.8386Y-0.2707
X7.8386Y-5.1526
X7.8809Y-0.0581
X7.8809Y-0.1118
X7.8809Y-4.94
X7.8809Y-4.9936
X7.9173Y-0.1033
X7.9173Y-4.9852
X7.9202Y-0.0207
X7.9202Y-4.9026
X7.9281Y1.1811
X7.9281Y-3.7008
X8.0296Y0.0059
X8.0296Y-4.876
X8.0329Y0.0358
X8.0329Y-4.8461
X8.0364Y0.0701
X8.0364Y-4.8118
X8.0394Y1.1929
X8.0394Y-3.689
X8.061Y-1.2215
X8.061Y-6.1033
X8.1014Y1.2805
X8.1014Y-3.6014
X8.126Y-0.1437
X8.126Y-5.0256
X8.1496Y-1.2215
X8.1496Y-6.1033
X8.1909Y0.9557
X8.1909Y-3.9262
X8.1929Y-0.0325
X8.1929Y-4.9144
X8.1978Y-1.066
X8.1978Y-5.9479
X8.2008Y-0.1033
X8.2008Y-4.9852
X8.2392Y-0.3228
X8.2392Y-5.2047
X8.252Y-0.1959
X8.252Y-5.0778
X8.2874Y-1.2283
X8.2874Y-6.1102
X8.3031Y-0.9921
X8.3031Y-5.874
X8.3623Y1.3853
X8.3623Y-3.4966
X8.4547Y-0.1959
X8.4547Y-0.3159
X8.4547Y-5.0778
X8.4547Y-5.1978
X8.5049Y-1.1654
X8.5049Y-6.0472
X8.5472Y-0.19
X8.5472Y-5.0719
X8.563Y-0.1427
X8.563Y-5.0246
X8.6575Y-0.1043
X8.6575Y-4.9862
X8.6604Y-0.1398
X8.6604Y-5.0217
X8.7307Y-0.632
X8.7307Y-5.5139
X8.7421Y-0.5758
X8.7421Y-5.4577
X8.7463Y-0.603
X8.7463Y-5.4849
X8.7539Y-0.5423
X8.7539Y-5.4242
X8.7913Y-0.7313
X8.7913Y-5.6132
X8.8219Y0.3937
X8.8219Y-4.4882
X8.8612Y0.2116
X8.8612Y-4.6703
X8.9045Y-0.563
X8.9045Y-5.4449
X8.9054Y-0.6003
X8.9054Y-5.4822
X8.9123Y-0.627
X8.9123Y-5.5089
X8.9341Y-0.1024
X8.9341Y-4.9843
X8.9587Y-0.0787
X8.9587Y-4.9606
X9.2874Y0.7864
X9.2874Y-4.0955
X9.7707Y-0.3264
X9.7707Y-5.2083
T2
X2.1673Y-1.3691
X2.1673Y-6.251
X2.2293Y-1.3605
X2.2293Y-6.2424
X2.2667Y-0.3789
X2.2667Y-5.2608
X2.3455Y-0.3593
X2.3455Y-5.2411
X2.4439Y-0.3789
X2.4439Y-5.2608
X2.4636Y-0.3199
X2.4636Y-5.2018
X2.4793Y-1.2707
X2.4793Y-6.1526
X2.5148Y-1.2648
X2.5148Y-6.1467
X2.624Y0.5148
X2.624Y0.4793
X2.624Y0.4498
X2.624Y-4.3671
X2.624Y-4.4026
X2.624Y-4.4321
X2.7283Y-0.9567
X2.7283Y-1.5965
X2.7283Y-5.8386
X2.7283Y-6.4783
X2.7362Y-0.0041
X2.7362Y-4.886
X2.7539Y-1.4587
X2.7539Y-6.3406
X2.7844Y-1.9813
X2.7844Y-6.8632
X2.7982Y-0.3593
X2.7982Y-5.2411
X2.8474Y0.1683
X2.8474Y-4.7136
X2.9006Y-0.9547
X2.9006Y-5.8366
X2.9079Y-0.4911
X2.9079Y-5.373
X2.9213Y1.5915
X2.9213Y-3.2904
X2.999Y0.4724
X2.999Y-4.4094
X3.063Y1.4626
X3.063Y-3.4193
X3.1043Y1.1722
X3.1043Y-3.7096
X3.1349Y1.783
X3.1349Y-3.0989
X3.1467Y-0.1152
X3.1467Y-4.997
X3.1604Y1.1358
X3.1604Y-3.7461
X3.186Y-0.1781
X3.186Y-5.06
X3.1919Y-0.2215
X3.1919Y-5.1033
X3.2343Y-0.5636
X3.2343Y-5.4455
X3.2352Y-0.4341
X3.2352Y-5.3159
X3.2667Y0.0541
X3.2667Y-4.8278
X3.2795Y0.1112
X3.2795Y-4.7707
X3.2923Y0.0266
X3.2923Y-4.8553
X3.3278Y0.0541
X3.3278Y-4.8278
X3.3406Y0.1703
X3.3406Y-4.7116
X3.3445Y-0.5636
X3.3445Y-5.4455
X3.3524Y-0.4281
X3.3524Y-5.31
X3.3553Y-0.3445
X3.3553Y-5.2264
X3.359Y-0.2947
X3.359Y-5.1766
X3.3612Y0.2589
X3.3612Y-4.623
X3.372Y0.1697
X3.372Y-4.7122
X3.376Y-0.2637
X3.376Y-5.1456
X3.3829Y-0.437
X3.3829Y-5.3189
X3.3947Y-0.5636
X3.3947Y-5.4455
X3.4291Y1.4813
X3.4291Y1.3907
X3.4291Y-3.4006
X3.4291Y-3.4911
X3.4537Y-0.4587
X3.4537Y-5.3406
X3.4587Y-1.1909
X3.4587Y-6.0728
X3.5187Y-1.1555
X3.5187Y-6.0374
X3.5364Y-0.6791
X3.5364Y-5.561
X3.5758Y-1.0197
X3.5758Y-5.9016
X3.5846Y0.7003
X3.5846Y-4.1816
X3.5881Y0.669
X3.5881Y-4.2129
X3.6093Y0.6457
X3.6093Y-4.2362
X3.6513Y-1.0344
X3.6513Y-5.9163
X3.6526Y0.5896
X3.6526Y-4.2923
X3.6604Y-2.
X3.6604Y-6.8819
X3.6637Y0.7349
X3.6637Y-4.147
X3.6683Y-0.9518
X3.6683Y-5.8337
X3.6742Y-1.3681
X3.6742Y-6.25
X3.6752Y-1.5
X3.6752Y-6.3819
X3.6772Y-1.4537
X3.6772Y-6.3356
X3.6774Y0.7633
X3.6774Y-4.1186
X3.6791Y-1.4114
X3.6791Y-6.2933
X3.6811Y-1.9774
X3.6811Y-6.8593
X3.697Y-1.0267
X3.697Y-5.9086
X3.7057Y-1.9528
X3.7057Y-6.8346
X3.7283Y-1.9331
X3.7283Y-6.815
X3.7293Y0.747
X3.7293Y-4.1348
X3.7476Y-2.0217
X3.7476Y-6.9035
X3.7579Y-1.5
X3.7579Y-1.9685
X3.7579Y-6.3819
X3.7579Y-6.8504
X3.7638Y-1.1644
X3.7638Y-1.3573
X3.7638Y-6.0463
X3.7638Y-6.2392
X3.7787Y-1.461
X3.7787Y-6.3428
X3.7825Y-0.9094
X3.7825Y-5.7913
X3.7923Y-1.1211
X3.7923Y-1.7687
X3.7923Y-6.003
X3.7923Y-6.6506
X3.7943Y-1.4181
X3.7943Y-6.3
X3.7992Y-1.2825
X3.7992Y-6.1644
X3.8169Y-2.0207
X3.8169Y-6.9026
X3.8179Y-1.7441
X3.8179Y-6.626
X3.8317Y0.7638
X3.8317Y-4.1181
X3.877Y-1.8415
X3.877Y-6.7234
X3.9281Y-1.5807
X3.9281Y-6.4626
X3.936Y-1.3819
X3.936Y-6.2638
X3.9469Y0.251
X3.9469Y-4.6309
X3.983Y-1.3868
X3.983Y-6.2687
X4.Y-1.5453
X4.Y-6.4272
X4.0199Y-1.3527
X4.0199Y-6.2346
X4.0413Y-1.3179
X4.0413Y-6.1998
X4.0749Y-1.467
X4.0749Y-6.3489
X4.0758Y-0.6772
X4.0758Y-5.5591
X4.0876Y-1.5417
X4.0876Y-6.4236
X4.1112Y-0.7854
X4.1112Y-5.6673
X4.1311Y-1.4618
X4.1311Y-6.3436
X4.1526Y-0.6407
X4.1526Y-5.5226
X4.2687Y-1.0285
X4.2687Y-5.9104
X4.2756Y-1.0719
X4.2756Y-5.9537
X4.2766Y-1.1161
X4.2766Y-5.998
X4.2776Y-1.1594
X4.2776Y-6.0413
X4.3404Y-0.6623
X4.3404Y-5.5442
X4.3553Y-0.6112
X4.3553Y-5.4931
X4.3701Y-1.188
X4.3701Y-6.0699
X4.3789Y-1.2874
X4.3789Y-6.1693
X4.4142Y-0.6704
X4.4142Y-5.5523
X4.4311Y-1.0098
X4.4311Y-5.8917
X4.4331Y-1.1014
X4.4331Y-1.1437
X4.4331Y-5.9833
X4.4331Y-6.0256
X4.4341Y-1.0492
X4.4341Y-5.9311
X4.5974Y-1.0689
X4.5974Y-5.9508
X4.7303Y-0.7333
X4.7303Y-5.6152
X4.7313Y-0.4931
X4.7313Y-5.375
X4.8022Y-0.5935
X4.8022Y-5.4754
X6.7736Y-1.3691
X6.7736Y-6.251
X6.8356Y-1.3605
X6.8356Y-6.2424
X6.873Y-0.3789
X6.873Y-5.2608
X6.9518Y-0.3593
X6.9518Y-5.2411
X7.0502Y-0.3789
X7.0502Y-5.2608
X7.0699Y-0.3199
X7.0699Y-5.2018
X7.0856Y-1.2707
X7.0856Y-6.1526
X7.1211Y-1.2648
X7.1211Y-6.1467
X7.2303Y0.5148
X7.2303Y0.4793
X7.2303Y0.4498
X7.2303Y-4.3671
X7.2303Y-4.4026
X7.2303Y-4.4321
X7.3346Y-0.9567
X7.3346Y-1.5965
X7.3346Y-5.8386
X7.3346Y-6.4783
X7.3425Y-0.0041
X7.3425Y-4.886
X7.3602Y-1.4587
X7.3602Y-6.3406
X7.3907Y-1.9813
X7.3907Y-6.8632
X7.4045Y-0.3593
X7.4045Y-5.2411
X7.4537Y0.1683
X7.4537Y-4.7136
X7.5069Y-0.9547
X7.5069Y-5.8366
X7.5142Y-0.4911
X7.5142Y-5.373
X7.5276Y1.5915
X7.5276Y-3.2904
X7.6053Y0.4724
X7.6053Y-4.4094
X7.6693Y1.4626
X7.6693Y-3.4193
X7.7106Y1.1722
X7.7106Y-3.7096
X7.7412Y1.783
X7.7412Y-3.0989
X7.753Y-0.1152
X7.753Y-4.997
X7.7667Y1.1358
X7.7667Y-3.7461
X7.7923Y-0.1781
X7.7923Y-5.06
X7.7982Y-0.2215
X7.7982Y-5.1033
X7.8406Y-0.5636
X7.8406Y-5.4455
X7.8415Y-0.4341
X7.8415Y-5.3159
X7.873Y0.0541
X7.873Y-4.8278
X7.8858Y0.1112
X7.8858Y-4.7707
X7.8986Y0.0266
X7.8986Y-4.8553
X7.9341Y0.0541
X7.9341Y-4.8278
X7.9469Y0.1703
X7.9469Y-4.7116
X7.9508Y-0.5636
X7.9508Y-5.4455
X7.9587Y-0.4281
X7.9587Y-5.31
X7.9616Y-0.3445
X7.9616Y-5.2264
X7.9653Y-0.2947
X7.9653Y-5.1766
X7.9675Y0.2589
X7.9675Y-4.623
X7.9783Y0.1697
X7.9783Y-4.7122
X7.9823Y-0.2637
X7.9823Y-5.1456
X7.9892Y-0.437
X7.9892Y-5.3189
X8.001Y-0.5636
X8.001Y-5.4455
X8.0354Y1.4813
X8.0354Y1.3907
X8.0354Y-3.4006
X8.0354Y-3.4911
X8.06Y-0.4587
X8.06Y-5.3406
X8.065Y-1.1909
X8.065Y-6.0728
X8.125Y-1.1555
X8.125Y-6.0374
X8.1427Y-0.6791
X8.1427Y-5.561
X8.1821Y-1.0197
X8.1821Y-5.9016
X8.1909Y0.7003
X8.1909Y-4.1816
X8.1944Y0.669
X8.1944Y-4.2129
X8.2156Y0.6457
X8.2156Y-4.2362
X8.2576Y-1.0344
X8.2576Y-5.9163
X8.2589Y0.5896
X8.2589Y-4.2923
X8.2667Y-2.
X8.2667Y-6.8819
X8.27Y0.7349
X8.27Y-4.147
X8.2746Y-0.9518
X8.2746Y-5.8337
X8.2805Y-1.3681
X8.2805Y-6.25
X8.2815Y-1.5
X8.2815Y-6.3819
X8.2835Y-1.4537
X8.2835Y-6.3356
X8.2837Y0.7633
X8.2837Y-4.1186
X8.2854Y-1.4114
X8.2854Y-6.2933
X8.2874Y-1.9774
X8.2874Y-6.8593
X8.3033Y-1.0267
X8.3033Y-5.9086
X8.312Y-1.9528
X8.312Y-6.8346
X8.3346Y-1.9331
X8.3346Y-6.815
X8.3356Y0.747
X8.3356Y-4.1348
X8.3539Y-2.0217
X8.3539Y-6.9035
X8.3642Y-1.5
X8.3642Y-1.9685
X8.3642Y-6.3819
X8.3642Y-6.8504
X8.3701Y-1.1644
X8.3701Y-1.3573
X8.3701Y-6.0463
X8.3701Y-6.2392
X8.385Y-1.461
X8.385Y-6.3428
X8.3888Y-0.9094
X8.3888Y-5.7913
X8.3986Y-1.1211
X8.3986Y-1.7687
X8.3986Y-6.003
X8.3986Y-6.6506
X8.4006Y-1.4181
X8.4006Y-6.3
X8.4055Y-1.2825
X8.4055Y-6.1644
X8.4232Y-2.0207
X8.4232Y-6.9026
X8.4242Y-1.7441
X8.4242Y-6.626
X8.438Y0.7638
X8.438Y-4.1181
X8.4833Y-1.8415
X8.4833Y-6.7234
X8.5344Y-1.5807
X8.5344Y-6.4626
X8.5423Y-1.3819
X8.5423Y-6.2638
X8.5531Y0.251
X8.5531Y-4.6309
X8.5893Y-1.3868
X8.5893Y-6.2687
X8.6063Y-1.5453
X8.6063Y-6.4272
X8.6262Y-1.3527
X8.6262Y-6.2346
X8.6476Y-1.3179
X8.6476Y-6.1998
X8.6812Y-1.467
X8.6812Y-6.3489
X8.6821Y-0.6772
X8.6821Y-5.5591
X8.6939Y-1.5417
X8.6939Y-6.4236
X8.7175Y-0.7854
X8.7175Y-5.6673
X8.7373Y-1.4618
X8.7373Y-6.3436
X8.7589Y-0.6407
X8.7589Y-5.5226
X8.875Y-1.0285
X8.875Y-5.9104
X8.8819Y-1.0719
X8.8819Y-5.9537
X8.8829Y-1.1161
X8.8829Y-5.998
X8.8839Y-1.1594
X8.8839Y-6.0413
X8.9467Y-0.6623
X8.9467Y-5.5442
X8.9616Y-0.6112
X8.9616Y-5.4931
X8.9764Y-1.188
X8.9764Y-6.0699
X8.9852Y-1.2874
X8.9852Y-6.1693
X9.0205Y-0.6704
X9.0205Y-5.5523
X9.0374Y-1.0098
X9.0374Y-5.8917
X9.0394Y-1.1014
X9.0394Y-1.1437
X9.0394Y-5.9833
X9.0394Y-6.0256
X9.0404Y-1.0492
X9.0404Y-5.9311
X9.2037Y-1.0689
X9.2037Y-5.9508
X9.3366Y-0.7333
X9.3366Y-5.6152
X9.3376Y-0.4931
X9.3376Y-5.375
X9.4085Y-0.5935
X9.4085Y-5.4754
T3
X3.254Y0.2451
X3.254Y-4.6368
X7.8603Y0.2451
X7.8603Y-4.6368
T4
X2.6417Y-0.1703
X2.6417Y-0.3671
X2.6417Y-5.0522
X2.6417Y-5.249
X7.248Y-0.1703
X7.248Y-0.3671
X7.248Y-5.0522
X7.248Y-5.249
T5
X1.2037Y-0.4167
X1.2037Y-0.5167
X1.2037Y-0.6167
X1.2037Y-5.2986
X1.2037Y-5.3986
X1.2037Y-5.4986
X5.81Y-0.4167
X5.81Y-0.5167
X5.81Y-0.6167
X5.81Y-5.2986
X5.81Y-5.3986
X5.81Y-5.4986
T6
X2.4191Y1.7224
X2.4191Y-3.1594
X2.5191Y1.7224
X2.5191Y-3.1594
X2.6191Y1.7224
X2.6191Y-3.1594
X2.7191Y1.7224
X2.7191Y-3.1594
X2.8191Y1.7224
X2.8191Y-3.1594
X4.1457Y1.5659
X4.1457Y1.4659
X4.1457Y-3.3159
X4.1457Y-3.4159
X4.2457Y1.5659
X4.2457Y1.4659
X4.2457Y-3.3159
X4.2457Y-3.4159
X7.0254Y1.7224
X7.0254Y-3.1594
X7.1254Y1.7224
X7.1254Y-3.1594
X7.2254Y1.7224
X7.2254Y-3.1594
X7.3254Y1.7224
X7.3254Y-3.1594
X7.4254Y1.7224
X7.4254Y-3.1594
X8.752Y1.5659
X8.752Y1.4659
X8.752Y-3.3159
X8.752Y-3.4159
X8.852Y1.5659
X8.852Y1.4659
X8.852Y-3.3159
X8.852Y-3.4159
T7
X2.9852Y0.9646
X2.9852Y-3.9173
X3.4852Y0.9646
X3.4852Y-3.9173
X7.5915Y0.9646
X7.5915Y-3.9173
X8.0915Y0.9646
X8.0915Y-3.9173
T8
X3.0748Y1.9429
X3.0748Y-2.939
X3.3346Y1.9429
X3.3346Y-2.939
X7.6811Y1.9429
X7.6811Y-2.939
X7.9409Y1.9429
X7.9409Y-2.939
T0
M30
