G04 #@! TF.FileFunction,Paste,Top*
%FSLAX46Y46*%
G04 Gerber Fmt 4.6, Leading zero omitted, Abs format (unit mm)*
G04 Created by KiCad (PCBNEW 4.0.7-e2-6376~58~ubuntu16.04.1) date Sat Nov  3 10:34:09 2018*
%MOMM*%
%LPD*%
G01*
G04 APERTURE LIST*
%ADD10C,0.150000*%
%ADD11R,0.750000X0.800000*%
%ADD12R,0.650000X1.060000*%
%ADD13R,0.900000X0.500000*%
%ADD14R,0.500000X0.900000*%
%ADD15R,0.800000X0.750000*%
%ADD16R,2.180000X1.600000*%
%ADD17R,1.600000X2.180000*%
%ADD18R,1.220000X0.650000*%
%ADD19R,2.000000X3.800000*%
%ADD20R,2.000000X1.500000*%
%ADD21R,1.000000X1.250000*%
%ADD22R,0.850000X0.650000*%
%ADD23R,2.000000X1.700000*%
%ADD24R,1.600000X1.400000*%
%ADD25R,0.400000X1.350000*%
%ADD26R,1.900000X1.600000*%
%ADD27O,0.300000X1.250000*%
%ADD28O,0.250000X0.700000*%
%ADD29R,0.250000X0.700000*%
%ADD30O,0.700000X0.250000*%
%ADD31R,0.700000X0.250000*%
%ADD32R,0.772500X0.772500*%
%ADD33O,2.500000X0.900000*%
%ADD34O,0.900000X2.500000*%
G04 APERTURE END LIST*
D10*
X205050000Y-129225000D02*
X203850000Y-129225000D01*
X205050000Y-129125000D02*
X205050000Y-129225000D01*
X203750000Y-129125000D02*
X205050000Y-129125000D01*
X203750000Y-129325000D02*
X203750000Y-129125000D01*
X205150000Y-129325000D02*
X203750000Y-129325000D01*
X205150000Y-129025000D02*
X205150000Y-129325000D01*
X203750000Y-129025000D02*
X205150000Y-129025000D01*
X203750000Y-129425000D02*
X203750000Y-129025000D01*
X205050000Y-129425000D02*
X203750000Y-129425000D01*
X205150000Y-128925000D02*
X205150000Y-129525000D01*
X203650000Y-128925000D02*
X205150000Y-128925000D01*
X203650000Y-129525000D02*
X203650000Y-128925000D01*
X205150000Y-129525000D02*
X203650000Y-129525000D01*
X205050000Y-129225000D02*
X203850000Y-129225000D01*
X205050000Y-129125000D02*
X205050000Y-129225000D01*
X203750000Y-129125000D02*
X205050000Y-129125000D01*
X203750000Y-129325000D02*
X203750000Y-129125000D01*
X203750000Y-129425000D02*
X203750000Y-129025000D01*
X205050000Y-129425000D02*
X203750000Y-129425000D01*
X203650000Y-129525000D02*
X203650000Y-128925000D01*
X205150000Y-129525000D02*
X203650000Y-129525000D01*
X203650000Y-128925000D02*
X205150000Y-128925000D01*
X205150000Y-128925000D02*
X205150000Y-129525000D01*
X203750000Y-129025000D02*
X205150000Y-129025000D01*
X205150000Y-129325000D02*
X203750000Y-129325000D01*
X205150000Y-129025000D02*
X205150000Y-129325000D01*
X205050000Y-129225000D02*
X203850000Y-129225000D01*
X205050000Y-129125000D02*
X205050000Y-129225000D01*
X203750000Y-129125000D02*
X205050000Y-129125000D01*
X203750000Y-129325000D02*
X203750000Y-129125000D01*
X203750000Y-129425000D02*
X203750000Y-129025000D01*
X205050000Y-129425000D02*
X203750000Y-129425000D01*
X203650000Y-129525000D02*
X203650000Y-128925000D01*
X205150000Y-129525000D02*
X203650000Y-129525000D01*
X203650000Y-128925000D02*
X205150000Y-128925000D01*
X205150000Y-128925000D02*
X205150000Y-129525000D01*
X203750000Y-129025000D02*
X205150000Y-129025000D01*
X205150000Y-129325000D02*
X203750000Y-129325000D01*
X205150000Y-129025000D02*
X205150000Y-129325000D01*
X203650000Y-127925000D02*
X205150000Y-127925000D01*
X203750000Y-128025000D02*
X205150000Y-128025000D01*
X203750000Y-128025000D02*
X205150000Y-128025000D01*
X203650000Y-127925000D02*
X205150000Y-127925000D01*
X203650000Y-127925000D02*
X205150000Y-127925000D01*
X203750000Y-128025000D02*
X205150000Y-128025000D01*
X203750000Y-128425000D02*
X203750000Y-128025000D01*
X203750000Y-128325000D02*
X203750000Y-128125000D01*
X203750000Y-128325000D02*
X203750000Y-128125000D01*
X203750000Y-128425000D02*
X203750000Y-128025000D01*
X203750000Y-128425000D02*
X203750000Y-128025000D01*
X203750000Y-128325000D02*
X203750000Y-128125000D01*
X205150000Y-128525000D02*
X203650000Y-128525000D01*
X205150000Y-128525000D02*
X203650000Y-128525000D01*
X205150000Y-128325000D02*
X203750000Y-128325000D01*
X205150000Y-128325000D02*
X203750000Y-128325000D01*
X205150000Y-128525000D02*
X203650000Y-128525000D01*
X205150000Y-128325000D02*
X203750000Y-128325000D01*
X205050000Y-128425000D02*
X203750000Y-128425000D01*
X205050000Y-128425000D02*
X203750000Y-128425000D01*
X203750000Y-128125000D02*
X205050000Y-128125000D01*
X203650000Y-128525000D02*
X203650000Y-127925000D01*
X203650000Y-128525000D02*
X203650000Y-127925000D01*
X205050000Y-128425000D02*
X203750000Y-128425000D01*
X203650000Y-128525000D02*
X203650000Y-127925000D01*
X205150000Y-127925000D02*
X205150000Y-128525000D01*
X205150000Y-128025000D02*
X205150000Y-128325000D01*
X205150000Y-128025000D02*
X205150000Y-128325000D01*
X205150000Y-128025000D02*
X205150000Y-128325000D01*
X205150000Y-127925000D02*
X205150000Y-128525000D01*
X205150000Y-127925000D02*
X205150000Y-128525000D01*
X203750000Y-128125000D02*
X205050000Y-128125000D01*
X203750000Y-128125000D02*
X205050000Y-128125000D01*
X205050000Y-128225000D02*
X203850000Y-128225000D01*
X205050000Y-128225000D02*
X203850000Y-128225000D01*
X205050000Y-128225000D02*
X203850000Y-128225000D01*
X205050000Y-128125000D02*
X205050000Y-128225000D01*
X205050000Y-128125000D02*
X205050000Y-128225000D01*
X205050000Y-128125000D02*
X205050000Y-128225000D01*
X203650000Y-127025000D02*
X205150000Y-127025000D01*
X203750000Y-127125000D02*
X205150000Y-127125000D01*
X203750000Y-127125000D02*
X205150000Y-127125000D01*
X203650000Y-127025000D02*
X205150000Y-127025000D01*
X203650000Y-127025000D02*
X205150000Y-127025000D01*
X203750000Y-127125000D02*
X205150000Y-127125000D01*
X203750000Y-127525000D02*
X203750000Y-127125000D01*
X203750000Y-127425000D02*
X203750000Y-127225000D01*
X203750000Y-127425000D02*
X203750000Y-127225000D01*
X203750000Y-127525000D02*
X203750000Y-127125000D01*
X203750000Y-127525000D02*
X203750000Y-127125000D01*
X203750000Y-127425000D02*
X203750000Y-127225000D01*
X205150000Y-127625000D02*
X203650000Y-127625000D01*
X205150000Y-127625000D02*
X203650000Y-127625000D01*
X205150000Y-127425000D02*
X203750000Y-127425000D01*
X205150000Y-127425000D02*
X203750000Y-127425000D01*
X205150000Y-127625000D02*
X203650000Y-127625000D01*
X205150000Y-127425000D02*
X203750000Y-127425000D01*
X205050000Y-127525000D02*
X203750000Y-127525000D01*
X205050000Y-127525000D02*
X203750000Y-127525000D01*
X203750000Y-127225000D02*
X205050000Y-127225000D01*
X203650000Y-127625000D02*
X203650000Y-127025000D01*
X203650000Y-127625000D02*
X203650000Y-127025000D01*
X205050000Y-127525000D02*
X203750000Y-127525000D01*
X203650000Y-127625000D02*
X203650000Y-127025000D01*
X205150000Y-127025000D02*
X205150000Y-127625000D01*
X205150000Y-127125000D02*
X205150000Y-127425000D01*
X205150000Y-127125000D02*
X205150000Y-127425000D01*
X205150000Y-127125000D02*
X205150000Y-127425000D01*
X205150000Y-127025000D02*
X205150000Y-127625000D01*
X205150000Y-127025000D02*
X205150000Y-127625000D01*
X203750000Y-127225000D02*
X205050000Y-127225000D01*
X203750000Y-127225000D02*
X205050000Y-127225000D01*
X205050000Y-127325000D02*
X203850000Y-127325000D01*
X205050000Y-127325000D02*
X203850000Y-127325000D01*
X205050000Y-127325000D02*
X203850000Y-127325000D01*
X205050000Y-127225000D02*
X205050000Y-127325000D01*
X205050000Y-127225000D02*
X205050000Y-127325000D01*
X205050000Y-127225000D02*
X205050000Y-127325000D01*
X221250000Y-127025000D02*
X222750000Y-127025000D01*
X221350000Y-127125000D02*
X222750000Y-127125000D01*
X221350000Y-127125000D02*
X222750000Y-127125000D01*
X221250000Y-127025000D02*
X222750000Y-127025000D01*
X221250000Y-127025000D02*
X222750000Y-127025000D01*
X221350000Y-127125000D02*
X222750000Y-127125000D01*
X221350000Y-127525000D02*
X221350000Y-127125000D01*
X221350000Y-127425000D02*
X221350000Y-127225000D01*
X221350000Y-127425000D02*
X221350000Y-127225000D01*
X221350000Y-127525000D02*
X221350000Y-127125000D01*
X221350000Y-127525000D02*
X221350000Y-127125000D01*
X221350000Y-127425000D02*
X221350000Y-127225000D01*
X222750000Y-127625000D02*
X221250000Y-127625000D01*
X222750000Y-127625000D02*
X221250000Y-127625000D01*
X222750000Y-127425000D02*
X221350000Y-127425000D01*
X222750000Y-127425000D02*
X221350000Y-127425000D01*
X222750000Y-127625000D02*
X221250000Y-127625000D01*
X222750000Y-127425000D02*
X221350000Y-127425000D01*
X222650000Y-127525000D02*
X221350000Y-127525000D01*
X222650000Y-127525000D02*
X221350000Y-127525000D01*
X221350000Y-127225000D02*
X222650000Y-127225000D01*
X221250000Y-127625000D02*
X221250000Y-127025000D01*
X221250000Y-127625000D02*
X221250000Y-127025000D01*
X222650000Y-127525000D02*
X221350000Y-127525000D01*
X221250000Y-127625000D02*
X221250000Y-127025000D01*
X222750000Y-127025000D02*
X222750000Y-127625000D01*
X222750000Y-127125000D02*
X222750000Y-127425000D01*
X222750000Y-127125000D02*
X222750000Y-127425000D01*
X222750000Y-127125000D02*
X222750000Y-127425000D01*
X222750000Y-127025000D02*
X222750000Y-127625000D01*
X222750000Y-127025000D02*
X222750000Y-127625000D01*
X221350000Y-127225000D02*
X222650000Y-127225000D01*
X221350000Y-127225000D02*
X222650000Y-127225000D01*
X222650000Y-127325000D02*
X221450000Y-127325000D01*
X222650000Y-127325000D02*
X221450000Y-127325000D01*
X222650000Y-127325000D02*
X221450000Y-127325000D01*
X222650000Y-127225000D02*
X222650000Y-127325000D01*
X222650000Y-127225000D02*
X222650000Y-127325000D01*
X222650000Y-127225000D02*
X222650000Y-127325000D01*
X221250000Y-128025000D02*
X222750000Y-128025000D01*
X221350000Y-128125000D02*
X222750000Y-128125000D01*
X221350000Y-128125000D02*
X222750000Y-128125000D01*
X221250000Y-128025000D02*
X222750000Y-128025000D01*
X221250000Y-128025000D02*
X222750000Y-128025000D01*
X221350000Y-128125000D02*
X222750000Y-128125000D01*
X221350000Y-128525000D02*
X221350000Y-128125000D01*
X221350000Y-128425000D02*
X221350000Y-128225000D01*
X221350000Y-128425000D02*
X221350000Y-128225000D01*
X221350000Y-128525000D02*
X221350000Y-128125000D01*
X221350000Y-128525000D02*
X221350000Y-128125000D01*
X221350000Y-128425000D02*
X221350000Y-128225000D01*
X222750000Y-128625000D02*
X221250000Y-128625000D01*
X222750000Y-128625000D02*
X221250000Y-128625000D01*
X222750000Y-128425000D02*
X221350000Y-128425000D01*
X222750000Y-128425000D02*
X221350000Y-128425000D01*
X222750000Y-128625000D02*
X221250000Y-128625000D01*
X222750000Y-128425000D02*
X221350000Y-128425000D01*
X222650000Y-128525000D02*
X221350000Y-128525000D01*
X222650000Y-128525000D02*
X221350000Y-128525000D01*
X221350000Y-128225000D02*
X222650000Y-128225000D01*
X221250000Y-128625000D02*
X221250000Y-128025000D01*
X221250000Y-128625000D02*
X221250000Y-128025000D01*
X222650000Y-128525000D02*
X221350000Y-128525000D01*
X221250000Y-128625000D02*
X221250000Y-128025000D01*
X222750000Y-128025000D02*
X222750000Y-128625000D01*
X222750000Y-128125000D02*
X222750000Y-128425000D01*
X222750000Y-128125000D02*
X222750000Y-128425000D01*
X222750000Y-128125000D02*
X222750000Y-128425000D01*
X222750000Y-128025000D02*
X222750000Y-128625000D01*
X222750000Y-128025000D02*
X222750000Y-128625000D01*
X221350000Y-128225000D02*
X222650000Y-128225000D01*
X221350000Y-128225000D02*
X222650000Y-128225000D01*
X222650000Y-128325000D02*
X221450000Y-128325000D01*
X222650000Y-128325000D02*
X221450000Y-128325000D01*
X222650000Y-128325000D02*
X221450000Y-128325000D01*
X222650000Y-128225000D02*
X222650000Y-128325000D01*
X222650000Y-128225000D02*
X222650000Y-128325000D01*
X222650000Y-128225000D02*
X222650000Y-128325000D01*
X221250000Y-128925000D02*
X222750000Y-128925000D01*
X221350000Y-129025000D02*
X222750000Y-129025000D01*
X221350000Y-129025000D02*
X222750000Y-129025000D01*
X221250000Y-128925000D02*
X222750000Y-128925000D01*
X221250000Y-128925000D02*
X222750000Y-128925000D01*
X221350000Y-129025000D02*
X222750000Y-129025000D01*
X221350000Y-129425000D02*
X221350000Y-129025000D01*
X221350000Y-129325000D02*
X221350000Y-129125000D01*
X221350000Y-129325000D02*
X221350000Y-129125000D01*
X221350000Y-129425000D02*
X221350000Y-129025000D01*
X221350000Y-129425000D02*
X221350000Y-129025000D01*
X221350000Y-129325000D02*
X221350000Y-129125000D01*
X222750000Y-129525000D02*
X221250000Y-129525000D01*
X222750000Y-129525000D02*
X221250000Y-129525000D01*
X222750000Y-129325000D02*
X221350000Y-129325000D01*
X222750000Y-129325000D02*
X221350000Y-129325000D01*
X222750000Y-129525000D02*
X221250000Y-129525000D01*
X222750000Y-129325000D02*
X221350000Y-129325000D01*
X222650000Y-129425000D02*
X221350000Y-129425000D01*
X222650000Y-129425000D02*
X221350000Y-129425000D01*
X221350000Y-129125000D02*
X222650000Y-129125000D01*
X221250000Y-129525000D02*
X221250000Y-128925000D01*
X221250000Y-129525000D02*
X221250000Y-128925000D01*
X222650000Y-129425000D02*
X221350000Y-129425000D01*
X221250000Y-129525000D02*
X221250000Y-128925000D01*
X222750000Y-128925000D02*
X222750000Y-129525000D01*
X222750000Y-129025000D02*
X222750000Y-129325000D01*
X222750000Y-129025000D02*
X222750000Y-129325000D01*
X222750000Y-129025000D02*
X222750000Y-129325000D01*
X222750000Y-128925000D02*
X222750000Y-129525000D01*
X222750000Y-128925000D02*
X222750000Y-129525000D01*
X221350000Y-129125000D02*
X222650000Y-129125000D01*
X221350000Y-129125000D02*
X222650000Y-129125000D01*
X222650000Y-129225000D02*
X221450000Y-129225000D01*
X222650000Y-129225000D02*
X221450000Y-129225000D01*
X222650000Y-129225000D02*
X221450000Y-129225000D01*
X222650000Y-129125000D02*
X222650000Y-129225000D01*
X222650000Y-129125000D02*
X222650000Y-129225000D01*
X222650000Y-129125000D02*
X222650000Y-129225000D01*
X88050000Y-129225000D02*
X86850000Y-129225000D01*
X88050000Y-129125000D02*
X88050000Y-129225000D01*
X86750000Y-129125000D02*
X88050000Y-129125000D01*
X86750000Y-129325000D02*
X86750000Y-129125000D01*
X88150000Y-129325000D02*
X86750000Y-129325000D01*
X88150000Y-129025000D02*
X88150000Y-129325000D01*
X86750000Y-129025000D02*
X88150000Y-129025000D01*
X86750000Y-129425000D02*
X86750000Y-129025000D01*
X88050000Y-129425000D02*
X86750000Y-129425000D01*
X88150000Y-128925000D02*
X88150000Y-129525000D01*
X86650000Y-128925000D02*
X88150000Y-128925000D01*
X86650000Y-129525000D02*
X86650000Y-128925000D01*
X88150000Y-129525000D02*
X86650000Y-129525000D01*
X88050000Y-129225000D02*
X86850000Y-129225000D01*
X88050000Y-129125000D02*
X88050000Y-129225000D01*
X86750000Y-129125000D02*
X88050000Y-129125000D01*
X86750000Y-129325000D02*
X86750000Y-129125000D01*
X86750000Y-129425000D02*
X86750000Y-129025000D01*
X88050000Y-129425000D02*
X86750000Y-129425000D01*
X86650000Y-129525000D02*
X86650000Y-128925000D01*
X88150000Y-129525000D02*
X86650000Y-129525000D01*
X86650000Y-128925000D02*
X88150000Y-128925000D01*
X88150000Y-128925000D02*
X88150000Y-129525000D01*
X86750000Y-129025000D02*
X88150000Y-129025000D01*
X88150000Y-129325000D02*
X86750000Y-129325000D01*
X88150000Y-129025000D02*
X88150000Y-129325000D01*
X88050000Y-129225000D02*
X86850000Y-129225000D01*
X88050000Y-129125000D02*
X88050000Y-129225000D01*
X86750000Y-129125000D02*
X88050000Y-129125000D01*
X86750000Y-129325000D02*
X86750000Y-129125000D01*
X86750000Y-129425000D02*
X86750000Y-129025000D01*
X88050000Y-129425000D02*
X86750000Y-129425000D01*
X86650000Y-129525000D02*
X86650000Y-128925000D01*
X88150000Y-129525000D02*
X86650000Y-129525000D01*
X86650000Y-128925000D02*
X88150000Y-128925000D01*
X88150000Y-128925000D02*
X88150000Y-129525000D01*
X86750000Y-129025000D02*
X88150000Y-129025000D01*
X88150000Y-129325000D02*
X86750000Y-129325000D01*
X88150000Y-129025000D02*
X88150000Y-129325000D01*
X86650000Y-127925000D02*
X88150000Y-127925000D01*
X86750000Y-128025000D02*
X88150000Y-128025000D01*
X86750000Y-128025000D02*
X88150000Y-128025000D01*
X86650000Y-127925000D02*
X88150000Y-127925000D01*
X86650000Y-127925000D02*
X88150000Y-127925000D01*
X86750000Y-128025000D02*
X88150000Y-128025000D01*
X86750000Y-128425000D02*
X86750000Y-128025000D01*
X86750000Y-128325000D02*
X86750000Y-128125000D01*
X86750000Y-128325000D02*
X86750000Y-128125000D01*
X86750000Y-128425000D02*
X86750000Y-128025000D01*
X86750000Y-128425000D02*
X86750000Y-128025000D01*
X86750000Y-128325000D02*
X86750000Y-128125000D01*
X88150000Y-128525000D02*
X86650000Y-128525000D01*
X88150000Y-128525000D02*
X86650000Y-128525000D01*
X88150000Y-128325000D02*
X86750000Y-128325000D01*
X88150000Y-128325000D02*
X86750000Y-128325000D01*
X88150000Y-128525000D02*
X86650000Y-128525000D01*
X88150000Y-128325000D02*
X86750000Y-128325000D01*
X88050000Y-128425000D02*
X86750000Y-128425000D01*
X88050000Y-128425000D02*
X86750000Y-128425000D01*
X86750000Y-128125000D02*
X88050000Y-128125000D01*
X86650000Y-128525000D02*
X86650000Y-127925000D01*
X86650000Y-128525000D02*
X86650000Y-127925000D01*
X88050000Y-128425000D02*
X86750000Y-128425000D01*
X86650000Y-128525000D02*
X86650000Y-127925000D01*
X88150000Y-127925000D02*
X88150000Y-128525000D01*
X88150000Y-128025000D02*
X88150000Y-128325000D01*
X88150000Y-128025000D02*
X88150000Y-128325000D01*
X88150000Y-128025000D02*
X88150000Y-128325000D01*
X88150000Y-127925000D02*
X88150000Y-128525000D01*
X88150000Y-127925000D02*
X88150000Y-128525000D01*
X86750000Y-128125000D02*
X88050000Y-128125000D01*
X86750000Y-128125000D02*
X88050000Y-128125000D01*
X88050000Y-128225000D02*
X86850000Y-128225000D01*
X88050000Y-128225000D02*
X86850000Y-128225000D01*
X88050000Y-128225000D02*
X86850000Y-128225000D01*
X88050000Y-128125000D02*
X88050000Y-128225000D01*
X88050000Y-128125000D02*
X88050000Y-128225000D01*
X88050000Y-128125000D02*
X88050000Y-128225000D01*
X86650000Y-127025000D02*
X88150000Y-127025000D01*
X86750000Y-127125000D02*
X88150000Y-127125000D01*
X86750000Y-127125000D02*
X88150000Y-127125000D01*
X86650000Y-127025000D02*
X88150000Y-127025000D01*
X86650000Y-127025000D02*
X88150000Y-127025000D01*
X86750000Y-127125000D02*
X88150000Y-127125000D01*
X86750000Y-127525000D02*
X86750000Y-127125000D01*
X86750000Y-127425000D02*
X86750000Y-127225000D01*
X86750000Y-127425000D02*
X86750000Y-127225000D01*
X86750000Y-127525000D02*
X86750000Y-127125000D01*
X86750000Y-127525000D02*
X86750000Y-127125000D01*
X86750000Y-127425000D02*
X86750000Y-127225000D01*
X88150000Y-127625000D02*
X86650000Y-127625000D01*
X88150000Y-127625000D02*
X86650000Y-127625000D01*
X88150000Y-127425000D02*
X86750000Y-127425000D01*
X88150000Y-127425000D02*
X86750000Y-127425000D01*
X88150000Y-127625000D02*
X86650000Y-127625000D01*
X88150000Y-127425000D02*
X86750000Y-127425000D01*
X88050000Y-127525000D02*
X86750000Y-127525000D01*
X88050000Y-127525000D02*
X86750000Y-127525000D01*
X86750000Y-127225000D02*
X88050000Y-127225000D01*
X86650000Y-127625000D02*
X86650000Y-127025000D01*
X86650000Y-127625000D02*
X86650000Y-127025000D01*
X88050000Y-127525000D02*
X86750000Y-127525000D01*
X86650000Y-127625000D02*
X86650000Y-127025000D01*
X88150000Y-127025000D02*
X88150000Y-127625000D01*
X88150000Y-127125000D02*
X88150000Y-127425000D01*
X88150000Y-127125000D02*
X88150000Y-127425000D01*
X88150000Y-127125000D02*
X88150000Y-127425000D01*
X88150000Y-127025000D02*
X88150000Y-127625000D01*
X88150000Y-127025000D02*
X88150000Y-127625000D01*
X86750000Y-127225000D02*
X88050000Y-127225000D01*
X86750000Y-127225000D02*
X88050000Y-127225000D01*
X88050000Y-127325000D02*
X86850000Y-127325000D01*
X88050000Y-127325000D02*
X86850000Y-127325000D01*
X88050000Y-127325000D02*
X86850000Y-127325000D01*
X88050000Y-127225000D02*
X88050000Y-127325000D01*
X88050000Y-127225000D02*
X88050000Y-127325000D01*
X88050000Y-127225000D02*
X88050000Y-127325000D01*
X104250000Y-127025000D02*
X105750000Y-127025000D01*
X104350000Y-127125000D02*
X105750000Y-127125000D01*
X104350000Y-127125000D02*
X105750000Y-127125000D01*
X104250000Y-127025000D02*
X105750000Y-127025000D01*
X104250000Y-127025000D02*
X105750000Y-127025000D01*
X104350000Y-127125000D02*
X105750000Y-127125000D01*
X104350000Y-127525000D02*
X104350000Y-127125000D01*
X104350000Y-127425000D02*
X104350000Y-127225000D01*
X104350000Y-127425000D02*
X104350000Y-127225000D01*
X104350000Y-127525000D02*
X104350000Y-127125000D01*
X104350000Y-127525000D02*
X104350000Y-127125000D01*
X104350000Y-127425000D02*
X104350000Y-127225000D01*
X105750000Y-127625000D02*
X104250000Y-127625000D01*
X105750000Y-127625000D02*
X104250000Y-127625000D01*
X105750000Y-127425000D02*
X104350000Y-127425000D01*
X105750000Y-127425000D02*
X104350000Y-127425000D01*
X105750000Y-127625000D02*
X104250000Y-127625000D01*
X105750000Y-127425000D02*
X104350000Y-127425000D01*
X105650000Y-127525000D02*
X104350000Y-127525000D01*
X105650000Y-127525000D02*
X104350000Y-127525000D01*
X104350000Y-127225000D02*
X105650000Y-127225000D01*
X104250000Y-127625000D02*
X104250000Y-127025000D01*
X104250000Y-127625000D02*
X104250000Y-127025000D01*
X105650000Y-127525000D02*
X104350000Y-127525000D01*
X104250000Y-127625000D02*
X104250000Y-127025000D01*
X105750000Y-127025000D02*
X105750000Y-127625000D01*
X105750000Y-127125000D02*
X105750000Y-127425000D01*
X105750000Y-127125000D02*
X105750000Y-127425000D01*
X105750000Y-127125000D02*
X105750000Y-127425000D01*
X105750000Y-127025000D02*
X105750000Y-127625000D01*
X105750000Y-127025000D02*
X105750000Y-127625000D01*
X104350000Y-127225000D02*
X105650000Y-127225000D01*
X104350000Y-127225000D02*
X105650000Y-127225000D01*
X105650000Y-127325000D02*
X104450000Y-127325000D01*
X105650000Y-127325000D02*
X104450000Y-127325000D01*
X105650000Y-127325000D02*
X104450000Y-127325000D01*
X105650000Y-127225000D02*
X105650000Y-127325000D01*
X105650000Y-127225000D02*
X105650000Y-127325000D01*
X105650000Y-127225000D02*
X105650000Y-127325000D01*
X104250000Y-128025000D02*
X105750000Y-128025000D01*
X104350000Y-128125000D02*
X105750000Y-128125000D01*
X104350000Y-128125000D02*
X105750000Y-128125000D01*
X104250000Y-128025000D02*
X105750000Y-128025000D01*
X104250000Y-128025000D02*
X105750000Y-128025000D01*
X104350000Y-128125000D02*
X105750000Y-128125000D01*
X104350000Y-128525000D02*
X104350000Y-128125000D01*
X104350000Y-128425000D02*
X104350000Y-128225000D01*
X104350000Y-128425000D02*
X104350000Y-128225000D01*
X104350000Y-128525000D02*
X104350000Y-128125000D01*
X104350000Y-128525000D02*
X104350000Y-128125000D01*
X104350000Y-128425000D02*
X104350000Y-128225000D01*
X105750000Y-128625000D02*
X104250000Y-128625000D01*
X105750000Y-128625000D02*
X104250000Y-128625000D01*
X105750000Y-128425000D02*
X104350000Y-128425000D01*
X105750000Y-128425000D02*
X104350000Y-128425000D01*
X105750000Y-128625000D02*
X104250000Y-128625000D01*
X105750000Y-128425000D02*
X104350000Y-128425000D01*
X105650000Y-128525000D02*
X104350000Y-128525000D01*
X105650000Y-128525000D02*
X104350000Y-128525000D01*
X104350000Y-128225000D02*
X105650000Y-128225000D01*
X104250000Y-128625000D02*
X104250000Y-128025000D01*
X104250000Y-128625000D02*
X104250000Y-128025000D01*
X105650000Y-128525000D02*
X104350000Y-128525000D01*
X104250000Y-128625000D02*
X104250000Y-128025000D01*
X105750000Y-128025000D02*
X105750000Y-128625000D01*
X105750000Y-128125000D02*
X105750000Y-128425000D01*
X105750000Y-128125000D02*
X105750000Y-128425000D01*
X105750000Y-128125000D02*
X105750000Y-128425000D01*
X105750000Y-128025000D02*
X105750000Y-128625000D01*
X105750000Y-128025000D02*
X105750000Y-128625000D01*
X104350000Y-128225000D02*
X105650000Y-128225000D01*
X104350000Y-128225000D02*
X105650000Y-128225000D01*
X105650000Y-128325000D02*
X104450000Y-128325000D01*
X105650000Y-128325000D02*
X104450000Y-128325000D01*
X105650000Y-128325000D02*
X104450000Y-128325000D01*
X105650000Y-128225000D02*
X105650000Y-128325000D01*
X105650000Y-128225000D02*
X105650000Y-128325000D01*
X105650000Y-128225000D02*
X105650000Y-128325000D01*
X104250000Y-128925000D02*
X105750000Y-128925000D01*
X104350000Y-129025000D02*
X105750000Y-129025000D01*
X104350000Y-129025000D02*
X105750000Y-129025000D01*
X104250000Y-128925000D02*
X105750000Y-128925000D01*
X104250000Y-128925000D02*
X105750000Y-128925000D01*
X104350000Y-129025000D02*
X105750000Y-129025000D01*
X104350000Y-129425000D02*
X104350000Y-129025000D01*
X104350000Y-129325000D02*
X104350000Y-129125000D01*
X104350000Y-129325000D02*
X104350000Y-129125000D01*
X104350000Y-129425000D02*
X104350000Y-129025000D01*
X104350000Y-129425000D02*
X104350000Y-129025000D01*
X104350000Y-129325000D02*
X104350000Y-129125000D01*
X105750000Y-129525000D02*
X104250000Y-129525000D01*
X105750000Y-129525000D02*
X104250000Y-129525000D01*
X105750000Y-129325000D02*
X104350000Y-129325000D01*
X105750000Y-129325000D02*
X104350000Y-129325000D01*
X105750000Y-129525000D02*
X104250000Y-129525000D01*
X105750000Y-129325000D02*
X104350000Y-129325000D01*
X105650000Y-129425000D02*
X104350000Y-129425000D01*
X105650000Y-129425000D02*
X104350000Y-129425000D01*
X104350000Y-129125000D02*
X105650000Y-129125000D01*
X104250000Y-129525000D02*
X104250000Y-128925000D01*
X104250000Y-129525000D02*
X104250000Y-128925000D01*
X105650000Y-129425000D02*
X104350000Y-129425000D01*
X104250000Y-129525000D02*
X104250000Y-128925000D01*
X105750000Y-128925000D02*
X105750000Y-129525000D01*
X105750000Y-129025000D02*
X105750000Y-129325000D01*
X105750000Y-129025000D02*
X105750000Y-129325000D01*
X105750000Y-129025000D02*
X105750000Y-129325000D01*
X105750000Y-128925000D02*
X105750000Y-129525000D01*
X105750000Y-128925000D02*
X105750000Y-129525000D01*
X104350000Y-129125000D02*
X105650000Y-129125000D01*
X104350000Y-129125000D02*
X105650000Y-129125000D01*
X105650000Y-129225000D02*
X104450000Y-129225000D01*
X105650000Y-129225000D02*
X104450000Y-129225000D01*
X105650000Y-129225000D02*
X104450000Y-129225000D01*
X105650000Y-129125000D02*
X105650000Y-129225000D01*
X105650000Y-129125000D02*
X105650000Y-129225000D01*
X105650000Y-129125000D02*
X105650000Y-129225000D01*
X205050000Y-5225000D02*
X203850000Y-5225000D01*
X205050000Y-5125000D02*
X205050000Y-5225000D01*
X203750000Y-5125000D02*
X205050000Y-5125000D01*
X203750000Y-5325000D02*
X203750000Y-5125000D01*
X205150000Y-5325000D02*
X203750000Y-5325000D01*
X205150000Y-5025000D02*
X205150000Y-5325000D01*
X203750000Y-5025000D02*
X205150000Y-5025000D01*
X203750000Y-5425000D02*
X203750000Y-5025000D01*
X205050000Y-5425000D02*
X203750000Y-5425000D01*
X205150000Y-4925000D02*
X205150000Y-5525000D01*
X203650000Y-4925000D02*
X205150000Y-4925000D01*
X203650000Y-5525000D02*
X203650000Y-4925000D01*
X205150000Y-5525000D02*
X203650000Y-5525000D01*
X205050000Y-5225000D02*
X203850000Y-5225000D01*
X205050000Y-5125000D02*
X205050000Y-5225000D01*
X203750000Y-5125000D02*
X205050000Y-5125000D01*
X203750000Y-5325000D02*
X203750000Y-5125000D01*
X203750000Y-5425000D02*
X203750000Y-5025000D01*
X205050000Y-5425000D02*
X203750000Y-5425000D01*
X203650000Y-5525000D02*
X203650000Y-4925000D01*
X205150000Y-5525000D02*
X203650000Y-5525000D01*
X203650000Y-4925000D02*
X205150000Y-4925000D01*
X205150000Y-4925000D02*
X205150000Y-5525000D01*
X203750000Y-5025000D02*
X205150000Y-5025000D01*
X205150000Y-5325000D02*
X203750000Y-5325000D01*
X205150000Y-5025000D02*
X205150000Y-5325000D01*
X205050000Y-5225000D02*
X203850000Y-5225000D01*
X205050000Y-5125000D02*
X205050000Y-5225000D01*
X203750000Y-5125000D02*
X205050000Y-5125000D01*
X203750000Y-5325000D02*
X203750000Y-5125000D01*
X203750000Y-5425000D02*
X203750000Y-5025000D01*
X205050000Y-5425000D02*
X203750000Y-5425000D01*
X203650000Y-5525000D02*
X203650000Y-4925000D01*
X205150000Y-5525000D02*
X203650000Y-5525000D01*
X203650000Y-4925000D02*
X205150000Y-4925000D01*
X205150000Y-4925000D02*
X205150000Y-5525000D01*
X203750000Y-5025000D02*
X205150000Y-5025000D01*
X205150000Y-5325000D02*
X203750000Y-5325000D01*
X205150000Y-5025000D02*
X205150000Y-5325000D01*
X203650000Y-3925000D02*
X205150000Y-3925000D01*
X203750000Y-4025000D02*
X205150000Y-4025000D01*
X203750000Y-4025000D02*
X205150000Y-4025000D01*
X203650000Y-3925000D02*
X205150000Y-3925000D01*
X203650000Y-3925000D02*
X205150000Y-3925000D01*
X203750000Y-4025000D02*
X205150000Y-4025000D01*
X203750000Y-4425000D02*
X203750000Y-4025000D01*
X203750000Y-4325000D02*
X203750000Y-4125000D01*
X203750000Y-4325000D02*
X203750000Y-4125000D01*
X203750000Y-4425000D02*
X203750000Y-4025000D01*
X203750000Y-4425000D02*
X203750000Y-4025000D01*
X203750000Y-4325000D02*
X203750000Y-4125000D01*
X205150000Y-4525000D02*
X203650000Y-4525000D01*
X205150000Y-4525000D02*
X203650000Y-4525000D01*
X205150000Y-4325000D02*
X203750000Y-4325000D01*
X205150000Y-4325000D02*
X203750000Y-4325000D01*
X205150000Y-4525000D02*
X203650000Y-4525000D01*
X205150000Y-4325000D02*
X203750000Y-4325000D01*
X205050000Y-4425000D02*
X203750000Y-4425000D01*
X205050000Y-4425000D02*
X203750000Y-4425000D01*
X203750000Y-4125000D02*
X205050000Y-4125000D01*
X203650000Y-4525000D02*
X203650000Y-3925000D01*
X203650000Y-4525000D02*
X203650000Y-3925000D01*
X205050000Y-4425000D02*
X203750000Y-4425000D01*
X203650000Y-4525000D02*
X203650000Y-3925000D01*
X205150000Y-3925000D02*
X205150000Y-4525000D01*
X205150000Y-4025000D02*
X205150000Y-4325000D01*
X205150000Y-4025000D02*
X205150000Y-4325000D01*
X205150000Y-4025000D02*
X205150000Y-4325000D01*
X205150000Y-3925000D02*
X205150000Y-4525000D01*
X205150000Y-3925000D02*
X205150000Y-4525000D01*
X203750000Y-4125000D02*
X205050000Y-4125000D01*
X203750000Y-4125000D02*
X205050000Y-4125000D01*
X205050000Y-4225000D02*
X203850000Y-4225000D01*
X205050000Y-4225000D02*
X203850000Y-4225000D01*
X205050000Y-4225000D02*
X203850000Y-4225000D01*
X205050000Y-4125000D02*
X205050000Y-4225000D01*
X205050000Y-4125000D02*
X205050000Y-4225000D01*
X205050000Y-4125000D02*
X205050000Y-4225000D01*
X203650000Y-3025000D02*
X205150000Y-3025000D01*
X203750000Y-3125000D02*
X205150000Y-3125000D01*
X203750000Y-3125000D02*
X205150000Y-3125000D01*
X203650000Y-3025000D02*
X205150000Y-3025000D01*
X203650000Y-3025000D02*
X205150000Y-3025000D01*
X203750000Y-3125000D02*
X205150000Y-3125000D01*
X203750000Y-3525000D02*
X203750000Y-3125000D01*
X203750000Y-3425000D02*
X203750000Y-3225000D01*
X203750000Y-3425000D02*
X203750000Y-3225000D01*
X203750000Y-3525000D02*
X203750000Y-3125000D01*
X203750000Y-3525000D02*
X203750000Y-3125000D01*
X203750000Y-3425000D02*
X203750000Y-3225000D01*
X205150000Y-3625000D02*
X203650000Y-3625000D01*
X205150000Y-3625000D02*
X203650000Y-3625000D01*
X205150000Y-3425000D02*
X203750000Y-3425000D01*
X205150000Y-3425000D02*
X203750000Y-3425000D01*
X205150000Y-3625000D02*
X203650000Y-3625000D01*
X205150000Y-3425000D02*
X203750000Y-3425000D01*
X205050000Y-3525000D02*
X203750000Y-3525000D01*
X205050000Y-3525000D02*
X203750000Y-3525000D01*
X203750000Y-3225000D02*
X205050000Y-3225000D01*
X203650000Y-3625000D02*
X203650000Y-3025000D01*
X203650000Y-3625000D02*
X203650000Y-3025000D01*
X205050000Y-3525000D02*
X203750000Y-3525000D01*
X203650000Y-3625000D02*
X203650000Y-3025000D01*
X205150000Y-3025000D02*
X205150000Y-3625000D01*
X205150000Y-3125000D02*
X205150000Y-3425000D01*
X205150000Y-3125000D02*
X205150000Y-3425000D01*
X205150000Y-3125000D02*
X205150000Y-3425000D01*
X205150000Y-3025000D02*
X205150000Y-3625000D01*
X205150000Y-3025000D02*
X205150000Y-3625000D01*
X203750000Y-3225000D02*
X205050000Y-3225000D01*
X203750000Y-3225000D02*
X205050000Y-3225000D01*
X205050000Y-3325000D02*
X203850000Y-3325000D01*
X205050000Y-3325000D02*
X203850000Y-3325000D01*
X205050000Y-3325000D02*
X203850000Y-3325000D01*
X205050000Y-3225000D02*
X205050000Y-3325000D01*
X205050000Y-3225000D02*
X205050000Y-3325000D01*
X205050000Y-3225000D02*
X205050000Y-3325000D01*
X221250000Y-3025000D02*
X222750000Y-3025000D01*
X221350000Y-3125000D02*
X222750000Y-3125000D01*
X221350000Y-3125000D02*
X222750000Y-3125000D01*
X221250000Y-3025000D02*
X222750000Y-3025000D01*
X221250000Y-3025000D02*
X222750000Y-3025000D01*
X221350000Y-3125000D02*
X222750000Y-3125000D01*
X221350000Y-3525000D02*
X221350000Y-3125000D01*
X221350000Y-3425000D02*
X221350000Y-3225000D01*
X221350000Y-3425000D02*
X221350000Y-3225000D01*
X221350000Y-3525000D02*
X221350000Y-3125000D01*
X221350000Y-3525000D02*
X221350000Y-3125000D01*
X221350000Y-3425000D02*
X221350000Y-3225000D01*
X222750000Y-3625000D02*
X221250000Y-3625000D01*
X222750000Y-3625000D02*
X221250000Y-3625000D01*
X222750000Y-3425000D02*
X221350000Y-3425000D01*
X222750000Y-3425000D02*
X221350000Y-3425000D01*
X222750000Y-3625000D02*
X221250000Y-3625000D01*
X222750000Y-3425000D02*
X221350000Y-3425000D01*
X222650000Y-3525000D02*
X221350000Y-3525000D01*
X222650000Y-3525000D02*
X221350000Y-3525000D01*
X221350000Y-3225000D02*
X222650000Y-3225000D01*
X221250000Y-3625000D02*
X221250000Y-3025000D01*
X221250000Y-3625000D02*
X221250000Y-3025000D01*
X222650000Y-3525000D02*
X221350000Y-3525000D01*
X221250000Y-3625000D02*
X221250000Y-3025000D01*
X222750000Y-3025000D02*
X222750000Y-3625000D01*
X222750000Y-3125000D02*
X222750000Y-3425000D01*
X222750000Y-3125000D02*
X222750000Y-3425000D01*
X222750000Y-3125000D02*
X222750000Y-3425000D01*
X222750000Y-3025000D02*
X222750000Y-3625000D01*
X222750000Y-3025000D02*
X222750000Y-3625000D01*
X221350000Y-3225000D02*
X222650000Y-3225000D01*
X221350000Y-3225000D02*
X222650000Y-3225000D01*
X222650000Y-3325000D02*
X221450000Y-3325000D01*
X222650000Y-3325000D02*
X221450000Y-3325000D01*
X222650000Y-3325000D02*
X221450000Y-3325000D01*
X222650000Y-3225000D02*
X222650000Y-3325000D01*
X222650000Y-3225000D02*
X222650000Y-3325000D01*
X222650000Y-3225000D02*
X222650000Y-3325000D01*
X221250000Y-4025000D02*
X222750000Y-4025000D01*
X221350000Y-4125000D02*
X222750000Y-4125000D01*
X221350000Y-4125000D02*
X222750000Y-4125000D01*
X221250000Y-4025000D02*
X222750000Y-4025000D01*
X221250000Y-4025000D02*
X222750000Y-4025000D01*
X221350000Y-4125000D02*
X222750000Y-4125000D01*
X221350000Y-4525000D02*
X221350000Y-4125000D01*
X221350000Y-4425000D02*
X221350000Y-4225000D01*
X221350000Y-4425000D02*
X221350000Y-4225000D01*
X221350000Y-4525000D02*
X221350000Y-4125000D01*
X221350000Y-4525000D02*
X221350000Y-4125000D01*
X221350000Y-4425000D02*
X221350000Y-4225000D01*
X222750000Y-4625000D02*
X221250000Y-4625000D01*
X222750000Y-4625000D02*
X221250000Y-4625000D01*
X222750000Y-4425000D02*
X221350000Y-4425000D01*
X222750000Y-4425000D02*
X221350000Y-4425000D01*
X222750000Y-4625000D02*
X221250000Y-4625000D01*
X222750000Y-4425000D02*
X221350000Y-4425000D01*
X222650000Y-4525000D02*
X221350000Y-4525000D01*
X222650000Y-4525000D02*
X221350000Y-4525000D01*
X221350000Y-4225000D02*
X222650000Y-4225000D01*
X221250000Y-4625000D02*
X221250000Y-4025000D01*
X221250000Y-4625000D02*
X221250000Y-4025000D01*
X222650000Y-4525000D02*
X221350000Y-4525000D01*
X221250000Y-4625000D02*
X221250000Y-4025000D01*
X222750000Y-4025000D02*
X222750000Y-4625000D01*
X222750000Y-4125000D02*
X222750000Y-4425000D01*
X222750000Y-4125000D02*
X222750000Y-4425000D01*
X222750000Y-4125000D02*
X222750000Y-4425000D01*
X222750000Y-4025000D02*
X222750000Y-4625000D01*
X222750000Y-4025000D02*
X222750000Y-4625000D01*
X221350000Y-4225000D02*
X222650000Y-4225000D01*
X221350000Y-4225000D02*
X222650000Y-4225000D01*
X222650000Y-4325000D02*
X221450000Y-4325000D01*
X222650000Y-4325000D02*
X221450000Y-4325000D01*
X222650000Y-4325000D02*
X221450000Y-4325000D01*
X222650000Y-4225000D02*
X222650000Y-4325000D01*
X222650000Y-4225000D02*
X222650000Y-4325000D01*
X222650000Y-4225000D02*
X222650000Y-4325000D01*
X221250000Y-4925000D02*
X222750000Y-4925000D01*
X221350000Y-5025000D02*
X222750000Y-5025000D01*
X221350000Y-5025000D02*
X222750000Y-5025000D01*
X221250000Y-4925000D02*
X222750000Y-4925000D01*
X221250000Y-4925000D02*
X222750000Y-4925000D01*
X221350000Y-5025000D02*
X222750000Y-5025000D01*
X221350000Y-5425000D02*
X221350000Y-5025000D01*
X221350000Y-5325000D02*
X221350000Y-5125000D01*
X221350000Y-5325000D02*
X221350000Y-5125000D01*
X221350000Y-5425000D02*
X221350000Y-5025000D01*
X221350000Y-5425000D02*
X221350000Y-5025000D01*
X221350000Y-5325000D02*
X221350000Y-5125000D01*
X222750000Y-5525000D02*
X221250000Y-5525000D01*
X222750000Y-5525000D02*
X221250000Y-5525000D01*
X222750000Y-5325000D02*
X221350000Y-5325000D01*
X222750000Y-5325000D02*
X221350000Y-5325000D01*
X222750000Y-5525000D02*
X221250000Y-5525000D01*
X222750000Y-5325000D02*
X221350000Y-5325000D01*
X222650000Y-5425000D02*
X221350000Y-5425000D01*
X222650000Y-5425000D02*
X221350000Y-5425000D01*
X221350000Y-5125000D02*
X222650000Y-5125000D01*
X221250000Y-5525000D02*
X221250000Y-4925000D01*
X221250000Y-5525000D02*
X221250000Y-4925000D01*
X222650000Y-5425000D02*
X221350000Y-5425000D01*
X221250000Y-5525000D02*
X221250000Y-4925000D01*
X222750000Y-4925000D02*
X222750000Y-5525000D01*
X222750000Y-5025000D02*
X222750000Y-5325000D01*
X222750000Y-5025000D02*
X222750000Y-5325000D01*
X222750000Y-5025000D02*
X222750000Y-5325000D01*
X222750000Y-4925000D02*
X222750000Y-5525000D01*
X222750000Y-4925000D02*
X222750000Y-5525000D01*
X221350000Y-5125000D02*
X222650000Y-5125000D01*
X221350000Y-5125000D02*
X222650000Y-5125000D01*
X222650000Y-5225000D02*
X221450000Y-5225000D01*
X222650000Y-5225000D02*
X221450000Y-5225000D01*
X222650000Y-5225000D02*
X221450000Y-5225000D01*
X222650000Y-5125000D02*
X222650000Y-5225000D01*
X222650000Y-5125000D02*
X222650000Y-5225000D01*
X222650000Y-5125000D02*
X222650000Y-5225000D01*
X88050000Y-5225000D02*
X86850000Y-5225000D01*
X88050000Y-5125000D02*
X88050000Y-5225000D01*
X86750000Y-5125000D02*
X88050000Y-5125000D01*
X86750000Y-5325000D02*
X86750000Y-5125000D01*
X88150000Y-5325000D02*
X86750000Y-5325000D01*
X88150000Y-5025000D02*
X88150000Y-5325000D01*
X86750000Y-5025000D02*
X88150000Y-5025000D01*
X86750000Y-5425000D02*
X86750000Y-5025000D01*
X88050000Y-5425000D02*
X86750000Y-5425000D01*
X88150000Y-4925000D02*
X88150000Y-5525000D01*
X86650000Y-4925000D02*
X88150000Y-4925000D01*
X86650000Y-5525000D02*
X86650000Y-4925000D01*
X88150000Y-5525000D02*
X86650000Y-5525000D01*
X88050000Y-5225000D02*
X86850000Y-5225000D01*
X88050000Y-5125000D02*
X88050000Y-5225000D01*
X86750000Y-5125000D02*
X88050000Y-5125000D01*
X86750000Y-5325000D02*
X86750000Y-5125000D01*
X86750000Y-5425000D02*
X86750000Y-5025000D01*
X88050000Y-5425000D02*
X86750000Y-5425000D01*
X86650000Y-5525000D02*
X86650000Y-4925000D01*
X88150000Y-5525000D02*
X86650000Y-5525000D01*
X86650000Y-4925000D02*
X88150000Y-4925000D01*
X88150000Y-4925000D02*
X88150000Y-5525000D01*
X86750000Y-5025000D02*
X88150000Y-5025000D01*
X88150000Y-5325000D02*
X86750000Y-5325000D01*
X88150000Y-5025000D02*
X88150000Y-5325000D01*
X88050000Y-5225000D02*
X86850000Y-5225000D01*
X88050000Y-5125000D02*
X88050000Y-5225000D01*
X86750000Y-5125000D02*
X88050000Y-5125000D01*
X86750000Y-5325000D02*
X86750000Y-5125000D01*
X86750000Y-5425000D02*
X86750000Y-5025000D01*
X88050000Y-5425000D02*
X86750000Y-5425000D01*
X86650000Y-5525000D02*
X86650000Y-4925000D01*
X88150000Y-5525000D02*
X86650000Y-5525000D01*
X86650000Y-4925000D02*
X88150000Y-4925000D01*
X88150000Y-4925000D02*
X88150000Y-5525000D01*
X86750000Y-5025000D02*
X88150000Y-5025000D01*
X88150000Y-5325000D02*
X86750000Y-5325000D01*
X88150000Y-5025000D02*
X88150000Y-5325000D01*
X86650000Y-3925000D02*
X88150000Y-3925000D01*
X86750000Y-4025000D02*
X88150000Y-4025000D01*
X86750000Y-4025000D02*
X88150000Y-4025000D01*
X86650000Y-3925000D02*
X88150000Y-3925000D01*
X86650000Y-3925000D02*
X88150000Y-3925000D01*
X86750000Y-4025000D02*
X88150000Y-4025000D01*
X86750000Y-4425000D02*
X86750000Y-4025000D01*
X86750000Y-4325000D02*
X86750000Y-4125000D01*
X86750000Y-4325000D02*
X86750000Y-4125000D01*
X86750000Y-4425000D02*
X86750000Y-4025000D01*
X86750000Y-4425000D02*
X86750000Y-4025000D01*
X86750000Y-4325000D02*
X86750000Y-4125000D01*
X88150000Y-4525000D02*
X86650000Y-4525000D01*
X88150000Y-4525000D02*
X86650000Y-4525000D01*
X88150000Y-4325000D02*
X86750000Y-4325000D01*
X88150000Y-4325000D02*
X86750000Y-4325000D01*
X88150000Y-4525000D02*
X86650000Y-4525000D01*
X88150000Y-4325000D02*
X86750000Y-4325000D01*
X88050000Y-4425000D02*
X86750000Y-4425000D01*
X88050000Y-4425000D02*
X86750000Y-4425000D01*
X86750000Y-4125000D02*
X88050000Y-4125000D01*
X86650000Y-4525000D02*
X86650000Y-3925000D01*
X86650000Y-4525000D02*
X86650000Y-3925000D01*
X88050000Y-4425000D02*
X86750000Y-4425000D01*
X86650000Y-4525000D02*
X86650000Y-3925000D01*
X88150000Y-3925000D02*
X88150000Y-4525000D01*
X88150000Y-4025000D02*
X88150000Y-4325000D01*
X88150000Y-4025000D02*
X88150000Y-4325000D01*
X88150000Y-4025000D02*
X88150000Y-4325000D01*
X88150000Y-3925000D02*
X88150000Y-4525000D01*
X88150000Y-3925000D02*
X88150000Y-4525000D01*
X86750000Y-4125000D02*
X88050000Y-4125000D01*
X86750000Y-4125000D02*
X88050000Y-4125000D01*
X88050000Y-4225000D02*
X86850000Y-4225000D01*
X88050000Y-4225000D02*
X86850000Y-4225000D01*
X88050000Y-4225000D02*
X86850000Y-4225000D01*
X88050000Y-4125000D02*
X88050000Y-4225000D01*
X88050000Y-4125000D02*
X88050000Y-4225000D01*
X88050000Y-4125000D02*
X88050000Y-4225000D01*
X86650000Y-3025000D02*
X88150000Y-3025000D01*
X86750000Y-3125000D02*
X88150000Y-3125000D01*
X86750000Y-3125000D02*
X88150000Y-3125000D01*
X86650000Y-3025000D02*
X88150000Y-3025000D01*
X86650000Y-3025000D02*
X88150000Y-3025000D01*
X86750000Y-3125000D02*
X88150000Y-3125000D01*
X86750000Y-3525000D02*
X86750000Y-3125000D01*
X86750000Y-3425000D02*
X86750000Y-3225000D01*
X86750000Y-3425000D02*
X86750000Y-3225000D01*
X86750000Y-3525000D02*
X86750000Y-3125000D01*
X86750000Y-3525000D02*
X86750000Y-3125000D01*
X86750000Y-3425000D02*
X86750000Y-3225000D01*
X88150000Y-3625000D02*
X86650000Y-3625000D01*
X88150000Y-3625000D02*
X86650000Y-3625000D01*
X88150000Y-3425000D02*
X86750000Y-3425000D01*
X88150000Y-3425000D02*
X86750000Y-3425000D01*
X88150000Y-3625000D02*
X86650000Y-3625000D01*
X88150000Y-3425000D02*
X86750000Y-3425000D01*
X88050000Y-3525000D02*
X86750000Y-3525000D01*
X88050000Y-3525000D02*
X86750000Y-3525000D01*
X86750000Y-3225000D02*
X88050000Y-3225000D01*
X86650000Y-3625000D02*
X86650000Y-3025000D01*
X86650000Y-3625000D02*
X86650000Y-3025000D01*
X88050000Y-3525000D02*
X86750000Y-3525000D01*
X86650000Y-3625000D02*
X86650000Y-3025000D01*
X88150000Y-3025000D02*
X88150000Y-3625000D01*
X88150000Y-3125000D02*
X88150000Y-3425000D01*
X88150000Y-3125000D02*
X88150000Y-3425000D01*
X88150000Y-3125000D02*
X88150000Y-3425000D01*
X88150000Y-3025000D02*
X88150000Y-3625000D01*
X88150000Y-3025000D02*
X88150000Y-3625000D01*
X86750000Y-3225000D02*
X88050000Y-3225000D01*
X86750000Y-3225000D02*
X88050000Y-3225000D01*
X88050000Y-3325000D02*
X86850000Y-3325000D01*
X88050000Y-3325000D02*
X86850000Y-3325000D01*
X88050000Y-3325000D02*
X86850000Y-3325000D01*
X88050000Y-3225000D02*
X88050000Y-3325000D01*
X88050000Y-3225000D02*
X88050000Y-3325000D01*
X88050000Y-3225000D02*
X88050000Y-3325000D01*
X104250000Y-3025000D02*
X105750000Y-3025000D01*
X104350000Y-3125000D02*
X105750000Y-3125000D01*
X104350000Y-3125000D02*
X105750000Y-3125000D01*
X104250000Y-3025000D02*
X105750000Y-3025000D01*
X104250000Y-3025000D02*
X105750000Y-3025000D01*
X104350000Y-3125000D02*
X105750000Y-3125000D01*
X104350000Y-3525000D02*
X104350000Y-3125000D01*
X104350000Y-3425000D02*
X104350000Y-3225000D01*
X104350000Y-3425000D02*
X104350000Y-3225000D01*
X104350000Y-3525000D02*
X104350000Y-3125000D01*
X104350000Y-3525000D02*
X104350000Y-3125000D01*
X104350000Y-3425000D02*
X104350000Y-3225000D01*
X105750000Y-3625000D02*
X104250000Y-3625000D01*
X105750000Y-3625000D02*
X104250000Y-3625000D01*
X105750000Y-3425000D02*
X104350000Y-3425000D01*
X105750000Y-3425000D02*
X104350000Y-3425000D01*
X105750000Y-3625000D02*
X104250000Y-3625000D01*
X105750000Y-3425000D02*
X104350000Y-3425000D01*
X105650000Y-3525000D02*
X104350000Y-3525000D01*
X105650000Y-3525000D02*
X104350000Y-3525000D01*
X104350000Y-3225000D02*
X105650000Y-3225000D01*
X104250000Y-3625000D02*
X104250000Y-3025000D01*
X104250000Y-3625000D02*
X104250000Y-3025000D01*
X105650000Y-3525000D02*
X104350000Y-3525000D01*
X104250000Y-3625000D02*
X104250000Y-3025000D01*
X105750000Y-3025000D02*
X105750000Y-3625000D01*
X105750000Y-3125000D02*
X105750000Y-3425000D01*
X105750000Y-3125000D02*
X105750000Y-3425000D01*
X105750000Y-3125000D02*
X105750000Y-3425000D01*
X105750000Y-3025000D02*
X105750000Y-3625000D01*
X105750000Y-3025000D02*
X105750000Y-3625000D01*
X104350000Y-3225000D02*
X105650000Y-3225000D01*
X104350000Y-3225000D02*
X105650000Y-3225000D01*
X105650000Y-3325000D02*
X104450000Y-3325000D01*
X105650000Y-3325000D02*
X104450000Y-3325000D01*
X105650000Y-3325000D02*
X104450000Y-3325000D01*
X105650000Y-3225000D02*
X105650000Y-3325000D01*
X105650000Y-3225000D02*
X105650000Y-3325000D01*
X105650000Y-3225000D02*
X105650000Y-3325000D01*
X104250000Y-4025000D02*
X105750000Y-4025000D01*
X104350000Y-4125000D02*
X105750000Y-4125000D01*
X104350000Y-4125000D02*
X105750000Y-4125000D01*
X104250000Y-4025000D02*
X105750000Y-4025000D01*
X104250000Y-4025000D02*
X105750000Y-4025000D01*
X104350000Y-4125000D02*
X105750000Y-4125000D01*
X104350000Y-4525000D02*
X104350000Y-4125000D01*
X104350000Y-4425000D02*
X104350000Y-4225000D01*
X104350000Y-4425000D02*
X104350000Y-4225000D01*
X104350000Y-4525000D02*
X104350000Y-4125000D01*
X104350000Y-4525000D02*
X104350000Y-4125000D01*
X104350000Y-4425000D02*
X104350000Y-4225000D01*
X105750000Y-4625000D02*
X104250000Y-4625000D01*
X105750000Y-4625000D02*
X104250000Y-4625000D01*
X105750000Y-4425000D02*
X104350000Y-4425000D01*
X105750000Y-4425000D02*
X104350000Y-4425000D01*
X105750000Y-4625000D02*
X104250000Y-4625000D01*
X105750000Y-4425000D02*
X104350000Y-4425000D01*
X105650000Y-4525000D02*
X104350000Y-4525000D01*
X105650000Y-4525000D02*
X104350000Y-4525000D01*
X104350000Y-4225000D02*
X105650000Y-4225000D01*
X104250000Y-4625000D02*
X104250000Y-4025000D01*
X104250000Y-4625000D02*
X104250000Y-4025000D01*
X105650000Y-4525000D02*
X104350000Y-4525000D01*
X104250000Y-4625000D02*
X104250000Y-4025000D01*
X105750000Y-4025000D02*
X105750000Y-4625000D01*
X105750000Y-4125000D02*
X105750000Y-4425000D01*
X105750000Y-4125000D02*
X105750000Y-4425000D01*
X105750000Y-4125000D02*
X105750000Y-4425000D01*
X105750000Y-4025000D02*
X105750000Y-4625000D01*
X105750000Y-4025000D02*
X105750000Y-4625000D01*
X104350000Y-4225000D02*
X105650000Y-4225000D01*
X104350000Y-4225000D02*
X105650000Y-4225000D01*
X105650000Y-4325000D02*
X104450000Y-4325000D01*
X105650000Y-4325000D02*
X104450000Y-4325000D01*
X105650000Y-4325000D02*
X104450000Y-4325000D01*
X105650000Y-4225000D02*
X105650000Y-4325000D01*
X105650000Y-4225000D02*
X105650000Y-4325000D01*
X105650000Y-4225000D02*
X105650000Y-4325000D01*
X104250000Y-4925000D02*
X105750000Y-4925000D01*
X104350000Y-5025000D02*
X105750000Y-5025000D01*
X104350000Y-5025000D02*
X105750000Y-5025000D01*
X104250000Y-4925000D02*
X105750000Y-4925000D01*
X104250000Y-4925000D02*
X105750000Y-4925000D01*
X104350000Y-5025000D02*
X105750000Y-5025000D01*
X104350000Y-5425000D02*
X104350000Y-5025000D01*
X104350000Y-5325000D02*
X104350000Y-5125000D01*
X104350000Y-5325000D02*
X104350000Y-5125000D01*
X104350000Y-5425000D02*
X104350000Y-5025000D01*
X104350000Y-5425000D02*
X104350000Y-5025000D01*
X104350000Y-5325000D02*
X104350000Y-5125000D01*
X105750000Y-5525000D02*
X104250000Y-5525000D01*
X105750000Y-5525000D02*
X104250000Y-5525000D01*
X105750000Y-5325000D02*
X104350000Y-5325000D01*
X105750000Y-5325000D02*
X104350000Y-5325000D01*
X105750000Y-5525000D02*
X104250000Y-5525000D01*
X105750000Y-5325000D02*
X104350000Y-5325000D01*
X105650000Y-5425000D02*
X104350000Y-5425000D01*
X105650000Y-5425000D02*
X104350000Y-5425000D01*
X104350000Y-5125000D02*
X105650000Y-5125000D01*
X104250000Y-5525000D02*
X104250000Y-4925000D01*
X104250000Y-5525000D02*
X104250000Y-4925000D01*
X105650000Y-5425000D02*
X104350000Y-5425000D01*
X104250000Y-5525000D02*
X104250000Y-4925000D01*
X105750000Y-4925000D02*
X105750000Y-5525000D01*
X105750000Y-5025000D02*
X105750000Y-5325000D01*
X105750000Y-5025000D02*
X105750000Y-5325000D01*
X105750000Y-5025000D02*
X105750000Y-5325000D01*
X105750000Y-4925000D02*
X105750000Y-5525000D01*
X105750000Y-4925000D02*
X105750000Y-5525000D01*
X104350000Y-5125000D02*
X105650000Y-5125000D01*
X104350000Y-5125000D02*
X105650000Y-5125000D01*
X105650000Y-5225000D02*
X104450000Y-5225000D01*
X105650000Y-5225000D02*
X104450000Y-5225000D01*
X105650000Y-5225000D02*
X104450000Y-5225000D01*
X105650000Y-5125000D02*
X105650000Y-5225000D01*
X105650000Y-5125000D02*
X105650000Y-5225000D01*
X105650000Y-5125000D02*
X105650000Y-5225000D01*
D11*
X206300000Y-89825000D03*
X206300000Y-88325000D03*
X89300000Y-89825000D03*
X89300000Y-88325000D03*
X206300000Y34175000D03*
X206300000Y35675000D03*
D12*
X174900000Y-131050000D03*
X175850000Y-131050000D03*
X176800000Y-131050000D03*
X176800000Y-128850000D03*
X174900000Y-128850000D03*
X57900000Y-131050000D03*
X58850000Y-131050000D03*
X59800000Y-131050000D03*
X59800000Y-128850000D03*
X57900000Y-128850000D03*
X174900000Y-7050000D03*
X175850000Y-7050000D03*
X176800000Y-7050000D03*
X176800000Y-4850000D03*
X174900000Y-4850000D03*
D13*
X172075000Y-131625000D03*
X172075000Y-130125000D03*
X55075000Y-131625000D03*
X55075000Y-130125000D03*
X172075000Y-7625000D03*
X172075000Y-6125000D03*
D14*
X170825000Y-124625000D03*
X172325000Y-124625000D03*
X53825000Y-124625000D03*
X55325000Y-124625000D03*
X170825000Y-625000D03*
X172325000Y-625000D03*
D13*
X172575000Y-126875000D03*
X172575000Y-128375000D03*
X55575000Y-126875000D03*
X55575000Y-128375000D03*
X172575000Y-2875000D03*
X172575000Y-4375000D03*
D14*
X224250000Y-146975000D03*
X222750000Y-146975000D03*
X107250000Y-146975000D03*
X105750000Y-146975000D03*
X224250000Y-22975000D03*
X222750000Y-22975000D03*
X225950000Y-144675000D03*
X224450000Y-144675000D03*
X108950000Y-144675000D03*
X107450000Y-144675000D03*
X225950000Y-20675000D03*
X224450000Y-20675000D03*
X173825000Y-124625000D03*
X175325000Y-124625000D03*
X56825000Y-124625000D03*
X58325000Y-124625000D03*
X173825000Y-625000D03*
X175325000Y-625000D03*
D13*
X218575000Y-135625000D03*
X218575000Y-134125000D03*
X101575000Y-135625000D03*
X101575000Y-134125000D03*
X218575000Y-11625000D03*
X218575000Y-10125000D03*
D14*
X199225000Y-107725000D03*
X200725000Y-107725000D03*
X82225000Y-107725000D03*
X83725000Y-107725000D03*
X199225000Y16275000D03*
X200725000Y16275000D03*
D13*
X216075000Y-135625000D03*
X216075000Y-134125000D03*
X99075000Y-135625000D03*
X99075000Y-134125000D03*
X216075000Y-11625000D03*
X216075000Y-10125000D03*
X174075000Y-136875000D03*
X174075000Y-135375000D03*
X57075000Y-136875000D03*
X57075000Y-135375000D03*
X174075000Y-12875000D03*
X174075000Y-11375000D03*
D14*
X176825000Y-126125000D03*
X178325000Y-126125000D03*
X59825000Y-126125000D03*
X61325000Y-126125000D03*
X176825000Y-2125000D03*
X178325000Y-2125000D03*
X233775000Y-135350000D03*
X235275000Y-135350000D03*
X116775000Y-135350000D03*
X118275000Y-135350000D03*
X233775000Y-11350000D03*
X235275000Y-11350000D03*
D13*
X201500000Y-127675000D03*
X201500000Y-129175000D03*
X84500000Y-127675000D03*
X84500000Y-129175000D03*
X201500000Y-3675000D03*
X201500000Y-5175000D03*
X201150000Y-140825000D03*
X201150000Y-139325000D03*
X84150000Y-140825000D03*
X84150000Y-139325000D03*
X201150000Y-16825000D03*
X201150000Y-15325000D03*
X198750000Y-140875000D03*
X198750000Y-139375000D03*
X81750000Y-140875000D03*
X81750000Y-139375000D03*
X198750000Y-16875000D03*
X198750000Y-15375000D03*
X203200000Y-140775000D03*
X203200000Y-139275000D03*
X86200000Y-140775000D03*
X86200000Y-139275000D03*
X203200000Y-16775000D03*
X203200000Y-15275000D03*
D11*
X203025000Y-107650000D03*
X203025000Y-106150000D03*
X86025000Y-107650000D03*
X86025000Y-106150000D03*
X203025000Y16350000D03*
X203025000Y17850000D03*
D15*
X198450000Y-99350000D03*
X199950000Y-99350000D03*
X81450000Y-99350000D03*
X82950000Y-99350000D03*
X198450000Y24650000D03*
X199950000Y24650000D03*
D11*
X189350000Y-130975000D03*
X189350000Y-129475000D03*
X72350000Y-130975000D03*
X72350000Y-129475000D03*
X189350000Y-6975000D03*
X189350000Y-5475000D03*
D15*
X212450000Y-172025000D03*
X210950000Y-172025000D03*
X95450000Y-172025000D03*
X93950000Y-172025000D03*
X212450000Y-48025000D03*
X210950000Y-48025000D03*
D11*
X204500000Y-91775000D03*
X204500000Y-90275000D03*
X87500000Y-91775000D03*
X87500000Y-90275000D03*
X204500000Y32225000D03*
X204500000Y33725000D03*
X187900000Y-130575000D03*
X187900000Y-129075000D03*
X70900000Y-130575000D03*
X70900000Y-129075000D03*
X187900000Y-6575000D03*
X187900000Y-5075000D03*
X202725000Y-122450000D03*
X202725000Y-123950000D03*
X85725000Y-122450000D03*
X85725000Y-123950000D03*
X202725000Y1550000D03*
X202725000Y50000D03*
D15*
X213100000Y-170425000D03*
X211600000Y-170425000D03*
X96100000Y-170425000D03*
X94600000Y-170425000D03*
X213100000Y-46425000D03*
X211600000Y-46425000D03*
D16*
X214910000Y-116625000D03*
X224090000Y-116625000D03*
X97910000Y-116625000D03*
X107090000Y-116625000D03*
X214910000Y7375000D03*
X224090000Y7375000D03*
D17*
X183900000Y-108615000D03*
X183900000Y-99435000D03*
X66900000Y-108615000D03*
X66900000Y-99435000D03*
X183900000Y15385000D03*
X183900000Y24565000D03*
D18*
X198080000Y-103875000D03*
X198080000Y-104825000D03*
X198080000Y-105775000D03*
X200700000Y-105775000D03*
X200700000Y-104825000D03*
X200700000Y-103875000D03*
X81080000Y-103875000D03*
X81080000Y-104825000D03*
X81080000Y-105775000D03*
X83700000Y-105775000D03*
X83700000Y-104825000D03*
X83700000Y-103875000D03*
X198080000Y20125000D03*
X198080000Y19175000D03*
X198080000Y18225000D03*
X200700000Y18225000D03*
X200700000Y19175000D03*
X200700000Y20125000D03*
D19*
X195550000Y-89825000D03*
D20*
X201850000Y-89825000D03*
X201850000Y-87525000D03*
X201850000Y-92125000D03*
D19*
X78550000Y-89825000D03*
D20*
X84850000Y-89825000D03*
X84850000Y-87525000D03*
X84850000Y-92125000D03*
D19*
X195550000Y34175000D03*
D20*
X201850000Y34175000D03*
X201850000Y36475000D03*
X201850000Y31875000D03*
D21*
X200300000Y-101825000D03*
X198300000Y-101825000D03*
X83300000Y-101825000D03*
X81300000Y-101825000D03*
X200300000Y22175000D03*
X198300000Y22175000D03*
D22*
X228100000Y-157825000D03*
X228100000Y-158675000D03*
X226650000Y-157825000D03*
X226650000Y-158675000D03*
X111100000Y-157825000D03*
X111100000Y-158675000D03*
X109650000Y-157825000D03*
X109650000Y-158675000D03*
X228100000Y-33825000D03*
X228100000Y-34675000D03*
X226650000Y-33825000D03*
X226650000Y-34675000D03*
X220550000Y-164175000D03*
X220550000Y-165025000D03*
X219100000Y-164175000D03*
X219100000Y-165025000D03*
X103550000Y-164175000D03*
X103550000Y-165025000D03*
X102100000Y-164175000D03*
X102100000Y-165025000D03*
X220550000Y-40175000D03*
X220550000Y-41025000D03*
X219100000Y-40175000D03*
X219100000Y-41025000D03*
X213225000Y-176200000D03*
X213225000Y-177050000D03*
X211775000Y-176200000D03*
X211775000Y-177050000D03*
X96225000Y-176200000D03*
X96225000Y-177050000D03*
X94775000Y-176200000D03*
X94775000Y-177050000D03*
X213225000Y-52200000D03*
X213225000Y-53050000D03*
X211775000Y-52200000D03*
X211775000Y-53050000D03*
X186900000Y-175625000D03*
X186900000Y-176475000D03*
X185450000Y-175625000D03*
X185450000Y-176475000D03*
X69900000Y-175625000D03*
X69900000Y-176475000D03*
X68450000Y-175625000D03*
X68450000Y-176475000D03*
X186900000Y-51625000D03*
X186900000Y-52475000D03*
X185450000Y-51625000D03*
X185450000Y-52475000D03*
X179625000Y-166800000D03*
X179625000Y-167650000D03*
X178175000Y-166800000D03*
X178175000Y-167650000D03*
X62625000Y-166800000D03*
X62625000Y-167650000D03*
X61175000Y-166800000D03*
X61175000Y-167650000D03*
X179625000Y-42800000D03*
X179625000Y-43650000D03*
X178175000Y-42800000D03*
X178175000Y-43650000D03*
D23*
X236650000Y-138575000D03*
X232650000Y-138575000D03*
X119650000Y-138575000D03*
X115650000Y-138575000D03*
X236650000Y-14575000D03*
X232650000Y-14575000D03*
D22*
X170625000Y-158000000D03*
X170625000Y-158850000D03*
X169175000Y-158000000D03*
X169175000Y-158850000D03*
X53625000Y-158000000D03*
X53625000Y-158850000D03*
X52175000Y-158000000D03*
X52175000Y-158850000D03*
X170625000Y-34000000D03*
X170625000Y-34850000D03*
X169175000Y-34000000D03*
X169175000Y-34850000D03*
D24*
X201600000Y-77100000D03*
X195200000Y-77100000D03*
D25*
X198400000Y-77350000D03*
X197750000Y-77350000D03*
X197100000Y-77350000D03*
X199050000Y-77350000D03*
X199700000Y-77350000D03*
D26*
X199600000Y-74650000D03*
X197200000Y-74650000D03*
D24*
X84600000Y-77100000D03*
X78200000Y-77100000D03*
D25*
X81400000Y-77350000D03*
X80750000Y-77350000D03*
X80100000Y-77350000D03*
X82050000Y-77350000D03*
X82700000Y-77350000D03*
D26*
X82600000Y-74650000D03*
X80200000Y-74650000D03*
D24*
X201600000Y46900000D03*
X195200000Y46900000D03*
D25*
X198400000Y46650000D03*
X197750000Y46650000D03*
X197100000Y46650000D03*
X199050000Y46650000D03*
X199700000Y46650000D03*
D26*
X199600000Y49350000D03*
X197200000Y49350000D03*
D27*
X205900000Y-130625000D03*
X206400000Y-130625000D03*
X206900000Y-130625000D03*
X207400000Y-130625000D03*
X207900000Y-130625000D03*
X208400000Y-130625000D03*
X208900000Y-130625000D03*
X209400000Y-130625000D03*
X209900000Y-130625000D03*
X210400000Y-130625000D03*
X210900000Y-130625000D03*
X211400000Y-130625000D03*
X211900000Y-130625000D03*
X212400000Y-130625000D03*
X212900000Y-130625000D03*
X213400000Y-130625000D03*
X213900000Y-130625000D03*
X214400000Y-130625000D03*
X214900000Y-130625000D03*
X215400000Y-130625000D03*
X215900000Y-130625000D03*
X216400000Y-130625000D03*
X216900000Y-130625000D03*
X217400000Y-130625000D03*
X217900000Y-130625000D03*
X218400000Y-130625000D03*
X218900000Y-130625000D03*
X219400000Y-130625000D03*
X219900000Y-130625000D03*
X220400000Y-130625000D03*
X88900000Y-130625000D03*
X89400000Y-130625000D03*
X89900000Y-130625000D03*
X90400000Y-130625000D03*
X90900000Y-130625000D03*
X91400000Y-130625000D03*
X91900000Y-130625000D03*
X92400000Y-130625000D03*
X92900000Y-130625000D03*
X93400000Y-130625000D03*
X93900000Y-130625000D03*
X94400000Y-130625000D03*
X94900000Y-130625000D03*
X95400000Y-130625000D03*
X95900000Y-130625000D03*
X96400000Y-130625000D03*
X96900000Y-130625000D03*
X97400000Y-130625000D03*
X97900000Y-130625000D03*
X98400000Y-130625000D03*
X98900000Y-130625000D03*
X99400000Y-130625000D03*
X99900000Y-130625000D03*
X100400000Y-130625000D03*
X100900000Y-130625000D03*
X101400000Y-130625000D03*
X101900000Y-130625000D03*
X102400000Y-130625000D03*
X102900000Y-130625000D03*
X103400000Y-130625000D03*
X205900000Y-6625000D03*
X206400000Y-6625000D03*
X206900000Y-6625000D03*
X207400000Y-6625000D03*
X207900000Y-6625000D03*
X208400000Y-6625000D03*
X208900000Y-6625000D03*
X209400000Y-6625000D03*
X209900000Y-6625000D03*
X210400000Y-6625000D03*
X210900000Y-6625000D03*
X211400000Y-6625000D03*
X211900000Y-6625000D03*
X212400000Y-6625000D03*
X212900000Y-6625000D03*
X213400000Y-6625000D03*
X213900000Y-6625000D03*
X214400000Y-6625000D03*
X214900000Y-6625000D03*
X215400000Y-6625000D03*
X215900000Y-6625000D03*
X216400000Y-6625000D03*
X216900000Y-6625000D03*
X217400000Y-6625000D03*
X217900000Y-6625000D03*
X218400000Y-6625000D03*
X218900000Y-6625000D03*
X219400000Y-6625000D03*
X219900000Y-6625000D03*
X220400000Y-6625000D03*
D28*
X190550000Y-126625000D03*
D29*
X191050000Y-126625000D03*
X191550000Y-126625000D03*
X192050000Y-126625000D03*
X192550000Y-126625000D03*
X193050000Y-126625000D03*
X193550000Y-126625000D03*
X194050000Y-126625000D03*
X194550000Y-126625000D03*
X195050000Y-126625000D03*
X195550000Y-126625000D03*
D28*
X196050000Y-126625000D03*
D30*
X196700000Y-125975000D03*
D31*
X196700000Y-125475000D03*
X196700000Y-124975000D03*
X196700000Y-124475000D03*
X196700000Y-123975000D03*
X196700000Y-123475000D03*
X196700000Y-122975000D03*
X196700000Y-122475000D03*
X196700000Y-121975000D03*
X196700000Y-121475000D03*
X196700000Y-120975000D03*
D30*
X196700000Y-120475000D03*
D28*
X196050000Y-119825000D03*
D29*
X195550000Y-119825000D03*
X195050000Y-119825000D03*
X194550000Y-119825000D03*
X194050000Y-119825000D03*
X193550000Y-119825000D03*
X193050000Y-119825000D03*
X192550000Y-119825000D03*
X192050000Y-119825000D03*
X191550000Y-119825000D03*
X191050000Y-119825000D03*
D28*
X190550000Y-119825000D03*
D30*
X189900000Y-120475000D03*
D31*
X189900000Y-120975000D03*
X189900000Y-121475000D03*
X189900000Y-121975000D03*
X189900000Y-122475000D03*
X189900000Y-122975000D03*
X189900000Y-123475000D03*
X189900000Y-123975000D03*
X189900000Y-124475000D03*
X189900000Y-124975000D03*
X189900000Y-125475000D03*
D30*
X189900000Y-125975000D03*
D32*
X195231250Y-121293750D03*
X193943750Y-121293750D03*
X192656250Y-121293750D03*
X191368750Y-121293750D03*
X195231250Y-122581250D03*
X193943750Y-122581250D03*
X192656250Y-122581250D03*
X191368750Y-122581250D03*
X195231250Y-123868750D03*
X193943750Y-123868750D03*
X192656250Y-123868750D03*
X191368750Y-123868750D03*
X195231250Y-125156250D03*
X193943750Y-125156250D03*
X192656250Y-125156250D03*
X191368750Y-125156250D03*
D28*
X73550000Y-126625000D03*
D29*
X74050000Y-126625000D03*
X74550000Y-126625000D03*
X75050000Y-126625000D03*
X75550000Y-126625000D03*
X76050000Y-126625000D03*
X76550000Y-126625000D03*
X77050000Y-126625000D03*
X77550000Y-126625000D03*
X78050000Y-126625000D03*
X78550000Y-126625000D03*
D28*
X79050000Y-126625000D03*
D30*
X79700000Y-125975000D03*
D31*
X79700000Y-125475000D03*
X79700000Y-124975000D03*
X79700000Y-124475000D03*
X79700000Y-123975000D03*
X79700000Y-123475000D03*
X79700000Y-122975000D03*
X79700000Y-122475000D03*
X79700000Y-121975000D03*
X79700000Y-121475000D03*
X79700000Y-120975000D03*
D30*
X79700000Y-120475000D03*
D28*
X79050000Y-119825000D03*
D29*
X78550000Y-119825000D03*
X78050000Y-119825000D03*
X77550000Y-119825000D03*
X77050000Y-119825000D03*
X76550000Y-119825000D03*
X76050000Y-119825000D03*
X75550000Y-119825000D03*
X75050000Y-119825000D03*
X74550000Y-119825000D03*
X74050000Y-119825000D03*
D28*
X73550000Y-119825000D03*
D30*
X72900000Y-120475000D03*
D31*
X72900000Y-120975000D03*
X72900000Y-121475000D03*
X72900000Y-121975000D03*
X72900000Y-122475000D03*
X72900000Y-122975000D03*
X72900000Y-123475000D03*
X72900000Y-123975000D03*
X72900000Y-124475000D03*
X72900000Y-124975000D03*
X72900000Y-125475000D03*
D30*
X72900000Y-125975000D03*
D32*
X78231250Y-121293750D03*
X76943750Y-121293750D03*
X75656250Y-121293750D03*
X74368750Y-121293750D03*
X78231250Y-122581250D03*
X76943750Y-122581250D03*
X75656250Y-122581250D03*
X74368750Y-122581250D03*
X78231250Y-123868750D03*
X76943750Y-123868750D03*
X75656250Y-123868750D03*
X74368750Y-123868750D03*
X78231250Y-125156250D03*
X76943750Y-125156250D03*
X75656250Y-125156250D03*
X74368750Y-125156250D03*
D28*
X190550000Y-2625000D03*
D29*
X191050000Y-2625000D03*
X191550000Y-2625000D03*
X192050000Y-2625000D03*
X192550000Y-2625000D03*
X193050000Y-2625000D03*
X193550000Y-2625000D03*
X194050000Y-2625000D03*
X194550000Y-2625000D03*
X195050000Y-2625000D03*
X195550000Y-2625000D03*
D28*
X196050000Y-2625000D03*
D30*
X196700000Y-1975000D03*
D31*
X196700000Y-1475000D03*
X196700000Y-975000D03*
X196700000Y-475000D03*
X196700000Y25000D03*
X196700000Y525000D03*
X196700000Y1025000D03*
X196700000Y1525000D03*
X196700000Y2025000D03*
X196700000Y2525000D03*
X196700000Y3025000D03*
D30*
X196700000Y3525000D03*
D28*
X196050000Y4175000D03*
D29*
X195550000Y4175000D03*
X195050000Y4175000D03*
X194550000Y4175000D03*
X194050000Y4175000D03*
X193550000Y4175000D03*
X193050000Y4175000D03*
X192550000Y4175000D03*
X192050000Y4175000D03*
X191550000Y4175000D03*
X191050000Y4175000D03*
D28*
X190550000Y4175000D03*
D30*
X189900000Y3525000D03*
D31*
X189900000Y3025000D03*
X189900000Y2525000D03*
X189900000Y2025000D03*
X189900000Y1525000D03*
X189900000Y1025000D03*
X189900000Y525000D03*
X189900000Y25000D03*
X189900000Y-475000D03*
X189900000Y-975000D03*
X189900000Y-1475000D03*
D30*
X189900000Y-1975000D03*
D32*
X195231250Y2706250D03*
X193943750Y2706250D03*
X192656250Y2706250D03*
X191368750Y2706250D03*
X195231250Y1418750D03*
X193943750Y1418750D03*
X192656250Y1418750D03*
X191368750Y1418750D03*
X195231250Y131250D03*
X193943750Y131250D03*
X192656250Y131250D03*
X191368750Y131250D03*
X195231250Y-1156250D03*
X193943750Y-1156250D03*
X192656250Y-1156250D03*
X191368750Y-1156250D03*
D33*
X189800000Y-175125000D03*
X189800000Y-173855000D03*
X189800000Y-172585000D03*
X189800000Y-171315000D03*
X189800000Y-170045000D03*
X189800000Y-168775000D03*
X189800000Y-167505000D03*
X189800000Y-166235000D03*
X189800000Y-164965000D03*
X189800000Y-163695000D03*
X189800000Y-162425000D03*
X189800000Y-161155000D03*
X189800000Y-159885000D03*
X189800000Y-158615000D03*
D34*
X193085000Y-157125000D03*
X194355000Y-157125000D03*
X195625000Y-157125000D03*
X196895000Y-157125000D03*
X198165000Y-157125000D03*
X199435000Y-157125000D03*
X200705000Y-157125000D03*
X201975000Y-157125000D03*
X203245000Y-157125000D03*
X204515000Y-157125000D03*
D33*
X207800000Y-158615000D03*
X207800000Y-159885000D03*
X207800000Y-161155000D03*
X207800000Y-162425000D03*
X207800000Y-163695000D03*
X207800000Y-164965000D03*
X207800000Y-166235000D03*
X207800000Y-167505000D03*
X207800000Y-168775000D03*
X207800000Y-170045000D03*
X207800000Y-171315000D03*
X207800000Y-172585000D03*
X207800000Y-173855000D03*
X207800000Y-175125000D03*
X72800000Y-175125000D03*
X72800000Y-173855000D03*
X72800000Y-172585000D03*
X72800000Y-171315000D03*
X72800000Y-170045000D03*
X72800000Y-168775000D03*
X72800000Y-167505000D03*
X72800000Y-166235000D03*
X72800000Y-164965000D03*
X72800000Y-163695000D03*
X72800000Y-162425000D03*
X72800000Y-161155000D03*
X72800000Y-159885000D03*
X72800000Y-158615000D03*
D34*
X76085000Y-157125000D03*
X77355000Y-157125000D03*
X78625000Y-157125000D03*
X79895000Y-157125000D03*
X81165000Y-157125000D03*
X82435000Y-157125000D03*
X83705000Y-157125000D03*
X84975000Y-157125000D03*
X86245000Y-157125000D03*
X87515000Y-157125000D03*
D33*
X90800000Y-158615000D03*
X90800000Y-159885000D03*
X90800000Y-161155000D03*
X90800000Y-162425000D03*
X90800000Y-163695000D03*
X90800000Y-164965000D03*
X90800000Y-166235000D03*
X90800000Y-167505000D03*
X90800000Y-168775000D03*
X90800000Y-170045000D03*
X90800000Y-171315000D03*
X90800000Y-172585000D03*
X90800000Y-173855000D03*
X90800000Y-175125000D03*
X189800000Y-51125000D03*
X189800000Y-49855000D03*
X189800000Y-48585000D03*
X189800000Y-47315000D03*
X189800000Y-46045000D03*
X189800000Y-44775000D03*
X189800000Y-43505000D03*
X189800000Y-42235000D03*
X189800000Y-40965000D03*
X189800000Y-39695000D03*
X189800000Y-38425000D03*
X189800000Y-37155000D03*
X189800000Y-35885000D03*
X189800000Y-34615000D03*
D34*
X193085000Y-33125000D03*
X194355000Y-33125000D03*
X195625000Y-33125000D03*
X196895000Y-33125000D03*
X198165000Y-33125000D03*
X199435000Y-33125000D03*
X200705000Y-33125000D03*
X201975000Y-33125000D03*
X203245000Y-33125000D03*
X204515000Y-33125000D03*
D33*
X207800000Y-34615000D03*
X207800000Y-35885000D03*
X207800000Y-37155000D03*
X207800000Y-38425000D03*
X207800000Y-39695000D03*
X207800000Y-40965000D03*
X207800000Y-42235000D03*
X207800000Y-43505000D03*
X207800000Y-44775000D03*
X207800000Y-46045000D03*
X207800000Y-47315000D03*
X207800000Y-48585000D03*
X207800000Y-49855000D03*
X207800000Y-51125000D03*
X72800000Y-51125000D03*
X72800000Y-49855000D03*
X72800000Y-48585000D03*
X72800000Y-47315000D03*
X72800000Y-46045000D03*
X72800000Y-44775000D03*
X72800000Y-43505000D03*
X72800000Y-42235000D03*
X72800000Y-40965000D03*
X72800000Y-39695000D03*
X72800000Y-38425000D03*
X72800000Y-37155000D03*
X72800000Y-35885000D03*
X72800000Y-34615000D03*
D34*
X76085000Y-33125000D03*
X77355000Y-33125000D03*
X78625000Y-33125000D03*
X79895000Y-33125000D03*
X81165000Y-33125000D03*
X82435000Y-33125000D03*
X83705000Y-33125000D03*
X84975000Y-33125000D03*
X86245000Y-33125000D03*
X87515000Y-33125000D03*
D33*
X90800000Y-34615000D03*
X90800000Y-35885000D03*
X90800000Y-37155000D03*
X90800000Y-38425000D03*
X90800000Y-39695000D03*
X90800000Y-40965000D03*
X90800000Y-42235000D03*
X90800000Y-43505000D03*
X90800000Y-44775000D03*
X90800000Y-46045000D03*
X90800000Y-47315000D03*
X90800000Y-48585000D03*
X90800000Y-49855000D03*
X90800000Y-51125000D03*
D28*
X73550000Y-2625000D03*
D29*
X74050000Y-2625000D03*
X74550000Y-2625000D03*
X75050000Y-2625000D03*
X75550000Y-2625000D03*
X76050000Y-2625000D03*
X76550000Y-2625000D03*
X77050000Y-2625000D03*
X77550000Y-2625000D03*
X78050000Y-2625000D03*
X78550000Y-2625000D03*
D28*
X79050000Y-2625000D03*
D30*
X79700000Y-1975000D03*
D31*
X79700000Y-1475000D03*
X79700000Y-975000D03*
X79700000Y-475000D03*
X79700000Y25000D03*
X79700000Y525000D03*
X79700000Y1025000D03*
X79700000Y1525000D03*
X79700000Y2025000D03*
X79700000Y2525000D03*
X79700000Y3025000D03*
D30*
X79700000Y3525000D03*
D28*
X79050000Y4175000D03*
D29*
X78550000Y4175000D03*
X78050000Y4175000D03*
X77550000Y4175000D03*
X77050000Y4175000D03*
X76550000Y4175000D03*
X76050000Y4175000D03*
X75550000Y4175000D03*
X75050000Y4175000D03*
X74550000Y4175000D03*
X74050000Y4175000D03*
D28*
X73550000Y4175000D03*
D30*
X72900000Y3525000D03*
D31*
X72900000Y3025000D03*
X72900000Y2525000D03*
X72900000Y2025000D03*
X72900000Y1525000D03*
X72900000Y1025000D03*
X72900000Y525000D03*
X72900000Y25000D03*
X72900000Y-475000D03*
X72900000Y-975000D03*
X72900000Y-1475000D03*
D30*
X72900000Y-1975000D03*
D32*
X78231250Y2706250D03*
X76943750Y2706250D03*
X75656250Y2706250D03*
X74368750Y2706250D03*
X78231250Y1418750D03*
X76943750Y1418750D03*
X75656250Y1418750D03*
X74368750Y1418750D03*
X78231250Y131250D03*
X76943750Y131250D03*
X75656250Y131250D03*
X74368750Y131250D03*
X78231250Y-1156250D03*
X76943750Y-1156250D03*
X75656250Y-1156250D03*
X74368750Y-1156250D03*
D27*
X88900000Y-6625000D03*
X89400000Y-6625000D03*
X89900000Y-6625000D03*
X90400000Y-6625000D03*
X90900000Y-6625000D03*
X91400000Y-6625000D03*
X91900000Y-6625000D03*
X92400000Y-6625000D03*
X92900000Y-6625000D03*
X93400000Y-6625000D03*
X93900000Y-6625000D03*
X94400000Y-6625000D03*
X94900000Y-6625000D03*
X95400000Y-6625000D03*
X95900000Y-6625000D03*
X96400000Y-6625000D03*
X96900000Y-6625000D03*
X97400000Y-6625000D03*
X97900000Y-6625000D03*
X98400000Y-6625000D03*
X98900000Y-6625000D03*
X99400000Y-6625000D03*
X99900000Y-6625000D03*
X100400000Y-6625000D03*
X100900000Y-6625000D03*
X101400000Y-6625000D03*
X101900000Y-6625000D03*
X102400000Y-6625000D03*
X102900000Y-6625000D03*
X103400000Y-6625000D03*
D24*
X84600000Y46900000D03*
X78200000Y46900000D03*
D25*
X81400000Y46650000D03*
X80750000Y46650000D03*
X80100000Y46650000D03*
X82050000Y46650000D03*
X82700000Y46650000D03*
D26*
X82600000Y49350000D03*
X80200000Y49350000D03*
D22*
X53625000Y-34000000D03*
X53625000Y-34850000D03*
X52175000Y-34000000D03*
X52175000Y-34850000D03*
D23*
X119650000Y-14575000D03*
X115650000Y-14575000D03*
D22*
X62625000Y-42800000D03*
X62625000Y-43650000D03*
X61175000Y-42800000D03*
X61175000Y-43650000D03*
X69900000Y-51625000D03*
X69900000Y-52475000D03*
X68450000Y-51625000D03*
X68450000Y-52475000D03*
X96225000Y-52200000D03*
X96225000Y-53050000D03*
X94775000Y-52200000D03*
X94775000Y-53050000D03*
X103550000Y-40175000D03*
X103550000Y-41025000D03*
X102100000Y-40175000D03*
X102100000Y-41025000D03*
X111100000Y-33825000D03*
X111100000Y-34675000D03*
X109650000Y-33825000D03*
X109650000Y-34675000D03*
D21*
X83300000Y22175000D03*
X81300000Y22175000D03*
D19*
X78550000Y34175000D03*
D20*
X84850000Y34175000D03*
X84850000Y36475000D03*
X84850000Y31875000D03*
D18*
X81080000Y20125000D03*
X81080000Y19175000D03*
X81080000Y18225000D03*
X83700000Y18225000D03*
X83700000Y19175000D03*
X83700000Y20125000D03*
D17*
X66900000Y15385000D03*
X66900000Y24565000D03*
D16*
X97910000Y7375000D03*
X107090000Y7375000D03*
D15*
X96100000Y-46425000D03*
X94600000Y-46425000D03*
D11*
X85725000Y1550000D03*
X85725000Y50000D03*
X70900000Y-6575000D03*
X70900000Y-5075000D03*
X87500000Y32225000D03*
X87500000Y33725000D03*
D15*
X95450000Y-48025000D03*
X93950000Y-48025000D03*
D11*
X72350000Y-6975000D03*
X72350000Y-5475000D03*
D15*
X81450000Y24650000D03*
X82950000Y24650000D03*
D11*
X86025000Y16350000D03*
X86025000Y17850000D03*
D13*
X86200000Y-16775000D03*
X86200000Y-15275000D03*
X81750000Y-16875000D03*
X81750000Y-15375000D03*
X84150000Y-16825000D03*
X84150000Y-15325000D03*
X84500000Y-3675000D03*
X84500000Y-5175000D03*
D14*
X116775000Y-11350000D03*
X118275000Y-11350000D03*
X59825000Y-2125000D03*
X61325000Y-2125000D03*
D13*
X57075000Y-12875000D03*
X57075000Y-11375000D03*
X99075000Y-11625000D03*
X99075000Y-10125000D03*
D14*
X82225000Y16275000D03*
X83725000Y16275000D03*
D13*
X101575000Y-11625000D03*
X101575000Y-10125000D03*
D14*
X56825000Y-625000D03*
X58325000Y-625000D03*
X108950000Y-20675000D03*
X107450000Y-20675000D03*
X107250000Y-22975000D03*
X105750000Y-22975000D03*
D13*
X55575000Y-2875000D03*
X55575000Y-4375000D03*
D14*
X53825000Y-625000D03*
X55325000Y-625000D03*
D13*
X55075000Y-7625000D03*
X55075000Y-6125000D03*
D12*
X57900000Y-7050000D03*
X58850000Y-7050000D03*
X59800000Y-7050000D03*
X59800000Y-4850000D03*
X57900000Y-4850000D03*
D11*
X89300000Y34175000D03*
X89300000Y35675000D03*
M02*
