G04 #@! TF.FileFunction,Profile,NP*
%FSLAX46Y46*%
G04 Gerber Fmt 4.6, Leading zero omitted, Abs format (unit mm)*
G04 Created by KiCad (PCBNEW 4.0.7-e2-6376~58~ubuntu16.04.1) date Sat Nov  3 10:35:59 2018*
%MOMM*%
%LPD*%
G01*
G04 APERTURE LIST*
%ADD10C,0.150000*%
%ADD11C,0.100000*%
G04 APERTURE END LIST*
D10*
D11*
X131735650Y18544200D02*
X131755310Y18169300D01*
X131601100Y18894700D02*
X131735650Y18544200D01*
X131364830Y19186500D02*
X131601100Y18894700D01*
X113083500Y35647000D02*
X131364830Y19186500D01*
X112768600Y35852000D02*
X113083500Y35647000D01*
X112405900Y35949000D02*
X112768600Y35852000D01*
X112031000Y35929000D02*
X112405900Y35949000D01*
X111680500Y35795000D02*
X112031000Y35929000D01*
X111388700Y35558000D02*
X111680500Y35795000D01*
X111184300Y35243000D02*
X111388700Y35558000D01*
X111087100Y34881000D02*
X111184300Y35243000D01*
X111106700Y34506000D02*
X111087100Y34881000D01*
X111241300Y34155000D02*
X111106700Y34506000D01*
X208271800Y48133000D02*
X207368300Y48790000D01*
X234494100Y-167048900D02*
X233718800Y-167699000D01*
X234712100Y-166890500D02*
X234494100Y-167048900D01*
X234697200Y-166864600D02*
X234712100Y-166890500D01*
X234716300Y-166846300D02*
X234697200Y-166864600D01*
X234763000Y-166794400D02*
X234716300Y-166846300D01*
X234805900Y-166739400D02*
X234763000Y-166794400D01*
X234845000Y-166681500D02*
X234805900Y-166739400D01*
X234879900Y-166621100D02*
X234845000Y-166681500D01*
X234910500Y-166558400D02*
X234879900Y-166621100D01*
X234936600Y-166493600D02*
X234910500Y-166558400D01*
X234958200Y-166427300D02*
X234936600Y-166493600D01*
X234975000Y-166359500D02*
X234958200Y-166427300D01*
X234987200Y-166290800D02*
X234975000Y-166359500D01*
X234994500Y-166221400D02*
X234987200Y-166290800D01*
X234996900Y-166151600D02*
X234994500Y-166221400D01*
X234994500Y-166081900D02*
X234996900Y-166151600D01*
X234987200Y-166012500D02*
X234994500Y-166081900D01*
X234975100Y-165943700D02*
X234987200Y-166012500D01*
X234958200Y-165876000D02*
X234975100Y-165943700D01*
X234936600Y-165809600D02*
X234958200Y-165876000D01*
X234910400Y-165744900D02*
X234936600Y-165809600D01*
X234879900Y-165682200D02*
X234910400Y-165744900D01*
X234845000Y-165621700D02*
X234879900Y-165682200D01*
X234805900Y-165563900D02*
X234845000Y-165621700D01*
X234763000Y-165508900D02*
X234805900Y-165563900D01*
X234716300Y-165457000D02*
X234763000Y-165508900D01*
X234666000Y-165408500D02*
X234716300Y-165457000D01*
X234612600Y-165363600D02*
X234666000Y-165408500D01*
X234556100Y-165322600D02*
X234612600Y-165363600D01*
X234496900Y-165285600D02*
X234556100Y-165322600D01*
X234435300Y-165252900D02*
X234496900Y-165285600D01*
X234371500Y-165224500D02*
X234435300Y-165252900D01*
X234305900Y-165200600D02*
X234371500Y-165224500D01*
X234238800Y-165181300D02*
X234305900Y-165200600D01*
X234170600Y-165166800D02*
X234238800Y-165181300D01*
X234101500Y-165157100D02*
X234170600Y-165166800D01*
X234031800Y-165152200D02*
X234101500Y-165157100D01*
X233962000Y-165152200D02*
X234031800Y-165152200D01*
X233892400Y-165157100D02*
X233962000Y-165152200D01*
X233823300Y-165166800D02*
X233892400Y-165157100D01*
X233755000Y-165181300D02*
X233823300Y-165166800D01*
X233729600Y-165188600D02*
X233755000Y-165181300D01*
X233707200Y-165149900D02*
X233729600Y-165188600D01*
X233262800Y-165472800D02*
X233707200Y-165149900D01*
X232380600Y-166213100D02*
X233262800Y-165472800D01*
X231552100Y-167013100D02*
X232380600Y-166213100D01*
X230781500Y-167869000D02*
X231552100Y-167013100D01*
X230072400Y-168777000D02*
X230781500Y-167869000D01*
X229428400Y-169731000D02*
X230072400Y-168777000D01*
X228852600Y-170729000D02*
X229428400Y-169731000D01*
X228347700Y-171764000D02*
X228852600Y-170729000D01*
X227916300Y-172832000D02*
X228347700Y-171764000D01*
X227560400Y-173927000D02*
X227916300Y-172832000D01*
X227281800Y-175044000D02*
X227560400Y-173927000D01*
X227081800Y-176179000D02*
X227281800Y-175044000D01*
X226961400Y-177324000D02*
X227081800Y-176179000D01*
X226921200Y-178475000D02*
X226961400Y-177324000D01*
X226961400Y-179626000D02*
X226921200Y-178475000D01*
X227081800Y-180771000D02*
X226961400Y-179626000D01*
X227281800Y-181906000D02*
X227081800Y-180771000D01*
X227560400Y-183023000D02*
X227281800Y-181906000D01*
X227916300Y-184118000D02*
X227560400Y-183023000D01*
X228347700Y-185186000D02*
X227916300Y-184118000D01*
X228852600Y-186221000D02*
X228347700Y-185186000D01*
X229428400Y-187219000D02*
X228852600Y-186221000D01*
X230072400Y-188173000D02*
X229428400Y-187219000D01*
X230781500Y-189081000D02*
X230072400Y-188173000D01*
X231552100Y-189937000D02*
X230781500Y-189081000D01*
X232380600Y-190737000D02*
X231552100Y-189937000D01*
X233262800Y-191477000D02*
X232380600Y-190737000D01*
X52840600Y-177474000D02*
X52770800Y-177474000D01*
X52910200Y-177470000D02*
X52840600Y-177474000D01*
X52979300Y-177460000D02*
X52910200Y-177470000D01*
X53047600Y-177445000D02*
X52979300Y-177460000D01*
X53114700Y-177426000D02*
X53047600Y-177445000D01*
X53180300Y-177402000D02*
X53114700Y-177426000D01*
X53244100Y-177374000D02*
X53180300Y-177402000D01*
X53305700Y-177341000D02*
X53244100Y-177374000D01*
X53364900Y-177304000D02*
X53305700Y-177341000D01*
X53421400Y-177263000D02*
X53364900Y-177304000D01*
X53474800Y-177218000D02*
X53421400Y-177263000D01*
X53525000Y-177170000D02*
X53474800Y-177218000D01*
X53571700Y-177118000D02*
X53525000Y-177170000D01*
X53614700Y-177063000D02*
X53571700Y-177118000D01*
X53653700Y-177005000D02*
X53614700Y-177063000D01*
X53688600Y-176944000D02*
X53653700Y-177005000D01*
X53719200Y-176882000D02*
X53688600Y-176944000D01*
X53745400Y-176817000D02*
X53719200Y-176882000D01*
X53766900Y-176751000D02*
X53745400Y-176817000D01*
X53773300Y-176725000D02*
X53766900Y-176751000D01*
X53818000Y-176725000D02*
X53773300Y-176725000D01*
X53760600Y-176179000D02*
X53818000Y-176725000D01*
X53560600Y-175044000D02*
X53760600Y-176179000D01*
X53282000Y-173927000D02*
X53560600Y-175044000D01*
X52926100Y-172832000D02*
X53282000Y-173927000D01*
X52494700Y-171764000D02*
X52926100Y-172832000D01*
X51989800Y-170729000D02*
X52494700Y-171764000D01*
X51414000Y-169731000D02*
X51989800Y-170729000D01*
X50770000Y-168777000D02*
X51414000Y-169731000D01*
X50060900Y-167869000D02*
X50770000Y-168777000D01*
X49290300Y-167013100D02*
X50060900Y-167869000D01*
X48461800Y-166213100D02*
X49290300Y-167013100D01*
X47579600Y-165472800D02*
X48461800Y-166213100D01*
X46647900Y-164795900D02*
X47579600Y-165472800D01*
X45671200Y-164185600D02*
X46647900Y-164795900D01*
X44654300Y-163644900D02*
X45671200Y-164185600D01*
X43602200Y-163176500D02*
X44654300Y-163644900D01*
X42520000Y-162782600D02*
X43602200Y-163176500D01*
X41412900Y-162465100D02*
X42520000Y-162782600D01*
X40286200Y-162225700D02*
X41412900Y-162465100D01*
X39146200Y-162065400D02*
X40286200Y-162225700D01*
X37997200Y-161985100D02*
X39146200Y-162065400D01*
X36845200Y-161985100D02*
X37997200Y-161985100D01*
X35696200Y-162065400D02*
X36845200Y-161985100D01*
X34556200Y-162225700D02*
X35696200Y-162065400D01*
X33429200Y-162465100D02*
X34556200Y-162225700D01*
X32322200Y-162782600D02*
X33429200Y-162465100D01*
X31240200Y-163176500D02*
X32322200Y-162782600D01*
X30738200Y-163399900D02*
X31240200Y-163176500D01*
X30760200Y-163438600D02*
X30738200Y-163399900D01*
X30741200Y-163457000D02*
X30760200Y-163438600D01*
X30695200Y-163508900D02*
X30741200Y-163457000D01*
X30652200Y-163563900D02*
X30695200Y-163508900D01*
X30613200Y-163621700D02*
X30652200Y-163563900D01*
X30578200Y-163682200D02*
X30613200Y-163621700D01*
X30547200Y-163744900D02*
X30578200Y-163682200D01*
X30521200Y-163809600D02*
X30547200Y-163744900D01*
X30500200Y-163876000D02*
X30521200Y-163809600D01*
X30483200Y-163943700D02*
X30500200Y-163876000D01*
X30471200Y-164012500D02*
X30483200Y-163943700D01*
X30463200Y-164081900D02*
X30471200Y-164012500D01*
X30461200Y-164151700D02*
X30463200Y-164081900D01*
X30463200Y-164221400D02*
X30461200Y-164151700D01*
X30471200Y-164290800D02*
X30463200Y-164221400D01*
X30483200Y-164359600D02*
X30471200Y-164290800D01*
X30500200Y-164427300D02*
X30483200Y-164359600D01*
X30521200Y-164493700D02*
X30500200Y-164427300D01*
X30547200Y-164558400D02*
X30521200Y-164493700D01*
X30578200Y-164621100D02*
X30547200Y-164558400D01*
X30613200Y-164681600D02*
X30578200Y-164621100D01*
X30652200Y-164739400D02*
X30613200Y-164681600D01*
X30695200Y-164794400D02*
X30652200Y-164739400D01*
X30741200Y-164846300D02*
X30695200Y-164794400D01*
X30792200Y-164894800D02*
X30741200Y-164846300D01*
X30845200Y-164939600D02*
X30792200Y-164894800D01*
X30902200Y-164980700D02*
X30845200Y-164939600D01*
X30961200Y-165017700D02*
X30902200Y-164980700D01*
X31022200Y-165050400D02*
X30961200Y-165017700D01*
X31086200Y-165078800D02*
X31022200Y-165050400D01*
X31152200Y-165102700D02*
X31086200Y-165078800D01*
X31219200Y-165121900D02*
X31152200Y-165102700D01*
X31287200Y-165136400D02*
X31219200Y-165121900D01*
X31356200Y-165146200D02*
X31287200Y-165136400D01*
X31426200Y-165151000D02*
X31356200Y-165146200D01*
X31496200Y-165151000D02*
X31426200Y-165151000D01*
X31565200Y-165146200D02*
X31496200Y-165151000D01*
X31634200Y-165136500D02*
X31565200Y-165146200D01*
X31703200Y-165121900D02*
X31634200Y-165136500D01*
X31728200Y-165114600D02*
X31703200Y-165121900D01*
X31743200Y-165140500D02*
X31728200Y-165114600D01*
X31989200Y-165030800D02*
X31743200Y-165140500D01*
X32940200Y-164684700D02*
X31989200Y-165030800D01*
X33913200Y-164405700D02*
X32940200Y-164684700D01*
X34903200Y-164195300D02*
X33913200Y-164405700D01*
X35905200Y-164054400D02*
X34903200Y-164195300D01*
X36915200Y-163983800D02*
X35905200Y-164054400D01*
X37927200Y-163983800D02*
X36915200Y-163983800D01*
X38937200Y-164054400D02*
X37927200Y-163983800D01*
X39939200Y-164195300D02*
X38937200Y-164054400D01*
X40929100Y-164405700D02*
X39939200Y-164195300D01*
X41901900Y-164684700D02*
X40929100Y-164405700D01*
X42853000Y-165030800D02*
X41901900Y-164684700D01*
X43777600Y-165442500D02*
X42853000Y-165030800D01*
X44671200Y-165917600D02*
X43777600Y-165442500D01*
X45529500Y-166454000D02*
X44671200Y-165917600D01*
X46348300Y-167048900D02*
X45529500Y-166454000D01*
X47123600Y-167699000D02*
X46348300Y-167048900D01*
X47851600Y-168402000D02*
X47123600Y-167699000D01*
X48528800Y-169155000D02*
X47851600Y-168402000D01*
X49151900Y-169952000D02*
X48528800Y-169155000D01*
X49717900Y-170791000D02*
X49151900Y-169952000D01*
X50223900Y-171668000D02*
X49717900Y-170791000D01*
X50667600Y-172577000D02*
X50223900Y-171668000D01*
X51046700Y-173516000D02*
X50667600Y-172577000D01*
X51359500Y-174478000D02*
X51046700Y-173516000D01*
X51604300Y-175460000D02*
X51359500Y-174478000D01*
X51780100Y-176457000D02*
X51604300Y-175460000D01*
X51808300Y-176725000D02*
X51780100Y-176457000D01*
X51838100Y-176725000D02*
X51808300Y-176725000D01*
X51844400Y-176751000D02*
X51838100Y-176725000D01*
X51866000Y-176817000D02*
X51844400Y-176751000D01*
X51892200Y-176882000D02*
X51866000Y-176817000D01*
X51922800Y-176944000D02*
X51892200Y-176882000D01*
X51957700Y-177005000D02*
X51922800Y-176944000D01*
X51996700Y-177063000D02*
X51957700Y-177005000D01*
X52039700Y-177118000D02*
X51996700Y-177063000D01*
X52086400Y-177170000D02*
X52039700Y-177118000D01*
X52136600Y-177218000D02*
X52086400Y-177170000D01*
X52190000Y-177263000D02*
X52136600Y-177218000D01*
X52246500Y-177304000D02*
X52190000Y-177263000D01*
X52305700Y-177341000D02*
X52246500Y-177304000D01*
X52367300Y-177374000D02*
X52305700Y-177341000D01*
X52431100Y-177402000D02*
X52367300Y-177374000D01*
X52496700Y-177426000D02*
X52431100Y-177402000D01*
X52563800Y-177445000D02*
X52496700Y-177426000D01*
X52632100Y-177460000D02*
X52563800Y-177445000D01*
X52701200Y-177470000D02*
X52632100Y-177460000D01*
X52770800Y-177474000D02*
X52701200Y-177470000D01*
X258840200Y-177474000D02*
X258771200Y-177474000D01*
X258910200Y-177470000D02*
X258840200Y-177474000D01*
X258979200Y-177460000D02*
X258910200Y-177470000D01*
X259047200Y-177445000D02*
X258979200Y-177460000D01*
X259115200Y-177426000D02*
X259047200Y-177445000D01*
X259180200Y-177402000D02*
X259115200Y-177426000D01*
X259244200Y-177374000D02*
X259180200Y-177402000D01*
X259305200Y-177341000D02*
X259244200Y-177374000D01*
X259365200Y-177304000D02*
X259305200Y-177341000D01*
X259421200Y-177263000D02*
X259365200Y-177304000D01*
X259475200Y-177218000D02*
X259421200Y-177263000D01*
X259525200Y-177170000D02*
X259475200Y-177218000D01*
X259572200Y-177118000D02*
X259525200Y-177170000D01*
X259615200Y-177063000D02*
X259572200Y-177118000D01*
X259654200Y-177005000D02*
X259615200Y-177063000D01*
X259688200Y-176944000D02*
X259654200Y-177005000D01*
X259719200Y-176882000D02*
X259688200Y-176944000D01*
X259745200Y-176817000D02*
X259719200Y-176882000D01*
X259767200Y-176751000D02*
X259745200Y-176817000D01*
X259773200Y-176725000D02*
X259767200Y-176751000D01*
X259818200Y-176725000D02*
X259773200Y-176725000D01*
X259760200Y-176179000D02*
X259818200Y-176725000D01*
X259560200Y-175044000D02*
X259760200Y-176179000D01*
X259282200Y-173927000D02*
X259560200Y-175044000D01*
X258926200Y-172832000D02*
X259282200Y-173927000D01*
X258494200Y-171764000D02*
X258926200Y-172832000D01*
X257990200Y-170729000D02*
X258494200Y-171764000D01*
X257414200Y-169731000D02*
X257990200Y-170729000D01*
X256770200Y-168777000D02*
X257414200Y-169731000D01*
X256061200Y-167869000D02*
X256770200Y-168777000D01*
X255290200Y-167013100D02*
X256061200Y-167869000D01*
X254462200Y-166213100D02*
X255290200Y-167013100D01*
X253579200Y-165472800D02*
X254462200Y-166213100D01*
X252648200Y-164795900D02*
X253579200Y-165472800D01*
X251671200Y-164185600D02*
X252648200Y-164795900D01*
X250654200Y-163644900D02*
X251671200Y-164185600D01*
X249602200Y-163176500D02*
X250654200Y-163644900D01*
X248520200Y-162782600D02*
X249602200Y-163176500D01*
X247413200Y-162465100D02*
X248520200Y-162782600D01*
X246286200Y-162225700D02*
X247413200Y-162465100D01*
X245146200Y-162065400D02*
X246286200Y-162225700D01*
X243997200Y-161985100D02*
X245146200Y-162065400D01*
X242845200Y-161985100D02*
X243997200Y-161985100D01*
X241696200Y-162065400D02*
X242845200Y-161985100D01*
X240556200Y-162225700D02*
X241696200Y-162065400D01*
X239429500Y-162465100D02*
X240556200Y-162225700D01*
X238322400Y-162782600D02*
X239429500Y-162465100D01*
X237240200Y-163176500D02*
X238322400Y-162782600D01*
X236738300Y-163399900D02*
X237240200Y-163176500D01*
X236760700Y-163438600D02*
X236738300Y-163399900D01*
X236741700Y-163457000D02*
X236760700Y-163438600D01*
X236695000Y-163508900D02*
X236741700Y-163457000D01*
X236652000Y-163563900D02*
X236695000Y-163508900D01*
X236613000Y-163621700D02*
X236652000Y-163563900D01*
X236578100Y-163682200D02*
X236613000Y-163621700D01*
X236547500Y-163744900D02*
X236578100Y-163682200D01*
X236521300Y-163809600D02*
X236547500Y-163744900D01*
X236499700Y-163876000D02*
X236521300Y-163809600D01*
X236482900Y-163943700D02*
X236499700Y-163876000D01*
X236470700Y-164012500D02*
X236482900Y-163943700D01*
X236463500Y-164081900D02*
X236470700Y-164012500D01*
X236461000Y-164151700D02*
X236463500Y-164081900D01*
X236463400Y-164221400D02*
X236461000Y-164151700D01*
X236470700Y-164290800D02*
X236463400Y-164221400D01*
X236482900Y-164359600D02*
X236470700Y-164290800D01*
X236499700Y-164427300D02*
X236482900Y-164359600D01*
X236521300Y-164493700D02*
X236499700Y-164427300D01*
X236547500Y-164558400D02*
X236521300Y-164493700D01*
X236578000Y-164621100D02*
X236547500Y-164558400D01*
X236612900Y-164681600D02*
X236578000Y-164621100D01*
X236652000Y-164739400D02*
X236612900Y-164681600D01*
X236695000Y-164794400D02*
X236652000Y-164739400D01*
X236741700Y-164846300D02*
X236695000Y-164794400D01*
X236791900Y-164894800D02*
X236741700Y-164846300D01*
X236845300Y-164939600D02*
X236791900Y-164894800D01*
X236901800Y-164980700D02*
X236845300Y-164939600D01*
X236961000Y-165017700D02*
X236901800Y-164980700D01*
X237022600Y-165050400D02*
X236961000Y-165017700D01*
X237086400Y-165078800D02*
X237022600Y-165050400D01*
X237152000Y-165102700D02*
X237086400Y-165078800D01*
X237219100Y-165121900D02*
X237152000Y-165102700D01*
X237287300Y-165136400D02*
X237219100Y-165121900D01*
X237356500Y-165146200D02*
X237287300Y-165136400D01*
X237426100Y-165151000D02*
X237356500Y-165146200D01*
X237495900Y-165151000D02*
X237426100Y-165151000D01*
X237565500Y-165146200D02*
X237495900Y-165151000D01*
X237634700Y-165136500D02*
X237565500Y-165146200D01*
X237702900Y-165121900D02*
X237634700Y-165136500D01*
X237728300Y-165114600D02*
X237702900Y-165121900D01*
X237743200Y-165140500D02*
X237728300Y-165114600D01*
X237989400Y-165030800D02*
X237743200Y-165140500D01*
X238940500Y-164684700D02*
X237989400Y-165030800D01*
X239913300Y-164405700D02*
X238940500Y-164684700D01*
X240903200Y-164195300D02*
X239913300Y-164405700D01*
X241905200Y-164054400D02*
X240903200Y-164195300D01*
X242915200Y-163983800D02*
X241905200Y-164054400D01*
X243927200Y-163983800D02*
X242915200Y-163983800D01*
X244937200Y-164054400D02*
X243927200Y-163983800D01*
X245939200Y-164195300D02*
X244937200Y-164054400D01*
X246929200Y-164405700D02*
X245939200Y-164195300D01*
X247902200Y-164684700D02*
X246929200Y-164405700D01*
X248853200Y-165030800D02*
X247902200Y-164684700D01*
X249777200Y-165442500D02*
X248853200Y-165030800D01*
X250671200Y-165917600D02*
X249777200Y-165442500D01*
X251529200Y-166454000D02*
X250671200Y-165917600D01*
X252348200Y-167048900D02*
X251529200Y-166454000D01*
X253123200Y-167699000D02*
X252348200Y-167048900D01*
X253851200Y-168402000D02*
X253123200Y-167699000D01*
X254529200Y-169155000D02*
X253851200Y-168402000D01*
X255152200Y-169952000D02*
X254529200Y-169155000D01*
X255718200Y-170791000D02*
X255152200Y-169952000D01*
X256224200Y-171668000D02*
X255718200Y-170791000D01*
X256667200Y-172577000D02*
X256224200Y-171668000D01*
X257047200Y-173516000D02*
X256667200Y-172577000D01*
X257359200Y-174478000D02*
X257047200Y-173516000D01*
X257604200Y-175460000D02*
X257359200Y-174478000D01*
X257780200Y-176457000D02*
X257604200Y-175460000D01*
X257808200Y-176725000D02*
X257780200Y-176457000D01*
X257838200Y-176725000D02*
X257808200Y-176725000D01*
X257844200Y-176751000D02*
X257838200Y-176725000D01*
X257866200Y-176817000D02*
X257844200Y-176751000D01*
X257892200Y-176882000D02*
X257866200Y-176817000D01*
X257923200Y-176944000D02*
X257892200Y-176882000D01*
X257957200Y-177005000D02*
X257923200Y-176944000D01*
X257996200Y-177063000D02*
X257957200Y-177005000D01*
X258039200Y-177118000D02*
X257996200Y-177063000D01*
X258086200Y-177170000D02*
X258039200Y-177118000D01*
X258136200Y-177218000D02*
X258086200Y-177170000D01*
X258190200Y-177263000D02*
X258136200Y-177218000D01*
X258246200Y-177304000D02*
X258190200Y-177263000D01*
X258306200Y-177341000D02*
X258246200Y-177304000D01*
X258367200Y-177374000D02*
X258306200Y-177341000D01*
X258431200Y-177402000D02*
X258367200Y-177374000D01*
X258496200Y-177426000D02*
X258431200Y-177402000D01*
X258564200Y-177445000D02*
X258496200Y-177426000D01*
X258632200Y-177460000D02*
X258564200Y-177445000D01*
X258701200Y-177470000D02*
X258632200Y-177460000D01*
X258771200Y-177474000D02*
X258701200Y-177470000D01*
X228453000Y-168057000D02*
X224571800Y-164175900D01*
X251930200Y-143589500D02*
X228453000Y-168057000D01*
X252678200Y-142759600D02*
X251930200Y-143589500D01*
X253365200Y-141879600D02*
X252678200Y-142759600D01*
X253990200Y-140953700D02*
X253365200Y-141879600D01*
X254548200Y-139986500D02*
X253990200Y-140953700D01*
X255038200Y-138982800D02*
X254548200Y-139986500D01*
X255456200Y-137947300D02*
X255038200Y-138982800D01*
X255801200Y-136885200D02*
X255456200Y-137947300D01*
X256071200Y-135801600D02*
X255801200Y-136885200D01*
X256265200Y-134701800D02*
X256071200Y-135801600D01*
X256382200Y-133591100D02*
X256265200Y-134701800D01*
X256421200Y-132475000D02*
X256382200Y-133591100D01*
X256421200Y-123975000D02*
X256421200Y-132475000D01*
X253549200Y-123975000D02*
X256421200Y-123975000D01*
X253567200Y-124001700D02*
X253549200Y-123975000D01*
X253825200Y-124331700D02*
X253567200Y-124001700D01*
X254105200Y-124642900D02*
X253825200Y-124331700D01*
X254406200Y-124933900D02*
X254105200Y-124642900D01*
X254421200Y-124946300D02*
X254406200Y-124933900D01*
X254421200Y-130475000D02*
X254421200Y-124946300D01*
X254382200Y-131591100D02*
X254421200Y-130475000D01*
X254265200Y-132701800D02*
X254382200Y-131591100D01*
X254071200Y-133801600D02*
X254265200Y-132701800D01*
X253801200Y-134885200D02*
X254071200Y-133801600D01*
X253456200Y-135947300D02*
X253801200Y-134885200D01*
X253038200Y-136982800D02*
X253456200Y-135947300D01*
X252548200Y-137986500D02*
X253038200Y-136982800D01*
X251990200Y-138953700D02*
X252548200Y-137986500D01*
X251365200Y-139879600D02*
X251990200Y-138953700D01*
X250678200Y-140759600D02*
X251365200Y-139879600D01*
X249930200Y-141589500D02*
X250678200Y-140759600D01*
X239930600Y-151589500D02*
X249930200Y-141589500D01*
X239127300Y-152365300D02*
X239930600Y-151589500D01*
X238271800Y-153083200D02*
X239127300Y-152365300D01*
X192427500Y50360000D02*
X191407300Y49906000D01*
X48002000Y45228000D02*
X47331000Y45036000D01*
X72474100Y48790000D02*
X71570600Y48133000D01*
X119112500Y42956000D02*
X118577800Y43405000D01*
X29286200Y28592400D02*
X29024200Y27945200D01*
X103462700Y45519000D02*
X94539600Y45519000D01*
X44675100Y46797000D02*
X45331000Y47036000D01*
X162331000Y47036000D02*
X163002000Y47228000D01*
X161675100Y46797000D02*
X162331000Y47036000D01*
X32031200Y23120900D02*
X31680200Y23255500D01*
X149405960Y23101300D02*
X149031030Y23120900D01*
X149768610Y23198400D02*
X149405960Y23101300D01*
X150083480Y23402900D02*
X149768610Y23198400D01*
X168364800Y39864000D02*
X150083480Y23402900D01*
X168601100Y40155000D02*
X168364800Y39864000D01*
X168735700Y40506000D02*
X168601100Y40155000D01*
X159829300Y45815000D02*
X160421200Y46185000D01*
X159264600Y45405000D02*
X159829300Y45815000D01*
X28761200Y32953000D02*
X29228200Y33472000D01*
X248614200Y31471600D02*
X248112200Y31956500D01*
X249081200Y30952900D02*
X248614200Y31471600D01*
X249511200Y30402900D02*
X249081200Y30952900D01*
X249901200Y29824200D02*
X249511200Y30402900D01*
X235013100Y43815000D02*
X234421200Y44185000D01*
X235577800Y43405000D02*
X235013100Y43815000D01*
X236112500Y42956000D02*
X235577800Y43405000D01*
X248112200Y31956500D02*
X236112500Y42956000D01*
X232511400Y45036000D02*
X231840400Y45228000D01*
X233167300Y44797000D02*
X232511400Y45036000D01*
X233804900Y44513000D02*
X233167300Y44797000D01*
X234421200Y44185000D02*
X233804900Y44513000D01*
X27941200Y31824200D02*
X28331200Y32402900D01*
X161037500Y46513000D02*
X161675100Y46797000D01*
X160421200Y46185000D02*
X161037500Y46513000D01*
X45331000Y47036000D02*
X46002000Y47228000D01*
X137105160Y7693000D02*
X137188600Y7773500D01*
X137188600Y7773500D02*
X134323880Y25916700D01*
X131112500Y31956500D02*
X119112500Y42956000D01*
X58921200Y45156000D02*
X58921200Y49742000D01*
X133677900Y-16759600D02*
X134365460Y-15879600D01*
X132930630Y-17589500D02*
X133677900Y-16759600D01*
X122930600Y-27589500D02*
X132930630Y-17589500D01*
X122127300Y-28365300D02*
X122930600Y-27589500D01*
X121271800Y-29083200D02*
X122127300Y-28365300D01*
X120368300Y-29739600D02*
X121271800Y-29083200D01*
X119964000Y-29992200D02*
X120368300Y-29739600D01*
X119365500Y-30879600D02*
X119964000Y-29992200D01*
X118677900Y-31759600D02*
X119365500Y-30879600D01*
X117930600Y-32589500D02*
X118677900Y-31759600D01*
X117127300Y-33365300D02*
X117930600Y-32589500D01*
X116271800Y-34083200D02*
X117127300Y-33365300D01*
X115368300Y-34739600D02*
X116271800Y-34083200D01*
X114421200Y-35331400D02*
X115368300Y-34739600D01*
X113435100Y-35855700D02*
X114421200Y-35331400D01*
X112414900Y-36309900D02*
X113435100Y-35855700D01*
X111533200Y-36630800D02*
X112414900Y-36309900D01*
X111365500Y-36879600D02*
X111533200Y-36630800D01*
X109594400Y-39305000D02*
X111365500Y-36879600D01*
X109294600Y-39391000D02*
X109594400Y-39305000D01*
X108737000Y-39593900D02*
X109294600Y-39391000D01*
X108195000Y-39835200D02*
X108737000Y-39593900D01*
X107671200Y-40113800D02*
X108195000Y-39835200D01*
X107571800Y-40175900D02*
X107671200Y-40113800D01*
X228453000Y-44057000D02*
X224571800Y-40175900D01*
X251930200Y-19589500D02*
X228453000Y-44057000D01*
X252678200Y-18759600D02*
X251930200Y-19589500D01*
X253365200Y-17879600D02*
X252678200Y-18759600D01*
X253990200Y-16953700D02*
X253365200Y-17879600D01*
X254548200Y-15986500D02*
X253990200Y-16953700D01*
X255038200Y-14982800D02*
X254548200Y-15986500D01*
X255456200Y-13947300D02*
X255038200Y-14982800D01*
X255801200Y-12885200D02*
X255456200Y-13947300D01*
X256071200Y-11801600D02*
X255801200Y-12885200D01*
X238112500Y44956000D02*
X250112200Y33956000D01*
X237577800Y45405000D02*
X238112500Y44956000D01*
X237013100Y45815000D02*
X237577800Y45405000D01*
X236421200Y46185000D02*
X237013100Y45815000D01*
X235804900Y46513000D02*
X236421200Y46185000D01*
X158729900Y44956000D02*
X159264600Y45405000D01*
X146729900Y33956000D02*
X158729900Y44956000D01*
X148087090Y18169300D02*
X148106750Y18544200D01*
X148184280Y17806600D02*
X148087090Y18169300D01*
X148388760Y17491800D02*
X148184280Y17806600D01*
X148680520Y17255500D02*
X148388760Y17491800D01*
X149031030Y17120900D02*
X148680520Y17255500D01*
X130436440Y23101300D02*
X130073800Y23198400D01*
X130811370Y23120900D02*
X130436440Y23101300D01*
X131161880Y23255500D02*
X130811370Y23120900D01*
X131453640Y23491800D02*
X131161880Y23255500D01*
X133112500Y33956000D02*
X133614590Y33472000D01*
X121112500Y44956000D02*
X133112500Y33956000D01*
X265421200Y61525000D02*
X15421200Y61525000D01*
X15421200Y61525000D02*
X15421200Y-196475000D01*
X132081630Y30952900D02*
X131614590Y31471600D01*
X191407300Y49906000D02*
X190421200Y49381000D01*
X91271800Y48133000D02*
X90368300Y48790000D01*
X27286200Y30592400D02*
X27592200Y31219700D01*
X75427500Y50360000D02*
X74407300Y49906000D01*
X211539600Y45519000D02*
X208271800Y48133000D01*
X44037500Y46513000D02*
X44675100Y46797000D01*
X31680200Y17255500D02*
X31389200Y17491800D01*
X32031200Y17120900D02*
X31680200Y17255500D01*
X149405960Y17101300D02*
X149031030Y17120900D01*
X149768610Y17198400D02*
X149405960Y17101300D01*
X150083480Y17402900D02*
X149768610Y17198400D01*
X168364800Y33864000D02*
X150083480Y17402900D01*
X168601100Y34155000D02*
X168364800Y33864000D01*
X168735700Y34506000D02*
X168601100Y34155000D01*
X168755300Y34881000D02*
X168735700Y34506000D01*
X168658100Y35243000D02*
X168755300Y34881000D01*
X166375900Y45470000D02*
X165684700Y45373000D01*
X167072200Y45519000D02*
X166375900Y45470000D01*
X168462700Y45519000D02*
X167072200Y45519000D01*
X168727200Y45297000D02*
X168462700Y45519000D01*
X134202660Y26604100D02*
X134033810Y27281400D01*
X112031000Y41929000D02*
X112405900Y41949000D01*
X111680500Y41795000D02*
X112031000Y41929000D01*
X111388700Y41558000D02*
X111680500Y41795000D01*
X111184300Y41243000D02*
X111388700Y41558000D01*
X111087100Y40881000D02*
X111184300Y41243000D01*
X111106700Y40506000D02*
X111087100Y40881000D01*
X111241300Y40155000D02*
X111106700Y40506000D01*
X111477600Y39864000D02*
X111241300Y40155000D01*
X136824930Y7381700D02*
X137105160Y7693000D01*
X25654200Y7773500D02*
X25737200Y7693000D01*
X51453700Y-82441700D02*
X51658100Y-82756600D01*
X51161900Y-82205500D02*
X51453700Y-82441700D01*
X50811400Y-82070900D02*
X51161900Y-82205500D01*
X50436500Y-82051300D02*
X50811400Y-82070900D01*
X50073800Y-82148400D02*
X50436500Y-82051300D01*
X49758900Y-82352900D02*
X50073800Y-82148400D01*
X31477200Y-98813500D02*
X49758900Y-82352900D01*
X31241200Y-99105300D02*
X31477200Y-98813500D01*
X31107200Y-99455800D02*
X31241200Y-99105300D01*
X31087200Y-99830700D02*
X31107200Y-99455800D01*
X31184200Y-100193400D02*
X31087200Y-99830700D01*
X31389200Y-100508200D02*
X31184200Y-100193400D01*
X31680200Y-100744500D02*
X31389200Y-100508200D01*
X32031200Y-100879100D02*
X31680200Y-100744500D01*
X130436440Y-100898700D02*
X130073800Y-100801600D01*
X130811370Y-100879100D02*
X130436440Y-100898700D01*
X131161880Y-100744500D02*
X130811370Y-100879100D01*
X131453640Y-100508200D02*
X131161880Y-100744500D01*
X131658120Y-100193400D02*
X131453640Y-100508200D01*
X131755310Y-99830700D02*
X131658120Y-100193400D01*
X131735650Y-99455800D02*
X131755310Y-99830700D01*
X131601100Y-99105300D02*
X131735650Y-99455800D01*
X131364830Y-98813500D02*
X131601100Y-99105300D01*
X113083500Y-82352900D02*
X131364830Y-98813500D01*
X112768600Y-82148400D02*
X113083500Y-82352900D01*
X112405900Y-82051300D02*
X112768600Y-82148400D01*
X112031000Y-82070900D02*
X112405900Y-82051300D01*
X111680500Y-82205500D02*
X112031000Y-82070900D01*
X111388700Y-82441700D02*
X111680500Y-82205500D01*
X111184300Y-82756600D02*
X111388700Y-82441700D01*
X111087100Y-83119300D02*
X111184300Y-82756600D01*
X111106700Y-83494200D02*
X111087100Y-83119300D01*
X111241300Y-83844700D02*
X111106700Y-83494200D01*
X111477600Y-84136500D02*
X111241300Y-83844700D01*
X129758900Y-100597100D02*
X111477600Y-84136500D01*
X130073800Y-100801600D02*
X129758900Y-100597100D01*
X26293200Y-116975000D02*
X23580200Y-116975000D01*
X26275200Y-116948300D02*
X26293200Y-116975000D01*
X26017200Y-116618300D02*
X26275200Y-116948300D01*
X25737200Y-116307000D02*
X26017200Y-116618300D01*
X25654200Y-116226500D02*
X25737200Y-116307000D01*
X28518200Y-98083300D02*
X25654200Y-116226500D01*
X28640200Y-97395900D02*
X28518200Y-98083300D01*
X28808200Y-96718600D02*
X28640200Y-97395900D01*
X29024200Y-96054800D02*
X28808200Y-96718600D01*
X29286200Y-95407600D02*
X29024200Y-96054800D01*
X29592200Y-94780300D02*
X29286200Y-95407600D01*
X29941200Y-94175800D02*
X29592200Y-94780300D01*
X30331200Y-93597100D02*
X29941200Y-94175800D01*
X30761200Y-93047100D02*
X30331200Y-93597100D01*
X31228200Y-92528400D02*
X30761200Y-93047100D01*
X31730200Y-92043500D02*
X31228200Y-92528400D01*
X43729900Y-81043500D02*
X31730200Y-92043500D01*
X44264600Y-80594900D02*
X43729900Y-81043500D01*
X44829300Y-80184600D02*
X44264600Y-80594900D01*
X45421200Y-79814800D02*
X44829300Y-80184600D01*
X46037500Y-79487100D02*
X45421200Y-79814800D01*
X46675100Y-79203200D02*
X46037500Y-79487100D01*
X47331000Y-78964400D02*
X46675100Y-79203200D01*
X48002000Y-78772000D02*
X47331000Y-78964400D01*
X48684700Y-78626900D02*
X48002000Y-78772000D01*
X49375900Y-78529800D02*
X48684700Y-78626900D01*
X50072200Y-78481100D02*
X49375900Y-78529800D01*
X51462700Y-78481100D02*
X50072200Y-78481100D01*
X51727200Y-78703100D02*
X51462700Y-78481100D01*
X51921200Y-78844000D02*
X51727200Y-78703100D01*
X51921200Y-75613340D02*
X51921200Y-78844000D01*
X46684700Y-76626930D02*
X51921200Y-75613340D01*
X46002000Y-76772040D02*
X46684700Y-76626930D01*
X45331000Y-76964440D02*
X46002000Y-76772040D01*
X44675100Y-77203160D02*
X45331000Y-76964440D01*
X44037500Y-77487100D02*
X44675100Y-77203160D01*
X43421200Y-77814800D02*
X44037500Y-77487100D01*
X42829300Y-78184600D02*
X43421200Y-77814800D01*
X42264600Y-78594900D02*
X42829300Y-78184600D01*
X41729900Y-79043500D02*
X42264600Y-78594900D01*
X29730200Y-90043500D02*
X41729900Y-79043500D01*
X29228200Y-90528400D02*
X29730200Y-90043500D01*
X28761200Y-91047100D02*
X29228200Y-90528400D01*
X28331200Y-91597100D02*
X28761200Y-91047100D01*
X27941200Y-92175800D02*
X28331200Y-91597100D01*
X27592200Y-92780300D02*
X27941200Y-92175800D01*
X27286200Y-93407600D02*
X27592200Y-92780300D01*
X27024200Y-94054800D02*
X27286200Y-93407600D01*
X26808200Y-94718600D02*
X27024200Y-94054800D01*
X26640200Y-95395900D02*
X26808200Y-94718600D01*
X26518200Y-96083300D02*
X26640200Y-95395900D01*
X23654200Y-114226500D02*
X26518200Y-96083300D01*
X23580200Y-116975000D02*
X23654200Y-114226500D01*
X139261910Y-116975000D02*
X136549070Y-116975000D01*
X139188600Y-114226500D02*
X139261910Y-116975000D01*
X136323880Y-96083300D02*
X139188600Y-114226500D01*
X136202660Y-95395900D02*
X136323880Y-96083300D01*
X136033810Y-94718600D02*
X136202660Y-95395900D01*
X135818110Y-94054800D02*
X136033810Y-94718600D01*
X135556650Y-93407600D02*
X135818110Y-94054800D01*
X135250670Y-92780300D02*
X135556650Y-93407600D01*
X134901670Y-92175800D02*
X135250670Y-92780300D01*
X134511360Y-91597100D02*
X134901670Y-92175800D01*
X134081630Y-91047100D02*
X134511360Y-91597100D01*
X133614590Y-90528400D02*
X134081630Y-91047100D01*
X133112500Y-90043500D02*
X133614590Y-90528400D01*
X121112500Y-79043500D02*
X133112500Y-90043500D01*
X120577800Y-78594900D02*
X121112500Y-79043500D01*
X120013100Y-78184600D02*
X120577800Y-78594900D01*
X119421200Y-77814800D02*
X120013100Y-78184600D01*
X118804900Y-77487100D02*
X119421200Y-77814800D01*
X118167300Y-77203160D02*
X118804900Y-77487100D01*
X117511400Y-76964440D02*
X118167300Y-77203160D01*
X116840400Y-76772040D02*
X117511400Y-76964440D01*
X116157700Y-76626930D02*
X116840400Y-76772040D01*
X110921200Y-75613340D02*
X116157700Y-76626930D01*
X110921200Y-78844000D02*
X110921200Y-75613340D01*
X111115200Y-78703100D02*
X110921200Y-78844000D01*
X111379700Y-78481100D02*
X111115200Y-78703100D01*
X112770200Y-78481100D02*
X111379700Y-78481100D01*
X113466500Y-78529800D02*
X112770200Y-78481100D01*
X114157700Y-78626900D02*
X113466500Y-78529800D01*
X114840400Y-78772000D02*
X114157700Y-78626900D01*
X115511400Y-78964400D02*
X114840400Y-78772000D01*
X116167300Y-79203200D02*
X115511400Y-78964400D01*
X116804900Y-79487100D02*
X116167300Y-79203200D01*
X117421200Y-79814800D02*
X116804900Y-79487100D01*
X118013100Y-80184600D02*
X117421200Y-79814800D01*
X118577800Y-80594900D02*
X118013100Y-80184600D01*
X119112500Y-81043500D02*
X118577800Y-80594900D01*
X131112500Y-92043500D02*
X119112500Y-81043500D01*
X131614590Y-92528400D02*
X131112500Y-92043500D01*
X132081630Y-93047100D02*
X131614590Y-92528400D01*
X132511360Y-93597100D02*
X132081630Y-93047100D01*
X132901670Y-94175800D02*
X132511360Y-93597100D01*
X133250670Y-94780300D02*
X132901670Y-94175800D01*
X133556650Y-95407600D02*
X133250670Y-94780300D01*
X133818110Y-96054800D02*
X133556650Y-95407600D01*
X134033810Y-96718600D02*
X133818110Y-96054800D01*
X134202660Y-97395900D02*
X134033810Y-96718600D01*
X134323880Y-98083300D02*
X134202660Y-97395900D01*
X137188600Y-116226500D02*
X134323880Y-98083300D01*
X137105160Y-116307000D02*
X137188600Y-116226500D01*
X136824930Y-116618300D02*
X137105160Y-116307000D01*
X136567090Y-116948300D02*
X136824930Y-116618300D01*
X136549070Y-116975000D02*
X136567090Y-116948300D01*
X143293330Y-116975000D02*
X140580486Y-116975000D01*
X143275310Y-116948300D02*
X143293330Y-116975000D01*
X143017470Y-116618300D02*
X143275310Y-116948300D01*
X142737240Y-116307000D02*
X143017470Y-116618300D01*
X142653800Y-116226500D02*
X142737240Y-116307000D01*
X145518520Y-98083300D02*
X142653800Y-116226500D01*
X145639740Y-97395900D02*
X145518520Y-98083300D01*
X145808590Y-96718600D02*
X145639740Y-97395900D01*
X146024290Y-96054800D02*
X145808590Y-96718600D01*
X146285750Y-95407600D02*
X146024290Y-96054800D01*
X146591730Y-94780300D02*
X146285750Y-95407600D01*
X146940730Y-94175800D02*
X146591730Y-94780300D01*
X147331040Y-93597100D02*
X146940730Y-94175800D01*
X147760770Y-93047100D02*
X147331040Y-93597100D01*
X148227810Y-92528400D02*
X147760770Y-93047100D01*
X148729900Y-92043500D02*
X148227810Y-92528400D01*
X160729900Y-81043500D02*
X148729900Y-92043500D01*
X161264600Y-80594900D02*
X160729900Y-81043500D01*
X161829300Y-80184600D02*
X161264600Y-80594900D01*
X162421200Y-79814800D02*
X161829300Y-80184600D01*
X163037500Y-79487100D02*
X162421200Y-79814800D01*
X163675100Y-79203200D02*
X163037500Y-79487100D01*
X164331000Y-78964400D02*
X163675100Y-79203200D01*
X165002000Y-78772000D02*
X164331000Y-78964400D01*
X165684700Y-78626900D02*
X165002000Y-78772000D01*
X166375900Y-78529800D02*
X165684700Y-78626900D01*
X167072200Y-78481100D02*
X166375900Y-78529800D01*
X168462700Y-78481100D02*
X167072200Y-78481100D01*
X168727200Y-78703100D02*
X168462700Y-78481100D01*
X168921200Y-78844000D02*
X168727200Y-78703100D01*
X168921200Y-75613340D02*
X168921200Y-78844000D01*
X163684700Y-76626930D02*
X168921200Y-75613340D01*
X163002000Y-76772040D02*
X163684700Y-76626930D01*
X162331000Y-76964440D02*
X163002000Y-76772040D01*
X161675100Y-77203160D02*
X162331000Y-76964440D01*
X161037500Y-77487100D02*
X161675100Y-77203160D01*
X160421200Y-77814800D02*
X161037500Y-77487100D01*
X159829300Y-78184600D02*
X160421200Y-77814800D01*
X159264600Y-78594900D02*
X159829300Y-78184600D01*
X158729900Y-79043500D02*
X159264600Y-78594900D01*
X146729900Y-90043500D02*
X158729900Y-79043500D01*
X146227810Y-90528400D02*
X146729900Y-90043500D01*
X145760770Y-91047100D02*
X146227810Y-90528400D01*
X145331040Y-91597100D02*
X145760770Y-91047100D01*
X144940730Y-92175800D02*
X145331040Y-91597100D01*
X144591730Y-92780300D02*
X144940730Y-92175800D01*
X144285750Y-93407600D02*
X144591730Y-92780300D01*
X144024290Y-94054800D02*
X144285750Y-93407600D01*
X143808590Y-94718600D02*
X144024290Y-94054800D01*
X143639740Y-95395900D02*
X143808590Y-94718600D01*
X143518520Y-96083300D02*
X143639740Y-95395900D01*
X140653805Y-114226500D02*
X143518520Y-96083300D01*
X140580486Y-116975000D02*
X140653805Y-114226500D01*
X256262200Y-116975000D02*
X253549200Y-116975000D01*
X256188200Y-114226500D02*
X256262200Y-116975000D01*
X253324200Y-96083300D02*
X256188200Y-114226500D01*
X253202200Y-95395900D02*
X253324200Y-96083300D01*
X253034200Y-94718600D02*
X253202200Y-95395900D01*
X252818200Y-94054800D02*
X253034200Y-94718600D01*
X252556200Y-93407600D02*
X252818200Y-94054800D01*
X252250200Y-92780300D02*
X252556200Y-93407600D01*
X251901200Y-92175800D02*
X252250200Y-92780300D01*
X251511200Y-91597100D02*
X251901200Y-92175800D01*
X251081200Y-91047100D02*
X251511200Y-91597100D01*
X250614200Y-90528400D02*
X251081200Y-91047100D01*
X250112200Y-90043500D02*
X250614200Y-90528400D01*
X238112500Y-79043500D02*
X250112200Y-90043500D01*
X237577800Y-78594900D02*
X238112500Y-79043500D01*
X237013100Y-78184600D02*
X237577800Y-78594900D01*
X236421200Y-77814800D02*
X237013100Y-78184600D01*
X235804900Y-77487100D02*
X236421200Y-77814800D01*
X235167300Y-77203160D02*
X235804900Y-77487100D01*
X234511400Y-76964440D02*
X235167300Y-77203160D01*
X233840400Y-76772040D02*
X234511400Y-76964440D01*
X233157700Y-76626930D02*
X233840400Y-76772040D01*
X227921200Y-75613340D02*
X233157700Y-76626930D01*
X227921200Y-78844000D02*
X227921200Y-75613340D01*
X228115200Y-78703100D02*
X227921200Y-78844000D01*
X228379700Y-78481100D02*
X228115200Y-78703100D01*
X229770200Y-78481100D02*
X228379700Y-78481100D01*
X230466500Y-78529800D02*
X229770200Y-78481100D01*
X231157700Y-78626900D02*
X230466500Y-78529800D01*
X231840400Y-78772000D02*
X231157700Y-78626900D01*
X232511400Y-78964400D02*
X231840400Y-78772000D01*
X233167300Y-79203200D02*
X232511400Y-78964400D01*
X233804900Y-79487100D02*
X233167300Y-79203200D01*
X234421200Y-79814800D02*
X233804900Y-79487100D01*
X235013100Y-80184600D02*
X234421200Y-79814800D01*
X235577800Y-80594900D02*
X235013100Y-80184600D01*
X236112500Y-81043500D02*
X235577800Y-80594900D01*
X248112200Y-92043500D02*
X236112500Y-81043500D01*
X248614200Y-92528400D02*
X248112200Y-92043500D01*
X249081200Y-93047100D02*
X248614200Y-92528400D01*
X249511200Y-93597100D02*
X249081200Y-93047100D01*
X249901200Y-94175800D02*
X249511200Y-93597100D01*
X250250200Y-94780300D02*
X249901200Y-94175800D01*
X250556200Y-95407600D02*
X250250200Y-94780300D01*
X250818200Y-96054800D02*
X250556200Y-95407600D01*
X251034200Y-96718600D02*
X250818200Y-96054800D01*
X251202200Y-97395900D02*
X251034200Y-96718600D01*
X251324200Y-98083300D02*
X251202200Y-97395900D01*
X254188200Y-116226500D02*
X251324200Y-98083300D01*
X254105200Y-116307000D02*
X254188200Y-116226500D01*
X253825200Y-116618300D02*
X254105200Y-116307000D01*
X253567200Y-116948300D02*
X253825200Y-116618300D01*
X253549200Y-116975000D02*
X253567200Y-116948300D01*
X103921200Y-78844000D02*
X103727200Y-78703100D01*
X103921200Y-74258390D02*
X103921200Y-78844000D01*
X88250000Y-71225000D02*
X103921200Y-74258390D01*
X74592400Y-71225000D02*
X88250000Y-71225000D01*
X58921200Y-74258390D02*
X74592400Y-71225000D01*
X58921200Y-78844000D02*
X58921200Y-74258390D01*
X59115200Y-78703100D02*
X58921200Y-78844000D01*
X59379700Y-78481100D02*
X59115200Y-78703100D01*
X68302800Y-78481100D02*
X59379700Y-78481100D01*
X71570600Y-75866830D02*
X68302800Y-78481100D01*
X72474100Y-75210410D02*
X71570600Y-75866830D01*
X73421200Y-74618600D02*
X72474100Y-75210410D01*
X74407300Y-74094310D02*
X73421200Y-74618600D01*
X75427500Y-73640070D02*
X74407300Y-74094310D01*
X76476900Y-73258100D02*
X75427500Y-73640070D01*
X76592400Y-73225000D02*
X76476900Y-73258100D01*
X86250000Y-73225000D02*
X76592400Y-73225000D01*
X86365500Y-73258100D02*
X86250000Y-73225000D01*
X87414900Y-73640070D02*
X86365500Y-73258100D01*
X88435100Y-74094310D02*
X87414900Y-73640070D01*
X89421200Y-74618600D02*
X88435100Y-74094310D01*
X90368300Y-75210410D02*
X89421200Y-74618600D01*
X91271800Y-75866830D02*
X90368300Y-75210410D01*
X94539600Y-78481100D02*
X91271800Y-75866830D01*
X103462700Y-78481100D02*
X94539600Y-78481100D01*
X103727200Y-78703100D02*
X103462700Y-78481100D01*
X220921200Y-78844000D02*
X220727200Y-78703100D01*
X220921200Y-74258390D02*
X220921200Y-78844000D01*
X205250000Y-71225000D02*
X220921200Y-74258390D01*
X191592400Y-71225000D02*
X205250000Y-71225000D01*
X175921200Y-74258390D02*
X191592400Y-71225000D01*
X175921200Y-78844000D02*
X175921200Y-74258390D01*
X176115200Y-78703100D02*
X175921200Y-78844000D01*
X176379700Y-78481100D02*
X176115200Y-78703100D01*
X185302800Y-78481100D02*
X176379700Y-78481100D01*
X188570600Y-75866830D02*
X185302800Y-78481100D01*
X189474100Y-75210410D02*
X188570600Y-75866830D01*
X190421200Y-74618600D02*
X189474100Y-75210410D01*
X191407300Y-74094310D02*
X190421200Y-74618600D01*
X192427500Y-73640070D02*
X191407300Y-74094310D01*
X193476900Y-73258100D02*
X192427500Y-73640070D01*
X193592400Y-73225000D02*
X193476900Y-73258100D01*
X203250000Y-73225000D02*
X193592400Y-73225000D01*
X203365500Y-73258100D02*
X203250000Y-73225000D01*
X204414900Y-73640070D02*
X203365500Y-73258100D01*
X205435100Y-74094310D02*
X204414900Y-73640070D01*
X206421200Y-74618600D02*
X205435100Y-74094310D01*
X207368300Y-75210410D02*
X206421200Y-74618600D01*
X208271800Y-75866830D02*
X207368300Y-75210410D01*
X211539600Y-78481100D02*
X208271800Y-75866830D01*
X220462700Y-78481100D02*
X211539600Y-78481100D01*
X220727200Y-78703100D02*
X220462700Y-78481100D01*
X37997200Y-74964940D02*
X36845200Y-74964940D01*
X39146200Y-74884610D02*
X37997200Y-74964940D01*
X40286200Y-74724310D02*
X39146200Y-74884610D01*
X41412900Y-74484870D02*
X40286200Y-74724310D01*
X42520000Y-74167430D02*
X41412900Y-74484870D01*
X43602200Y-73773520D02*
X42520000Y-74167430D01*
X44654300Y-73305090D02*
X43602200Y-73773520D01*
X45671200Y-72764410D02*
X44654300Y-73305090D01*
X46647900Y-72154110D02*
X45671200Y-72764410D01*
X47579600Y-71477170D02*
X46647900Y-72154110D01*
X48461800Y-70736890D02*
X47579600Y-71477170D01*
X49290300Y-69936850D02*
X48461800Y-70736890D01*
X50060900Y-69080990D02*
X49290300Y-69936850D01*
X50770000Y-68173456D02*
X50060900Y-69080990D01*
X51414000Y-67218668D02*
X50770000Y-68173456D01*
X51989800Y-66221280D02*
X51414000Y-67218668D01*
X52494700Y-65186150D02*
X51989800Y-66221280D01*
X52926100Y-64118330D02*
X52494700Y-65186150D01*
X53282000Y-63023000D02*
X52926100Y-64118330D01*
X53560600Y-61905540D02*
X53282000Y-63023000D01*
X53760600Y-60771340D02*
X53560600Y-61905540D01*
X53818000Y-60225000D02*
X53760600Y-60771340D01*
X53773300Y-60225000D02*
X53818000Y-60225000D01*
X53766900Y-60199350D02*
X53773300Y-60225000D01*
X53745400Y-60132970D02*
X53766900Y-60199350D01*
X53719200Y-60068260D02*
X53745400Y-60132970D01*
X53688600Y-60005520D02*
X53719200Y-60068260D01*
X53653700Y-59945080D02*
X53688600Y-60005520D01*
X53614700Y-59887200D02*
X53653700Y-59945080D01*
X53571700Y-59832210D02*
X53614700Y-59887200D01*
X53525000Y-59780330D02*
X53571700Y-59832210D01*
X53474800Y-59731850D02*
X53525000Y-59780330D01*
X53421400Y-59686980D02*
X53474800Y-59731850D01*
X53364900Y-59645960D02*
X53421400Y-59686980D01*
X53305700Y-59608970D02*
X53364900Y-59645960D01*
X53244100Y-59576200D02*
X53305700Y-59608970D01*
X53180300Y-59547810D02*
X53244100Y-59576200D01*
X53114700Y-59523930D02*
X53180300Y-59547810D01*
X53047600Y-59504690D02*
X53114700Y-59523930D01*
X52979300Y-59490180D02*
X53047600Y-59504690D01*
X52910200Y-59480480D02*
X52979300Y-59490180D01*
X52840600Y-59475600D02*
X52910200Y-59480480D01*
X52770800Y-59475600D02*
X52840600Y-59475600D01*
X52701200Y-59480480D02*
X52770800Y-59475600D01*
X52632100Y-59490180D02*
X52701200Y-59480480D01*
X52563800Y-59504690D02*
X52632100Y-59490180D01*
X52496700Y-59523930D02*
X52563800Y-59504690D01*
X52431100Y-59547810D02*
X52496700Y-59523930D01*
X52367300Y-59576200D02*
X52431100Y-59547810D01*
X52305700Y-59608970D02*
X52367300Y-59576200D01*
X52246500Y-59645960D02*
X52305700Y-59608970D01*
X52190000Y-59686980D02*
X52246500Y-59645960D01*
X52136600Y-59731850D02*
X52190000Y-59686980D01*
X52086400Y-59780330D02*
X52136600Y-59731850D01*
X52039700Y-59832210D02*
X52086400Y-59780330D01*
X51996700Y-59887200D02*
X52039700Y-59832210D01*
X48684700Y45373000D02*
X48002000Y45228000D01*
X23654200Y9773500D02*
X26518200Y27916700D01*
X113466500Y45470000D02*
X112770200Y45519000D01*
X76592400Y50775000D02*
X76476900Y50742000D01*
X237368300Y-153739600D02*
X238271800Y-153083200D01*
X236964000Y-153992200D02*
X237368300Y-153739600D01*
X236365500Y-154879600D02*
X236964000Y-153992200D01*
X235677900Y-155759600D02*
X236365500Y-154879600D01*
X234930600Y-156589500D02*
X235677900Y-155759600D01*
X234127300Y-157365300D02*
X234930600Y-156589500D01*
X233271800Y-158083200D02*
X234127300Y-157365300D01*
X232368300Y-158739600D02*
X233271800Y-158083200D01*
X231421200Y-159331400D02*
X232368300Y-158739600D01*
X230435100Y-159855700D02*
X231421200Y-159331400D01*
X229414900Y-160309900D02*
X230435100Y-159855700D01*
X228533200Y-160630800D02*
X229414900Y-160309900D01*
X228365500Y-160879600D02*
X228533200Y-160630800D01*
X226594400Y-163305000D02*
X228365500Y-160879600D01*
X226294600Y-163391000D02*
X226594400Y-163305000D01*
X225737000Y-163593900D02*
X226294600Y-163391000D01*
X225195000Y-163835200D02*
X225737000Y-163593900D01*
X224671200Y-164113800D02*
X225195000Y-163835200D01*
X224571800Y-164175900D02*
X224671200Y-164113800D01*
X111453000Y-168057000D02*
X107571800Y-164175900D01*
X134930630Y-143589500D02*
X111453000Y-168057000D01*
X135677900Y-142759600D02*
X134930630Y-143589500D01*
X136365460Y-141879600D02*
X135677900Y-142759600D01*
X136989960Y-140953700D02*
X136365460Y-141879600D01*
X137548350Y-139986500D02*
X136989960Y-140953700D01*
X138037910Y-138982800D02*
X137548350Y-139986500D01*
X138456280Y-137947300D02*
X138037910Y-138982800D01*
X138801370Y-136885200D02*
X138456280Y-137947300D01*
X139071560Y-135801600D02*
X138801370Y-136885200D01*
X139265480Y-134701800D02*
X139071560Y-135801600D01*
X139382210Y-133591100D02*
X139265480Y-134701800D01*
X139421200Y-132475000D02*
X139382210Y-133591100D01*
X139421200Y-123975000D02*
X139421200Y-132475000D01*
X136549080Y-123975000D02*
X139421200Y-123975000D01*
X136567090Y-124001700D02*
X136549080Y-123975000D01*
X136824930Y-124331700D02*
X136567090Y-124001700D01*
X137105160Y-124642900D02*
X136824930Y-124331700D01*
X137406410Y-124933900D02*
X137105160Y-124642900D01*
X137421200Y-124946300D02*
X137406410Y-124933900D01*
X137421200Y-130475000D02*
X137421200Y-124946300D01*
X137382210Y-131591100D02*
X137421200Y-130475000D01*
X137265480Y-132701800D02*
X137382210Y-131591100D01*
X137071560Y-133801600D02*
X137265480Y-132701800D01*
X136801370Y-134885200D02*
X137071560Y-133801600D01*
X136456280Y-135947300D02*
X136801370Y-134885200D01*
X136037910Y-136982800D02*
X136456280Y-135947300D01*
X135548350Y-137986500D02*
X136037910Y-136982800D01*
X134989960Y-138953700D02*
X135548350Y-137986500D01*
X134365460Y-139879600D02*
X134989960Y-138953700D01*
X133677900Y-140759600D02*
X134365460Y-139879600D01*
X132930630Y-141589500D02*
X133677900Y-140759600D01*
X122930600Y-151589500D02*
X132930630Y-141589500D01*
X122127300Y-152365300D02*
X122930600Y-151589500D01*
X121271800Y-153083200D02*
X122127300Y-152365300D01*
X120368300Y-153739600D02*
X121271800Y-153083200D01*
X119964000Y-153992200D02*
X120368300Y-153739600D01*
X119365500Y-154879600D02*
X119964000Y-153992200D01*
X118677900Y-155759600D02*
X119365500Y-154879600D01*
X117930600Y-156589500D02*
X118677900Y-155759600D01*
X117127300Y-157365300D02*
X117930600Y-156589500D01*
X116271800Y-158083200D02*
X117127300Y-157365300D01*
X115368300Y-158739600D02*
X116271800Y-158083200D01*
X114421200Y-159331400D02*
X115368300Y-158739600D01*
X113435100Y-159855700D02*
X114421200Y-159331400D01*
X112414900Y-160309900D02*
X113435100Y-159855700D01*
X111533200Y-160630800D02*
X112414900Y-160309900D01*
X111365500Y-160879600D02*
X111533200Y-160630800D01*
X109594400Y-163305000D02*
X111365500Y-160879600D01*
X109294600Y-163391000D02*
X109594400Y-163305000D01*
X108737000Y-163593900D02*
X109294600Y-163391000D01*
X108195000Y-163835200D02*
X108737000Y-163593900D01*
X107671200Y-164113800D02*
X108195000Y-163835200D01*
X107571800Y-164175900D02*
X107671200Y-164113800D01*
X167956200Y-167490000D02*
X144911770Y-143589500D01*
X171622400Y-163824100D02*
X167956200Y-167490000D01*
X171105400Y-163593900D02*
X171622400Y-163824100D01*
X170547800Y-163391000D02*
X171105400Y-163593900D01*
X170497200Y-163376500D02*
X170547800Y-163391000D01*
X169164500Y-161759600D02*
X170497200Y-163376500D01*
X168476900Y-160879600D02*
X169164500Y-161759600D01*
X168309200Y-160630800D02*
X168476900Y-160879600D01*
X167427500Y-160309900D02*
X168309200Y-160630800D01*
X166407300Y-159855700D02*
X167427500Y-160309900D01*
X165421200Y-159331400D02*
X166407300Y-159855700D01*
X164474100Y-158739600D02*
X165421200Y-159331400D01*
X163570600Y-158083200D02*
X164474100Y-158739600D01*
X162715100Y-157365300D02*
X163570600Y-158083200D01*
X161911800Y-156589500D02*
X162715100Y-157365300D01*
X161164500Y-155759600D02*
X161911800Y-156589500D01*
X160476900Y-154879600D02*
X161164500Y-155759600D01*
X159878400Y-153992200D02*
X160476900Y-154879600D01*
X159474100Y-153739600D02*
X159878400Y-153992200D01*
X158570600Y-153083200D02*
X159474100Y-153739600D01*
X157715100Y-152365300D02*
X158570600Y-153083200D01*
X156911800Y-151589500D02*
X157715100Y-152365300D01*
X146911770Y-141589500D02*
X156911800Y-151589500D01*
X146164500Y-140759600D02*
X146911770Y-141589500D01*
X145476940Y-139879600D02*
X146164500Y-140759600D01*
X144852440Y-138953700D02*
X145476940Y-139879600D01*
X144294050Y-137986500D02*
X144852440Y-138953700D01*
X143804490Y-136982800D02*
X144294050Y-137986500D01*
X143386120Y-135947300D02*
X143804490Y-136982800D01*
X143041030Y-134885200D02*
X143386120Y-135947300D01*
X142770840Y-133801600D02*
X143041030Y-134885200D01*
X142576920Y-132701800D02*
X142770840Y-133801600D01*
X142460190Y-131591100D02*
X142576920Y-132701800D01*
X142421200Y-130475000D02*
X142460190Y-131591100D01*
X142421200Y-124946300D02*
X142421200Y-130475000D01*
X142435990Y-124933900D02*
X142421200Y-124946300D01*
X142737240Y-124642900D02*
X142435990Y-124933900D01*
X143017470Y-124331700D02*
X142737240Y-124642900D01*
X143275310Y-124001700D02*
X143017470Y-124331700D01*
X143293320Y-123975000D02*
X143275310Y-124001700D01*
X140421200Y-123975000D02*
X143293320Y-123975000D01*
X140421200Y-132475000D02*
X140421200Y-123975000D01*
X140460186Y-133591100D02*
X140421200Y-132475000D01*
X140576916Y-134701800D02*
X140460186Y-133591100D01*
X140770840Y-135801600D02*
X140576916Y-134701800D01*
X141041027Y-136885200D02*
X140770840Y-135801600D01*
X141386120Y-137947300D02*
X141041027Y-136885200D01*
X141804490Y-138982800D02*
X141386120Y-137947300D01*
X142294050Y-139986500D02*
X141804490Y-138982800D01*
X142852440Y-140953700D02*
X142294050Y-139986500D01*
X143476940Y-141879600D02*
X142852440Y-140953700D01*
X144164500Y-142759600D02*
X143476940Y-141879600D01*
X144911770Y-143589500D02*
X144164500Y-142759600D01*
X50956200Y-167490000D02*
X27912200Y-143589500D01*
X54622400Y-163824100D02*
X50956200Y-167490000D01*
X54105400Y-163593900D02*
X54622400Y-163824100D01*
X53547800Y-163391000D02*
X54105400Y-163593900D01*
X53497200Y-163376500D02*
X53547800Y-163391000D01*
X52164500Y-161759600D02*
X53497200Y-163376500D01*
X51476900Y-160879600D02*
X52164500Y-161759600D01*
X51309200Y-160630800D02*
X51476900Y-160879600D01*
X50427500Y-160309900D02*
X51309200Y-160630800D01*
X49407300Y-159855700D02*
X50427500Y-160309900D01*
X48421200Y-159331400D02*
X49407300Y-159855700D01*
X47474100Y-158739600D02*
X48421200Y-159331400D01*
X46570600Y-158083200D02*
X47474100Y-158739600D01*
X45715100Y-157365300D02*
X46570600Y-158083200D01*
X44911800Y-156589500D02*
X45715100Y-157365300D01*
X44164500Y-155759600D02*
X44911800Y-156589500D01*
X43476900Y-154879600D02*
X44164500Y-155759600D01*
X42878400Y-153992200D02*
X43476900Y-154879600D01*
X42474100Y-153739600D02*
X42878400Y-153992200D01*
X41570600Y-153083200D02*
X42474100Y-153739600D01*
X40715100Y-152365300D02*
X41570600Y-153083200D01*
X39912200Y-151589500D02*
X40715100Y-152365300D01*
X29912200Y-141589500D02*
X39912200Y-151589500D01*
X29164200Y-140759600D02*
X29912200Y-141589500D01*
X28477200Y-139879600D02*
X29164200Y-140759600D01*
X27852200Y-138953700D02*
X28477200Y-139879600D01*
X27294200Y-137986500D02*
X27852200Y-138953700D01*
X26804200Y-136982800D02*
X27294200Y-137986500D01*
X26386200Y-135947300D02*
X26804200Y-136982800D01*
X26041200Y-134885200D02*
X26386200Y-135947300D01*
X25771200Y-133801600D02*
X26041200Y-134885200D01*
X25577200Y-132701800D02*
X25771200Y-133801600D01*
X25460200Y-131591100D02*
X25577200Y-132701800D01*
X25421200Y-130475000D02*
X25460200Y-131591100D01*
X25421200Y-124946300D02*
X25421200Y-130475000D01*
X25436200Y-124933900D02*
X25421200Y-124946300D01*
X25737200Y-124642900D02*
X25436200Y-124933900D01*
X26017200Y-124331700D02*
X25737200Y-124642900D01*
X26275200Y-124001700D02*
X26017200Y-124331700D01*
X26293200Y-123975000D02*
X26275200Y-124001700D01*
X23421200Y-123975000D02*
X26293200Y-123975000D01*
X23421200Y-132475000D02*
X23421200Y-123975000D01*
X23460200Y-133591100D02*
X23421200Y-132475000D01*
X23577200Y-134701800D02*
X23460200Y-133591100D01*
X23771200Y-135801600D02*
X23577200Y-134701800D01*
X24041200Y-136885200D02*
X23771200Y-135801600D01*
X24386200Y-137947300D02*
X24041200Y-136885200D01*
X24804200Y-138982800D02*
X24386200Y-137947300D01*
X25294200Y-139986500D02*
X24804200Y-138982800D01*
X25852200Y-140953700D02*
X25294200Y-139986500D01*
X26477200Y-141879600D02*
X25852200Y-140953700D01*
X27164200Y-142759600D02*
X26477200Y-141879600D01*
X27912200Y-143589500D02*
X27164200Y-142759600D01*
X219921200Y-123475000D02*
X206921200Y-123475000D01*
X220384700Y-123401600D02*
X219921200Y-123475000D01*
X220802900Y-123188500D02*
X220384700Y-123401600D01*
X221134700Y-122856700D02*
X220802900Y-123188500D01*
X221347800Y-122438500D02*
X221134700Y-122856700D01*
X221421200Y-121975000D02*
X221347800Y-122438500D01*
X221347800Y-121511500D02*
X221421200Y-121975000D01*
X221134700Y-121093300D02*
X221347800Y-121511500D01*
X220802900Y-120761500D02*
X221134700Y-121093300D01*
X220384700Y-120548400D02*
X220802900Y-120761500D01*
X219921200Y-120475000D02*
X220384700Y-120548400D01*
X206921200Y-120475000D02*
X219921200Y-120475000D01*
X206457700Y-120548400D02*
X206921200Y-120475000D01*
X206039500Y-120761500D02*
X206457700Y-120548400D01*
X205707700Y-121093300D02*
X206039500Y-120761500D01*
X205494600Y-121511500D02*
X205707700Y-121093300D01*
X205421200Y-121975000D02*
X205494600Y-121511500D01*
X205494600Y-122438500D02*
X205421200Y-121975000D01*
X205707700Y-122856700D02*
X205494600Y-122438500D01*
X206039500Y-123188500D02*
X205707700Y-122856700D01*
X206457700Y-123401600D02*
X206039500Y-123188500D01*
X206921200Y-123475000D02*
X206457700Y-123401600D01*
X102921200Y-123475000D02*
X89921200Y-123475000D01*
X103384700Y-123401600D02*
X102921200Y-123475000D01*
X103802900Y-123188500D02*
X103384700Y-123401600D01*
X104134700Y-122856700D02*
X103802900Y-123188500D01*
X104347800Y-122438500D02*
X104134700Y-122856700D01*
X104421200Y-121975000D02*
X104347800Y-122438500D01*
X104347800Y-121511500D02*
X104421200Y-121975000D01*
X104134700Y-121093300D02*
X104347800Y-121511500D01*
X103802900Y-120761500D02*
X104134700Y-121093300D01*
X103384700Y-120548400D02*
X103802900Y-120761500D01*
X102921200Y-120475000D02*
X103384700Y-120548400D01*
X89921200Y-120475000D02*
X102921200Y-120475000D01*
X89457700Y-120548400D02*
X89921200Y-120475000D01*
X89039500Y-120761500D02*
X89457700Y-120548400D01*
X88707700Y-121093300D02*
X89039500Y-120761500D01*
X88494600Y-121511500D02*
X88707700Y-121093300D01*
X88421200Y-121975000D02*
X88494600Y-121511500D01*
X88494600Y-122438500D02*
X88421200Y-121975000D01*
X88707700Y-122856700D02*
X88494600Y-122438500D01*
X89039500Y-123188500D02*
X88707700Y-122856700D01*
X89457700Y-123401600D02*
X89039500Y-123188500D01*
X89921200Y-123475000D02*
X89457700Y-123401600D01*
X149405960Y-106898700D02*
X149031030Y-106879100D01*
X149768610Y-106801600D02*
X149405960Y-106898700D01*
X150083480Y-106597100D02*
X149768610Y-106801600D01*
X168364800Y-90136500D02*
X150083480Y-106597100D01*
X168601100Y-89844700D02*
X168364800Y-90136500D01*
X168735700Y-89494200D02*
X168601100Y-89844700D01*
X168755300Y-89119300D02*
X168735700Y-89494200D01*
X168658100Y-88756600D02*
X168755300Y-89119300D01*
X168453700Y-88441700D02*
X168658100Y-88756600D01*
X168161900Y-88205500D02*
X168453700Y-88441700D01*
X167811400Y-88070900D02*
X168161900Y-88205500D01*
X167436500Y-88051300D02*
X167811400Y-88070900D01*
X167073800Y-88148400D02*
X167436500Y-88051300D01*
X166758900Y-88352900D02*
X167073800Y-88148400D01*
X148477570Y-104813500D02*
X166758900Y-88352900D01*
X148241300Y-105105300D02*
X148477570Y-104813500D01*
X148106750Y-105455800D02*
X148241300Y-105105300D01*
X148087090Y-105830700D02*
X148106750Y-105455800D01*
X148184280Y-106193400D02*
X148087090Y-105830700D01*
X148388760Y-106508200D02*
X148184280Y-106193400D01*
X148680520Y-106744500D02*
X148388760Y-106508200D01*
X149031030Y-106879100D02*
X148680520Y-106744500D01*
X32406200Y-106898700D02*
X32031200Y-106879100D01*
X32768200Y-106801600D02*
X32406200Y-106898700D01*
X33083200Y-106597100D02*
X32768200Y-106801600D01*
X51364800Y-90136500D02*
X33083200Y-106597100D01*
X51601100Y-89844700D02*
X51364800Y-90136500D01*
X51735700Y-89494200D02*
X51601100Y-89844700D01*
X51755300Y-89119300D02*
X51735700Y-89494200D01*
X51658100Y-88756600D02*
X51755300Y-89119300D01*
X51453700Y-88441700D02*
X51658100Y-88756600D01*
X51161900Y-88205500D02*
X51453700Y-88441700D01*
X50811400Y-88070900D02*
X51161900Y-88205500D01*
X50436500Y-88051300D02*
X50811400Y-88070900D01*
X50073800Y-88148400D02*
X50436500Y-88051300D01*
X49758900Y-88352900D02*
X50073800Y-88148400D01*
X31477200Y-104813500D02*
X49758900Y-88352900D01*
X31241200Y-105105300D02*
X31477200Y-104813500D01*
X31107200Y-105455800D02*
X31241200Y-105105300D01*
X31087200Y-105830700D02*
X31107200Y-105455800D01*
X31184200Y-106193400D02*
X31087200Y-105830700D01*
X31389200Y-106508200D02*
X31184200Y-106193400D01*
X31680200Y-106744500D02*
X31389200Y-106508200D01*
X32031200Y-106879100D02*
X31680200Y-106744500D01*
X130436440Y-106898700D02*
X130073800Y-106801600D01*
X130811370Y-106879100D02*
X130436440Y-106898700D01*
X131161880Y-106744500D02*
X130811370Y-106879100D01*
X131453640Y-106508200D02*
X131161880Y-106744500D01*
X131658120Y-106193400D02*
X131453640Y-106508200D01*
X131755310Y-105830700D02*
X131658120Y-106193400D01*
X131735650Y-105455800D02*
X131755310Y-105830700D01*
X131601100Y-105105300D02*
X131735650Y-105455800D01*
X131364830Y-104813500D02*
X131601100Y-105105300D01*
X113083500Y-88352900D02*
X131364830Y-104813500D01*
X112768600Y-88148400D02*
X113083500Y-88352900D01*
X112405900Y-88051300D02*
X112768600Y-88148400D01*
X112031000Y-88070900D02*
X112405900Y-88051300D01*
X111680500Y-88205500D02*
X112031000Y-88070900D01*
X111388700Y-88441700D02*
X111680500Y-88205500D01*
X111184300Y-88756600D02*
X111388700Y-88441700D01*
X111087100Y-89119300D02*
X111184300Y-88756600D01*
X111106700Y-89494200D02*
X111087100Y-89119300D01*
X111241300Y-89844700D02*
X111106700Y-89494200D01*
X111477600Y-90136500D02*
X111241300Y-89844700D01*
X129758900Y-106597100D02*
X111477600Y-90136500D01*
X130073800Y-106801600D02*
X129758900Y-106597100D01*
X247436200Y-106898700D02*
X247074200Y-106801600D01*
X247811200Y-106879100D02*
X247436200Y-106898700D01*
X248162200Y-106744500D02*
X247811200Y-106879100D01*
X248453200Y-106508200D02*
X248162200Y-106744500D01*
X248658200Y-106193400D02*
X248453200Y-106508200D01*
X248755200Y-105830700D02*
X248658200Y-106193400D01*
X248735200Y-105455800D02*
X248755200Y-105830700D01*
X248601200Y-105105300D02*
X248735200Y-105455800D01*
X248365200Y-104813500D02*
X248601200Y-105105300D01*
X230083500Y-88352900D02*
X248365200Y-104813500D01*
X229768600Y-88148400D02*
X230083500Y-88352900D01*
X229405900Y-88051300D02*
X229768600Y-88148400D01*
X229031000Y-88070900D02*
X229405900Y-88051300D01*
X228680500Y-88205500D02*
X229031000Y-88070900D01*
X228388700Y-88441700D02*
X228680500Y-88205500D01*
X228184300Y-88756600D02*
X228388700Y-88441700D01*
X228087100Y-89119300D02*
X228184300Y-88756600D01*
X228106700Y-89494200D02*
X228087100Y-89119300D01*
X228241300Y-89844700D02*
X228106700Y-89494200D01*
X228477600Y-90136500D02*
X228241300Y-89844700D01*
X246759200Y-106597100D02*
X228477600Y-90136500D01*
X247074200Y-106801600D02*
X246759200Y-106597100D01*
X149405960Y-100898700D02*
X149031030Y-100879100D01*
X149768610Y-100801600D02*
X149405960Y-100898700D01*
X150083480Y-100597100D02*
X149768610Y-100801600D01*
X168364800Y-84136500D02*
X150083480Y-100597100D01*
X168601100Y-83844700D02*
X168364800Y-84136500D01*
X168735700Y-83494200D02*
X168601100Y-83844700D01*
X168755300Y-83119300D02*
X168735700Y-83494200D01*
X168658100Y-82756600D02*
X168755300Y-83119300D01*
X168453700Y-82441700D02*
X168658100Y-82756600D01*
X168161900Y-82205500D02*
X168453700Y-82441700D01*
X167811400Y-82070900D02*
X168161900Y-82205500D01*
X167436500Y-82051300D02*
X167811400Y-82070900D01*
X167073800Y-82148400D02*
X167436500Y-82051300D01*
X166758900Y-82352900D02*
X167073800Y-82148400D01*
X148477570Y-98813500D02*
X166758900Y-82352900D01*
X148241300Y-99105300D02*
X148477570Y-98813500D01*
X148106750Y-99455800D02*
X148241300Y-99105300D01*
X148087090Y-99830700D02*
X148106750Y-99455800D01*
X148184280Y-100193400D02*
X148087090Y-99830700D01*
X148388760Y-100508200D02*
X148184280Y-100193400D01*
X148680520Y-100744500D02*
X148388760Y-100508200D01*
X149031030Y-100879100D02*
X148680520Y-100744500D01*
X247436200Y-100898700D02*
X247074200Y-100801600D01*
X247811200Y-100879100D02*
X247436200Y-100898700D01*
X248162200Y-100744500D02*
X247811200Y-100879100D01*
X248453200Y-100508200D02*
X248162200Y-100744500D01*
X248658200Y-100193400D02*
X248453200Y-100508200D01*
X248755200Y-99830700D02*
X248658200Y-100193400D01*
X248735200Y-99455800D02*
X248755200Y-99830700D01*
X248601200Y-99105300D02*
X248735200Y-99455800D01*
X248365200Y-98813500D02*
X248601200Y-99105300D01*
X230083500Y-82352900D02*
X248365200Y-98813500D01*
X229768600Y-82148400D02*
X230083500Y-82352900D01*
X229405900Y-82051300D02*
X229768600Y-82148400D01*
X229031000Y-82070900D02*
X229405900Y-82051300D01*
X228680500Y-82205500D02*
X229031000Y-82070900D01*
X228388700Y-82441700D02*
X228680500Y-82205500D01*
X228184300Y-82756600D02*
X228388700Y-82441700D01*
X228087100Y-83119300D02*
X228184300Y-82756600D01*
X228106700Y-83494200D02*
X228087100Y-83119300D01*
X228241300Y-83844700D02*
X228106700Y-83494200D01*
X228477600Y-84136500D02*
X228241300Y-83844700D01*
X246759200Y-100597100D02*
X228477600Y-84136500D01*
X247074200Y-100801600D02*
X246759200Y-100597100D01*
X32406200Y-100898700D02*
X32031200Y-100879100D01*
X32768200Y-100801600D02*
X32406200Y-100898700D01*
X33083200Y-100597100D02*
X32768200Y-100801600D01*
X51364800Y-84136500D02*
X33083200Y-100597100D01*
X51601100Y-83844700D02*
X51364800Y-84136500D01*
X51735700Y-83494200D02*
X51601100Y-83844700D01*
X51755300Y-83119300D02*
X51735700Y-83494200D01*
X51658100Y-82756600D02*
X51755300Y-83119300D01*
X220462700Y45519000D02*
X211539600Y45519000D01*
X133250670Y29219700D02*
X132901670Y29824200D01*
X205435100Y49906000D02*
X204414900Y50360000D01*
X76476900Y50742000D02*
X75427500Y50360000D01*
X220727200Y45297000D02*
X220462700Y45519000D01*
X114840400Y45228000D02*
X114157700Y45373000D01*
X116804900Y44513000D02*
X116167300Y44797000D01*
X103921200Y49742000D02*
X103921200Y45156000D01*
X203365500Y50742000D02*
X203250000Y50775000D01*
X206421200Y49381000D02*
X205435100Y49906000D01*
X116167300Y44797000D02*
X115511400Y45036000D01*
X132511360Y30402900D02*
X132081630Y30952900D01*
X204414900Y50360000D02*
X203365500Y50742000D01*
X146227810Y33472000D02*
X146729900Y33956000D01*
X145760770Y32953000D02*
X146227810Y33472000D01*
X175921200Y49742000D02*
X191592400Y52775000D01*
X235167300Y46797000D02*
X235804900Y46513000D01*
X234511400Y47036000D02*
X235167300Y46797000D01*
X233840400Y47228000D02*
X234511400Y47036000D01*
X233157700Y47373000D02*
X233840400Y47228000D01*
X112770200Y45519000D02*
X111379700Y45519000D01*
X193592400Y50775000D02*
X193476900Y50742000D01*
X120577800Y45405000D02*
X121112500Y44956000D01*
X120013100Y45815000D02*
X120577800Y45405000D01*
X103727200Y45297000D02*
X103462700Y45519000D01*
X248453200Y23491800D02*
X248162200Y23255500D01*
X248658200Y23806600D02*
X248453200Y23491800D01*
X248755200Y24169300D02*
X248658200Y23806600D01*
X248735200Y24544200D02*
X248755200Y24169300D01*
X248601200Y24894700D02*
X248735200Y24544200D01*
X248365200Y25186500D02*
X248601200Y24894700D01*
X251901200Y31824200D02*
X252250200Y31219700D01*
X251511200Y32402900D02*
X251901200Y31824200D01*
X251081200Y32953000D02*
X251511200Y32402900D01*
X250614200Y33472000D02*
X251081200Y32953000D01*
X250112200Y33956000D02*
X250614200Y33472000D01*
X243997200Y-194965000D02*
X242845200Y-194965000D01*
X245146200Y-194885000D02*
X243997200Y-194965000D01*
X246286200Y-194724000D02*
X245146200Y-194885000D01*
X247413200Y-194485000D02*
X246286200Y-194724000D01*
X248520200Y-194167000D02*
X247413200Y-194485000D01*
X249602200Y-193774000D02*
X248520200Y-194167000D01*
X250654200Y-193305000D02*
X249602200Y-193774000D01*
X251671200Y-192764000D02*
X250654200Y-193305000D01*
X252648200Y-192154000D02*
X251671200Y-192764000D01*
X253579200Y-191477000D02*
X252648200Y-192154000D01*
X254462200Y-190737000D02*
X253579200Y-191477000D01*
X255290200Y-189937000D02*
X254462200Y-190737000D01*
X256061200Y-189081000D02*
X255290200Y-189937000D01*
X256770200Y-188173000D02*
X256061200Y-189081000D01*
X257414200Y-187219000D02*
X256770200Y-188173000D01*
X257990200Y-186221000D02*
X257414200Y-187219000D01*
X258494200Y-185186000D02*
X257990200Y-186221000D01*
X258926200Y-184118000D02*
X258494200Y-185186000D01*
X259282200Y-183023000D02*
X258926200Y-184118000D01*
X259560200Y-181906000D02*
X259282200Y-183023000D01*
X259760200Y-180771000D02*
X259560200Y-181906000D01*
X259818200Y-180225000D02*
X259760200Y-180771000D01*
X259773200Y-180225000D02*
X259818200Y-180225000D01*
X259767200Y-180199000D02*
X259773200Y-180225000D01*
X259745200Y-180133000D02*
X259767200Y-180199000D01*
X259719200Y-180068000D02*
X259745200Y-180133000D01*
X259688200Y-180006000D02*
X259719200Y-180068000D01*
X259654200Y-179945000D02*
X259688200Y-180006000D01*
X259615200Y-179887000D02*
X259654200Y-179945000D01*
X259572200Y-179832000D02*
X259615200Y-179887000D01*
X259525200Y-179780000D02*
X259572200Y-179832000D01*
X259475200Y-179732000D02*
X259525200Y-179780000D01*
X259421200Y-179687000D02*
X259475200Y-179732000D01*
X259365200Y-179646000D02*
X259421200Y-179687000D01*
X259305200Y-179609000D02*
X259365200Y-179646000D01*
X259244200Y-179576000D02*
X259305200Y-179609000D01*
X259180200Y-179548000D02*
X259244200Y-179576000D01*
X259115200Y-179524000D02*
X259180200Y-179548000D01*
X259047200Y-179505000D02*
X259115200Y-179524000D01*
X258979200Y-179490000D02*
X259047200Y-179505000D01*
X258910200Y-179480000D02*
X258979200Y-179490000D01*
X258840200Y-179476000D02*
X258910200Y-179480000D01*
X258771200Y-179476000D02*
X258840200Y-179476000D01*
X258701200Y-179480000D02*
X258771200Y-179476000D01*
X258632200Y-179490000D02*
X258701200Y-179480000D01*
X258564200Y-179505000D02*
X258632200Y-179490000D01*
X258496200Y-179524000D02*
X258564200Y-179505000D01*
X258431200Y-179548000D02*
X258496200Y-179524000D01*
X258367200Y-179576000D02*
X258431200Y-179548000D01*
X258306200Y-179609000D02*
X258367200Y-179576000D01*
X258246200Y-179646000D02*
X258306200Y-179609000D01*
X258190200Y-179687000D02*
X258246200Y-179646000D01*
X258136200Y-179732000D02*
X258190200Y-179687000D01*
X258086200Y-179780000D02*
X258136200Y-179732000D01*
X258039200Y-179832000D02*
X258086200Y-179780000D01*
X257996200Y-179887000D02*
X258039200Y-179832000D01*
X257957200Y-179945000D02*
X257996200Y-179887000D01*
X257923200Y-180006000D02*
X257957200Y-179945000D01*
X257892200Y-180068000D02*
X257923200Y-180006000D01*
X257866200Y-180133000D02*
X257892200Y-180068000D01*
X257844200Y-180199000D02*
X257866200Y-180133000D01*
X257838200Y-180225000D02*
X257844200Y-180199000D01*
X257808200Y-180225000D02*
X257838200Y-180225000D01*
X257780200Y-180493000D02*
X257808200Y-180225000D01*
X257604200Y-181490000D02*
X257780200Y-180493000D01*
X257359200Y-182472000D02*
X257604200Y-181490000D01*
X257047200Y-183434000D02*
X257359200Y-182472000D01*
X256667200Y-184373000D02*
X257047200Y-183434000D01*
X256224200Y-185282000D02*
X256667200Y-184373000D01*
X255718200Y-186159000D02*
X256224200Y-185282000D01*
X255152200Y-186998000D02*
X255718200Y-186159000D01*
X254529200Y-187795000D02*
X255152200Y-186998000D01*
X253851200Y-188548000D02*
X254529200Y-187795000D01*
X253123200Y-189251000D02*
X253851200Y-188548000D01*
X252348200Y-189901000D02*
X253123200Y-189251000D01*
X251529200Y-190496000D02*
X252348200Y-189901000D01*
X250671200Y-191032000D02*
X251529200Y-190496000D01*
X249777200Y-191508000D02*
X250671200Y-191032000D01*
X248853200Y-191919000D02*
X249777200Y-191508000D01*
X247902200Y-192265000D02*
X248853200Y-191919000D01*
X246929200Y-192544000D02*
X247902200Y-192265000D01*
X245939200Y-192755000D02*
X246929200Y-192544000D01*
X244937200Y-192896000D02*
X245939200Y-192755000D01*
X243927200Y-192966000D02*
X244937200Y-192896000D01*
X242915200Y-192966000D02*
X243927200Y-192966000D01*
X241905200Y-192896000D02*
X242915200Y-192966000D01*
X240903200Y-192755000D02*
X241905200Y-192896000D01*
X239913300Y-192544000D02*
X240903200Y-192755000D01*
X238940500Y-192265000D02*
X239913300Y-192544000D01*
X237989400Y-191919000D02*
X238940500Y-192265000D01*
X237743200Y-191810000D02*
X237989400Y-191919000D01*
X237728300Y-191835000D02*
X237743200Y-191810000D01*
X237702900Y-191828000D02*
X237728300Y-191835000D01*
X237634700Y-191814000D02*
X237702900Y-191828000D01*
X237565500Y-191804000D02*
X237634700Y-191814000D01*
X237495900Y-191799000D02*
X237565500Y-191804000D01*
X237426100Y-191799000D02*
X237495900Y-191799000D01*
X237356500Y-191804000D02*
X237426100Y-191799000D01*
X237287300Y-191814000D02*
X237356500Y-191804000D01*
X237219100Y-191828000D02*
X237287300Y-191814000D01*
X237152000Y-191847000D02*
X237219100Y-191828000D01*
X237086400Y-191871000D02*
X237152000Y-191847000D01*
X237022600Y-191900000D02*
X237086400Y-191871000D01*
X236961000Y-191932000D02*
X237022600Y-191900000D01*
X236901800Y-191969000D02*
X236961000Y-191932000D01*
X236845300Y-192010000D02*
X236901800Y-191969000D01*
X236791900Y-192055000D02*
X236845300Y-192010000D01*
X236741700Y-192104000D02*
X236791900Y-192055000D01*
X236695000Y-192156000D02*
X236741700Y-192104000D01*
X236652000Y-192211000D02*
X236695000Y-192156000D01*
X236612900Y-192268000D02*
X236652000Y-192211000D01*
X236578000Y-192329000D02*
X236612900Y-192268000D01*
X236547500Y-192392000D02*
X236578000Y-192329000D01*
X236521300Y-192456000D02*
X236547500Y-192392000D01*
X236499700Y-192523000D02*
X236521300Y-192456000D01*
X236482900Y-192590000D02*
X236499700Y-192523000D01*
X236470700Y-192659000D02*
X236482900Y-192590000D01*
X236463400Y-192729000D02*
X236470700Y-192659000D01*
X236461000Y-192798000D02*
X236463400Y-192729000D01*
X236463500Y-192868000D02*
X236461000Y-192798000D01*
X236470700Y-192938000D02*
X236463500Y-192868000D01*
X236482900Y-193006000D02*
X236470700Y-192938000D01*
X236499700Y-193074000D02*
X236482900Y-193006000D01*
X236521300Y-193140000D02*
X236499700Y-193074000D01*
X236547500Y-193205000D02*
X236521300Y-193140000D01*
X236578100Y-193268000D02*
X236547500Y-193205000D01*
X236613000Y-193328000D02*
X236578100Y-193268000D01*
X236652000Y-193386000D02*
X236613000Y-193328000D01*
X236695000Y-193441000D02*
X236652000Y-193386000D01*
X236741700Y-193493000D02*
X236695000Y-193441000D01*
X236760700Y-193511000D02*
X236741700Y-193493000D01*
X236738300Y-193550000D02*
X236760700Y-193511000D01*
X237240200Y-193774000D02*
X236738300Y-193550000D01*
X238322400Y-194167000D02*
X237240200Y-193774000D01*
X239429500Y-194485000D02*
X238322400Y-194167000D01*
X240556200Y-194724000D02*
X239429500Y-194485000D01*
X241696200Y-194885000D02*
X240556200Y-194724000D01*
X242845200Y-194965000D02*
X241696200Y-194885000D01*
X37997200Y-194965000D02*
X36845200Y-194965000D01*
X39146200Y-194885000D02*
X37997200Y-194965000D01*
X40286200Y-194724000D02*
X39146200Y-194885000D01*
X41412900Y-194485000D02*
X40286200Y-194724000D01*
X42520000Y-194167000D02*
X41412900Y-194485000D01*
X43602200Y-193774000D02*
X42520000Y-194167000D01*
X44654300Y-193305000D02*
X43602200Y-193774000D01*
X45671200Y-192764000D02*
X44654300Y-193305000D01*
X46647900Y-192154000D02*
X45671200Y-192764000D01*
X47579600Y-191477000D02*
X46647900Y-192154000D01*
X48461800Y-190737000D02*
X47579600Y-191477000D01*
X49290300Y-189937000D02*
X48461800Y-190737000D01*
X50060900Y-189081000D02*
X49290300Y-189937000D01*
X50770000Y-188173000D02*
X50060900Y-189081000D01*
X51414000Y-187219000D02*
X50770000Y-188173000D01*
X51989800Y-186221000D02*
X51414000Y-187219000D01*
X52494700Y-185186000D02*
X51989800Y-186221000D01*
X52926100Y-184118000D02*
X52494700Y-185186000D01*
X53282000Y-183023000D02*
X52926100Y-184118000D01*
X53560600Y-181906000D02*
X53282000Y-183023000D01*
X53760600Y-180771000D02*
X53560600Y-181906000D01*
X53818000Y-180225000D02*
X53760600Y-180771000D01*
X53773300Y-180225000D02*
X53818000Y-180225000D01*
X53766900Y-180199000D02*
X53773300Y-180225000D01*
X53745400Y-180133000D02*
X53766900Y-180199000D01*
X53719200Y-180068000D02*
X53745400Y-180133000D01*
X53688600Y-180006000D02*
X53719200Y-180068000D01*
X53653700Y-179945000D02*
X53688600Y-180006000D01*
X53614700Y-179887000D02*
X53653700Y-179945000D01*
X53571700Y-179832000D02*
X53614700Y-179887000D01*
X53525000Y-179780000D02*
X53571700Y-179832000D01*
X53474800Y-179732000D02*
X53525000Y-179780000D01*
X53421400Y-179687000D02*
X53474800Y-179732000D01*
X53364900Y-179646000D02*
X53421400Y-179687000D01*
X53305700Y-179609000D02*
X53364900Y-179646000D01*
X53244100Y-179576000D02*
X53305700Y-179609000D01*
X53180300Y-179548000D02*
X53244100Y-179576000D01*
X53114700Y-179524000D02*
X53180300Y-179548000D01*
X53047600Y-179505000D02*
X53114700Y-179524000D01*
X52979300Y-179490000D02*
X53047600Y-179505000D01*
X52910200Y-179480000D02*
X52979300Y-179490000D01*
X52840600Y-179476000D02*
X52910200Y-179480000D01*
X52770800Y-179476000D02*
X52840600Y-179476000D01*
X52701200Y-179480000D02*
X52770800Y-179476000D01*
X52632100Y-179490000D02*
X52701200Y-179480000D01*
X52563800Y-179505000D02*
X52632100Y-179490000D01*
X52496700Y-179524000D02*
X52563800Y-179505000D01*
X52431100Y-179548000D02*
X52496700Y-179524000D01*
X52367300Y-179576000D02*
X52431100Y-179548000D01*
X52305700Y-179609000D02*
X52367300Y-179576000D01*
X52246500Y-179646000D02*
X52305700Y-179609000D01*
X52190000Y-179687000D02*
X52246500Y-179646000D01*
X52136600Y-179732000D02*
X52190000Y-179687000D01*
X52086400Y-179780000D02*
X52136600Y-179732000D01*
X52039700Y-179832000D02*
X52086400Y-179780000D01*
X51996700Y-179887000D02*
X52039700Y-179832000D01*
X51957700Y-179945000D02*
X51996700Y-179887000D01*
X51922800Y-180006000D02*
X51957700Y-179945000D01*
X51892200Y-180068000D02*
X51922800Y-180006000D01*
X51866000Y-180133000D02*
X51892200Y-180068000D01*
X51844400Y-180199000D02*
X51866000Y-180133000D01*
X51838100Y-180225000D02*
X51844400Y-180199000D01*
X51808300Y-180225000D02*
X51838100Y-180225000D01*
X51780100Y-180493000D02*
X51808300Y-180225000D01*
X51604300Y-181490000D02*
X51780100Y-180493000D01*
X51359500Y-182472000D02*
X51604300Y-181490000D01*
X51046700Y-183434000D02*
X51359500Y-182472000D01*
X50667600Y-184373000D02*
X51046700Y-183434000D01*
X50223900Y-185282000D02*
X50667600Y-184373000D01*
X49717900Y-186159000D02*
X50223900Y-185282000D01*
X49151900Y-186998000D02*
X49717900Y-186159000D01*
X48528800Y-187795000D02*
X49151900Y-186998000D01*
X47851600Y-188548000D02*
X48528800Y-187795000D01*
X47123600Y-189251000D02*
X47851600Y-188548000D01*
X46348300Y-189901000D02*
X47123600Y-189251000D01*
X45529500Y-190496000D02*
X46348300Y-189901000D01*
X44671200Y-191032000D02*
X45529500Y-190496000D01*
X43777600Y-191508000D02*
X44671200Y-191032000D01*
X42853000Y-191919000D02*
X43777600Y-191508000D01*
X41901900Y-192265000D02*
X42853000Y-191919000D01*
X40929100Y-192544000D02*
X41901900Y-192265000D01*
X39939200Y-192755000D02*
X40929100Y-192544000D01*
X38937200Y-192896000D02*
X39939200Y-192755000D01*
X37927200Y-192966000D02*
X38937200Y-192896000D01*
X36915200Y-192966000D02*
X37927200Y-192966000D01*
X176379700Y45519000D02*
X176115200Y45297000D01*
X51755300Y40881000D02*
X51735700Y40506000D01*
X51658100Y41243000D02*
X51755300Y40881000D01*
X51453700Y41558000D02*
X51658100Y41243000D01*
X51161900Y41795000D02*
X51453700Y41558000D01*
X50811400Y41929000D02*
X51161900Y41795000D01*
X50436500Y41949000D02*
X50811400Y41929000D01*
X50073800Y41852000D02*
X50436500Y41949000D01*
X49758900Y41647000D02*
X50073800Y41852000D01*
X118013100Y43815000D02*
X117421200Y44185000D01*
X46675100Y44797000D02*
X46037500Y44513000D01*
X31228200Y31471600D02*
X30761200Y30952900D01*
X51462700Y45519000D02*
X50072200Y45519000D01*
X131658120Y23806600D02*
X131453640Y23491800D01*
X131755310Y24169300D02*
X131658120Y23806600D01*
X131735650Y24544200D02*
X131755310Y24169300D01*
X131601100Y24894700D02*
X131735650Y24544200D01*
X131364830Y25186500D02*
X131601100Y24894700D01*
X113083500Y41647000D02*
X131364830Y25186500D01*
X112768600Y41852000D02*
X113083500Y41647000D01*
X112405900Y41949000D02*
X112768600Y41852000D01*
X206039500Y811500D02*
X205707700Y1143300D01*
X206457700Y598400D02*
X206039500Y811500D01*
X206921200Y525000D02*
X206457700Y598400D01*
X247436200Y17101300D02*
X247074200Y17198400D01*
X247811200Y17120900D02*
X247436200Y17101300D01*
X248162200Y17255500D02*
X247811200Y17120900D01*
X248453200Y17491800D02*
X248162200Y17255500D01*
X248658200Y17806600D02*
X248453200Y17491800D01*
X248755200Y18169300D02*
X248658200Y17806600D01*
X248735200Y18544200D02*
X248755200Y18169300D01*
X248601200Y18894700D02*
X248735200Y18544200D01*
X248365200Y19186500D02*
X248601200Y18894700D01*
X230083500Y35647000D02*
X248365200Y19186500D01*
X229768600Y35852000D02*
X230083500Y35647000D01*
X229405900Y35949000D02*
X229768600Y35852000D01*
X229031000Y35929000D02*
X229405900Y35949000D01*
X228680500Y35795000D02*
X229031000Y35929000D01*
X133556650Y28592400D02*
X133250670Y29219700D01*
X51957700Y-59945080D02*
X51996700Y-59887200D01*
X51922800Y-60005520D02*
X51957700Y-59945080D01*
X51892200Y-60068260D02*
X51922800Y-60005520D01*
X51866000Y-60132970D02*
X51892200Y-60068260D01*
X51844400Y-60199350D02*
X51866000Y-60132970D01*
X51838100Y-60225000D02*
X51844400Y-60199350D01*
X51808300Y-60225000D02*
X51838100Y-60225000D01*
X51780100Y-60493010D02*
X51808300Y-60225000D01*
X51604300Y-61489710D02*
X51780100Y-60493010D01*
X51359500Y-62471730D02*
X51604300Y-61489710D01*
X51046700Y-63434290D02*
X51359500Y-62471730D01*
X50667600Y-64372670D02*
X51046700Y-63434290D01*
X50223900Y-65282330D02*
X50667600Y-64372670D01*
X49717900Y-66158820D02*
X50223900Y-65282330D01*
X49151900Y-66997873D02*
X49717900Y-66158820D01*
X48528800Y-67795419D02*
X49151900Y-66997873D01*
X47851600Y-68547540D02*
X48528800Y-67795419D01*
X47123600Y-69250590D02*
X47851600Y-68547540D01*
X46348300Y-69901150D02*
X47123600Y-69250590D01*
X45529500Y-70496040D02*
X46348300Y-69901150D01*
X44671200Y-71032360D02*
X45529500Y-70496040D01*
X43777600Y-71507500D02*
X44671200Y-71032360D01*
X42853000Y-71919150D02*
X43777600Y-71507500D01*
X41901900Y-72265310D02*
X42853000Y-71919150D01*
X40929100Y-72544270D02*
X41901900Y-72265310D01*
X39939200Y-72754710D02*
X40929100Y-72544270D01*
X38937200Y-72895560D02*
X39939200Y-72754710D01*
X37927200Y-72966170D02*
X38937200Y-72895560D01*
X36915200Y-72966170D02*
X37927200Y-72966170D01*
X35905200Y-72895560D02*
X36915200Y-72966170D01*
X34903200Y-72754710D02*
X35905200Y-72895560D01*
X33913200Y-72544270D02*
X34903200Y-72754710D01*
X32940200Y-72265310D02*
X33913200Y-72544270D01*
X31989200Y-71919150D02*
X32940200Y-72265310D01*
X31743200Y-71809550D02*
X31989200Y-71919150D01*
X31728200Y-71835350D02*
X31743200Y-71809550D01*
X31703200Y-71828070D02*
X31728200Y-71835350D01*
X31634200Y-71813550D02*
X31703200Y-71828070D01*
X31565200Y-71803840D02*
X31634200Y-71813550D01*
X31496200Y-71798970D02*
X31565200Y-71803840D01*
X31426200Y-71798970D02*
X31496200Y-71798970D01*
X31356200Y-71803830D02*
X31426200Y-71798970D01*
X31287200Y-71813560D02*
X31356200Y-71803830D01*
X31219200Y-71828060D02*
X31287200Y-71813560D01*
X31152200Y-71847310D02*
X31219200Y-71828060D01*
X31086200Y-71871180D02*
X31152200Y-71847310D01*
X31022200Y-71899580D02*
X31086200Y-71871180D01*
X30961200Y-71932340D02*
X31022200Y-71899580D01*
X30902200Y-71969320D02*
X30961200Y-71932340D01*
X30845200Y-72010350D02*
X30902200Y-71969320D01*
X30792200Y-72055220D02*
X30845200Y-72010350D01*
X30741200Y-72103690D02*
X30792200Y-72055220D01*
X30695200Y-72155570D02*
X30741200Y-72103690D01*
X30652200Y-72210580D02*
X30695200Y-72155570D01*
X30613200Y-72268440D02*
X30652200Y-72210580D01*
X30578200Y-72328880D02*
X30613200Y-72268440D01*
X30547200Y-72391630D02*
X30578200Y-72328880D01*
X30521200Y-72456320D02*
X30547200Y-72391630D01*
X30500200Y-72522710D02*
X30521200Y-72456320D01*
X30483200Y-72590430D02*
X30500200Y-72522710D01*
X30471200Y-72659170D02*
X30483200Y-72590430D01*
X30463200Y-72728590D02*
X30471200Y-72659170D01*
X30461200Y-72798350D02*
X30463200Y-72728590D01*
X30463200Y-72868100D02*
X30461200Y-72798350D01*
X30471200Y-72937520D02*
X30463200Y-72868100D01*
X30483200Y-73006270D02*
X30471200Y-72937520D01*
X30500200Y-73073980D02*
X30483200Y-73006270D01*
X30521200Y-73140370D02*
X30500200Y-73073980D01*
X30547200Y-73205090D02*
X30521200Y-73140370D01*
X30578200Y-73267830D02*
X30547200Y-73205090D01*
X30613200Y-73328270D02*
X30578200Y-73267830D01*
X30652200Y-73386130D02*
X30613200Y-73328270D01*
X30695200Y-73441140D02*
X30652200Y-73386130D01*
X30741200Y-73493010D02*
X30695200Y-73441140D01*
X30760200Y-73511360D02*
X30741200Y-73493010D01*
X30738200Y-73550070D02*
X30760200Y-73511360D01*
X31240200Y-73773520D02*
X30738200Y-73550070D01*
X32322200Y-74167430D02*
X31240200Y-73773520D01*
X33429200Y-74484870D02*
X32322200Y-74167430D01*
X34556200Y-74724310D02*
X33429200Y-74484870D01*
X35696200Y-74884610D02*
X34556200Y-74724310D01*
X36845200Y-74964940D02*
X35696200Y-74884610D01*
X243997200Y-74964940D02*
X242845200Y-74964940D01*
X245146200Y-74884610D02*
X243997200Y-74964940D01*
X246286200Y-74724310D02*
X245146200Y-74884610D01*
X247413200Y-74484870D02*
X246286200Y-74724310D01*
X248520200Y-74167430D02*
X247413200Y-74484870D01*
X249602200Y-73773520D02*
X248520200Y-74167430D01*
X250654200Y-73305090D02*
X249602200Y-73773520D01*
X251671200Y-72764410D02*
X250654200Y-73305090D01*
X252648200Y-72154110D02*
X251671200Y-72764410D01*
X253579200Y-71477170D02*
X252648200Y-72154110D01*
X254462200Y-70736890D02*
X253579200Y-71477170D01*
X255290200Y-69936850D02*
X254462200Y-70736890D01*
X256061200Y-69080990D02*
X255290200Y-69936850D01*
X256770200Y-68173456D02*
X256061200Y-69080990D01*
X257414200Y-67218668D02*
X256770200Y-68173456D01*
X257990200Y-66221280D02*
X257414200Y-67218668D01*
X258494200Y-65186150D02*
X257990200Y-66221280D01*
X258926200Y-64118330D02*
X258494200Y-65186150D01*
X259282200Y-63023000D02*
X258926200Y-64118330D01*
X259560200Y-61905540D02*
X259282200Y-63023000D01*
X259760200Y-60771340D02*
X259560200Y-61905540D01*
X259818200Y-60225000D02*
X259760200Y-60771340D01*
X259773200Y-60225000D02*
X259818200Y-60225000D01*
X259767200Y-60199350D02*
X259773200Y-60225000D01*
X259745200Y-60132970D02*
X259767200Y-60199350D01*
X259719200Y-60068260D02*
X259745200Y-60132970D01*
X259688200Y-60005520D02*
X259719200Y-60068260D01*
X259654200Y-59945080D02*
X259688200Y-60005520D01*
X259615200Y-59887200D02*
X259654200Y-59945080D01*
X259572200Y-59832210D02*
X259615200Y-59887200D01*
X259525200Y-59780330D02*
X259572200Y-59832210D01*
X259475200Y-59731850D02*
X259525200Y-59780330D01*
X259421200Y-59686980D02*
X259475200Y-59731850D01*
X259365200Y-59645960D02*
X259421200Y-59686980D01*
X259305200Y-59608970D02*
X259365200Y-59645960D01*
X259244200Y-59576200D02*
X259305200Y-59608970D01*
X259180200Y-59547810D02*
X259244200Y-59576200D01*
X259115200Y-59523930D02*
X259180200Y-59547810D01*
X259047200Y-59504690D02*
X259115200Y-59523930D01*
X258979200Y-59490180D02*
X259047200Y-59504690D01*
X258910200Y-59480480D02*
X258979200Y-59490180D01*
X258840200Y-59475600D02*
X258910200Y-59480480D01*
X258771200Y-59475600D02*
X258840200Y-59475600D01*
X258701200Y-59480480D02*
X258771200Y-59475600D01*
X258632200Y-59490180D02*
X258701200Y-59480480D01*
X258564200Y-59504690D02*
X258632200Y-59490180D01*
X258496200Y-59523930D02*
X258564200Y-59504690D01*
X258431200Y-59547810D02*
X258496200Y-59523930D01*
X258367200Y-59576200D02*
X258431200Y-59547810D01*
X258306200Y-59608970D02*
X258367200Y-59576200D01*
X258246200Y-59645960D02*
X258306200Y-59608970D01*
X258190200Y-59686980D02*
X258246200Y-59645960D01*
X258136200Y-59731850D02*
X258190200Y-59686980D01*
X258086200Y-59780330D02*
X258136200Y-59731850D01*
X258039200Y-59832210D02*
X258086200Y-59780330D01*
X257996200Y-59887200D02*
X258039200Y-59832210D01*
X257957200Y-59945080D02*
X257996200Y-59887200D01*
X257923200Y-60005520D02*
X257957200Y-59945080D01*
X257892200Y-60068260D02*
X257923200Y-60005520D01*
X257866200Y-60132970D02*
X257892200Y-60068260D01*
X257844200Y-60199350D02*
X257866200Y-60132970D01*
X257838200Y-60225000D02*
X257844200Y-60199350D01*
X257808200Y-60225000D02*
X257838200Y-60225000D01*
X257780200Y-60493010D02*
X257808200Y-60225000D01*
X257604200Y-61489710D02*
X257780200Y-60493010D01*
X257359200Y-62471730D02*
X257604200Y-61489710D01*
X257047200Y-63434290D02*
X257359200Y-62471730D01*
X256667200Y-64372670D02*
X257047200Y-63434290D01*
X256224200Y-65282330D02*
X256667200Y-64372670D01*
X255718200Y-66158820D02*
X256224200Y-65282330D01*
X255152200Y-66997873D02*
X255718200Y-66158820D01*
X254529200Y-67795419D02*
X255152200Y-66997873D01*
X253851200Y-68547540D02*
X254529200Y-67795419D01*
X253123200Y-69250590D02*
X253851200Y-68547540D01*
X252348200Y-69901150D02*
X253123200Y-69250590D01*
X251529200Y-70496040D02*
X252348200Y-69901150D01*
X250671200Y-71032360D02*
X251529200Y-70496040D01*
X249777200Y-71507500D02*
X250671200Y-71032360D01*
X248853200Y-71919150D02*
X249777200Y-71507500D01*
X247902200Y-72265310D02*
X248853200Y-71919150D01*
X246929200Y-72544270D02*
X247902200Y-72265310D01*
X245939200Y-72754710D02*
X246929200Y-72544270D01*
X244937200Y-72895560D02*
X245939200Y-72754710D01*
X243927200Y-72966170D02*
X244937200Y-72895560D01*
X242915200Y-72966170D02*
X243927200Y-72966170D01*
X241905200Y-72895560D02*
X242915200Y-72966170D01*
X240903200Y-72754710D02*
X241905200Y-72895560D01*
X239913300Y-72544270D02*
X240903200Y-72754710D01*
X238940500Y-72265310D02*
X239913300Y-72544270D01*
X237989400Y-71919150D02*
X238940500Y-72265310D01*
X237743200Y-71809550D02*
X237989400Y-71919150D01*
X237728300Y-71835350D02*
X237743200Y-71809550D01*
X237702900Y-71828070D02*
X237728300Y-71835350D01*
X237634700Y-71813550D02*
X237702900Y-71828070D01*
X237565500Y-71803840D02*
X237634700Y-71813550D01*
X237495900Y-71798970D02*
X237565500Y-71803840D01*
X237426100Y-71798970D02*
X237495900Y-71798970D01*
X237356500Y-71803830D02*
X237426100Y-71798970D01*
X237287300Y-71813560D02*
X237356500Y-71803830D01*
X237219100Y-71828060D02*
X237287300Y-71813560D01*
X237152000Y-71847310D02*
X237219100Y-71828060D01*
X237086400Y-71871180D02*
X237152000Y-71847310D01*
X237022600Y-71899580D02*
X237086400Y-71871180D01*
X236961000Y-71932340D02*
X237022600Y-71899580D01*
X236901800Y-71969320D02*
X236961000Y-71932340D01*
X236845300Y-72010350D02*
X236901800Y-71969320D01*
X236791900Y-72055220D02*
X236845300Y-72010350D01*
X236741700Y-72103690D02*
X236791900Y-72055220D01*
X236695000Y-72155570D02*
X236741700Y-72103690D01*
X236652000Y-72210580D02*
X236695000Y-72155570D01*
X236612900Y-72268440D02*
X236652000Y-72210580D01*
X236578000Y-72328880D02*
X236612900Y-72268440D01*
X236547500Y-72391630D02*
X236578000Y-72328880D01*
X236521300Y-72456320D02*
X236547500Y-72391630D01*
X236499700Y-72522710D02*
X236521300Y-72456320D01*
X236482900Y-72590430D02*
X236499700Y-72522710D01*
X236470700Y-72659170D02*
X236482900Y-72590430D01*
X236463400Y-72728590D02*
X236470700Y-72659170D01*
X236461000Y-72798350D02*
X236463400Y-72728590D01*
X236463500Y-72868100D02*
X236461000Y-72798350D01*
X236470700Y-72937520D02*
X236463500Y-72868100D01*
X236482900Y-73006270D02*
X236470700Y-72937520D01*
X236499700Y-73073980D02*
X236482900Y-73006270D01*
X236521300Y-73140370D02*
X236499700Y-73073980D01*
X236547500Y-73205090D02*
X236521300Y-73140370D01*
X236578100Y-73267830D02*
X236547500Y-73205090D01*
X236613000Y-73328270D02*
X236578100Y-73267830D01*
X236652000Y-73386130D02*
X236613000Y-73328270D01*
X236695000Y-73441140D02*
X236652000Y-73386130D01*
X236741700Y-73493010D02*
X236695000Y-73441140D01*
X236760700Y-73511360D02*
X236741700Y-73493010D01*
X236738300Y-73550070D02*
X236760700Y-73511360D01*
X237240200Y-73773520D02*
X236738300Y-73550070D01*
X238322400Y-74167430D02*
X237240200Y-73773520D01*
X239429500Y-74484870D02*
X238322400Y-74167430D01*
X240556200Y-74724310D02*
X239429500Y-74484870D01*
X241696200Y-74884610D02*
X240556200Y-74724310D01*
X242845200Y-74964940D02*
X241696200Y-74884610D01*
X200840000Y-65967680D02*
X196002400Y-65967680D01*
X201675500Y-65909250D02*
X200840000Y-65967680D01*
X202505000Y-65792690D02*
X201675500Y-65909250D01*
X203324300Y-65618540D02*
X202505000Y-65792690D01*
X204129400Y-65387670D02*
X203324300Y-65618540D01*
X204916500Y-65101210D02*
X204129400Y-65387670D01*
X205681700Y-64760520D02*
X204916500Y-65101210D01*
X206421200Y-64367300D02*
X205681700Y-64760520D01*
X207131500Y-63923440D02*
X206421200Y-64367300D01*
X212217200Y-60620190D02*
X207131500Y-63923440D01*
X212499500Y-60415050D02*
X212217200Y-60620190D01*
X212766800Y-60190710D02*
X212499500Y-60415050D01*
X213017900Y-59948280D02*
X212766800Y-60190710D01*
X220053300Y-52810900D02*
X213017900Y-59948280D01*
X223605400Y-49109000D02*
X220053300Y-52810900D01*
X220546600Y-46050100D02*
X223605400Y-49109000D01*
X220503900Y-46292000D02*
X220546600Y-46050100D01*
X220441900Y-46882100D02*
X220503900Y-46292000D01*
X220421200Y-47475000D02*
X220441900Y-46882100D01*
X220430700Y-47746300D02*
X220421200Y-47475000D01*
X219129400Y-49528400D02*
X220430700Y-47746300D01*
X218613700Y-50188400D02*
X219129400Y-49528400D01*
X218053300Y-50810900D02*
X218613700Y-50188400D01*
X211017900Y-57948280D02*
X218053300Y-50810900D01*
X210766800Y-58190710D02*
X211017900Y-57948280D01*
X210499500Y-58415050D02*
X210766800Y-58190710D01*
X210217200Y-58620190D02*
X210499500Y-58415050D01*
X205131500Y-61923440D02*
X210217200Y-58620190D01*
X204421200Y-62367300D02*
X205131500Y-61923440D01*
X203681700Y-62760520D02*
X204421200Y-62367300D01*
X202916500Y-63101210D02*
X203681700Y-62760520D01*
X202129400Y-63387670D02*
X202916500Y-63101210D01*
X201324300Y-63618540D02*
X202129400Y-63387670D01*
X200505000Y-63792690D02*
X201324300Y-63618540D01*
X199675500Y-63909250D02*
X200505000Y-63792690D01*
X198840000Y-63967680D02*
X199675500Y-63909250D01*
X198002400Y-63967680D02*
X198840000Y-63967680D01*
X197166900Y-63909250D02*
X198002400Y-63967680D01*
X196337400Y-63792690D02*
X197166900Y-63909250D01*
X195518100Y-63618540D02*
X196337400Y-63792690D01*
X194713000Y-63387670D02*
X195518100Y-63618540D01*
X193925900Y-63101210D02*
X194713000Y-63387670D01*
X193160700Y-62760520D02*
X193925900Y-63101210D01*
X192421200Y-62367300D02*
X193160700Y-62760520D01*
X191710900Y-61923440D02*
X192421200Y-62367300D01*
X186625200Y-58620190D02*
X191710900Y-61923440D01*
X186342900Y-58415050D02*
X186625200Y-58620190D01*
X186075600Y-58190710D02*
X186342900Y-58415050D01*
X185824500Y-57948280D02*
X186075600Y-58190710D01*
X185591000Y-57688930D02*
X185824500Y-57948280D01*
X176359100Y-46488400D02*
X185591000Y-57688930D01*
X176338500Y-46292000D02*
X176359100Y-46488400D01*
X176235500Y-45707700D02*
X176338500Y-46292000D01*
X176116300Y-45229700D02*
X176235500Y-45707700D01*
X172815600Y-48530300D02*
X176116300Y-45229700D01*
X183824500Y-59948280D02*
X172815600Y-48530300D01*
X184075600Y-60190710D02*
X183824500Y-59948280D01*
X184342900Y-60415050D02*
X184075600Y-60190710D01*
X184625200Y-60620190D02*
X184342900Y-60415050D01*
X189710900Y-63923440D02*
X184625200Y-60620190D01*
X190421200Y-64367300D02*
X189710900Y-63923440D01*
X191160700Y-64760520D02*
X190421200Y-64367300D01*
X191925900Y-65101210D02*
X191160700Y-64760520D01*
X192713000Y-65387670D02*
X191925900Y-65101210D01*
X193518100Y-65618540D02*
X192713000Y-65387670D01*
X194337400Y-65792690D02*
X193518100Y-65618540D01*
X195166900Y-65909250D02*
X194337400Y-65792690D01*
X196002400Y-65967680D02*
X195166900Y-65909250D01*
X83840000Y-65967680D02*
X79002400Y-65967680D01*
X84675500Y-65909250D02*
X83840000Y-65967680D01*
X85505000Y-65792690D02*
X84675500Y-65909250D01*
X86324300Y-65618540D02*
X85505000Y-65792690D01*
X87129400Y-65387670D02*
X86324300Y-65618540D01*
X87916500Y-65101210D02*
X87129400Y-65387670D01*
X88681700Y-64760520D02*
X87916500Y-65101210D01*
X89421200Y-64367300D02*
X88681700Y-64760520D01*
X90131500Y-63923440D02*
X89421200Y-64367300D01*
X95217200Y-60620190D02*
X90131500Y-63923440D01*
X95499500Y-60415050D02*
X95217200Y-60620190D01*
X95766800Y-60190710D02*
X95499500Y-60415050D01*
X96017900Y-59948280D02*
X95766800Y-60190710D01*
X103053300Y-52810900D02*
X96017900Y-59948280D01*
X106605400Y-49109000D02*
X103053300Y-52810900D01*
X103546600Y-46050100D02*
X106605400Y-49109000D01*
X103503900Y-46292000D02*
X103546600Y-46050100D01*
X103441900Y-46882100D02*
X103503900Y-46292000D01*
X103421200Y-47475000D02*
X103441900Y-46882100D01*
X103430700Y-47746300D02*
X103421200Y-47475000D01*
X102129400Y-49528400D02*
X103430700Y-47746300D01*
X101613700Y-50188400D02*
X102129400Y-49528400D01*
X101053300Y-50810900D02*
X101613700Y-50188400D01*
X94017900Y-57948280D02*
X101053300Y-50810900D01*
X93766800Y-58190710D02*
X94017900Y-57948280D01*
X93499500Y-58415050D02*
X93766800Y-58190710D01*
X93217200Y-58620190D02*
X93499500Y-58415050D01*
X88131500Y-61923440D02*
X93217200Y-58620190D01*
X87421200Y-62367300D02*
X88131500Y-61923440D01*
X86681700Y-62760520D02*
X87421200Y-62367300D01*
X85916500Y-63101210D02*
X86681700Y-62760520D01*
X85129400Y-63387670D02*
X85916500Y-63101210D01*
X84324300Y-63618540D02*
X85129400Y-63387670D01*
X83505000Y-63792690D02*
X84324300Y-63618540D01*
X82675500Y-63909250D02*
X83505000Y-63792690D01*
X81840000Y-63967680D02*
X82675500Y-63909250D01*
X81002400Y-63967680D02*
X81840000Y-63967680D01*
X80166900Y-63909250D02*
X81002400Y-63967680D01*
X79337400Y-63792690D02*
X80166900Y-63909250D01*
X78518100Y-63618540D02*
X79337400Y-63792690D01*
X77713000Y-63387670D02*
X78518100Y-63618540D01*
X76925900Y-63101210D02*
X77713000Y-63387670D01*
X76160700Y-62760520D02*
X76925900Y-63101210D01*
X75421200Y-62367300D02*
X76160700Y-62760520D01*
X74710900Y-61923440D02*
X75421200Y-62367300D01*
X69625200Y-58620190D02*
X74710900Y-61923440D01*
X69342900Y-58415050D02*
X69625200Y-58620190D01*
X69075600Y-58190710D02*
X69342900Y-58415050D01*
X68824500Y-57948280D02*
X69075600Y-58190710D01*
X68591000Y-57688930D02*
X68824500Y-57948280D01*
X59359100Y-46488400D02*
X68591000Y-57688930D01*
X59338500Y-46292000D02*
X59359100Y-46488400D01*
X59235500Y-45707700D02*
X59338500Y-46292000D01*
X59116300Y-45229700D02*
X59235500Y-45707700D01*
X55815600Y-48530300D02*
X59116300Y-45229700D01*
X66824500Y-59948280D02*
X55815600Y-48530300D01*
X67075600Y-60190710D02*
X66824500Y-59948280D01*
X67342900Y-60415050D02*
X67075600Y-60190710D01*
X67625200Y-60620190D02*
X67342900Y-60415050D01*
X72710900Y-63923440D02*
X67625200Y-60620190D01*
X73421200Y-64367300D02*
X72710900Y-63923440D01*
X74160700Y-64760520D02*
X73421200Y-64367300D01*
X74925900Y-65101210D02*
X74160700Y-64760520D01*
X75713000Y-65387670D02*
X74925900Y-65101210D01*
X143275310Y7051700D02*
X143293330Y7025000D01*
X143017470Y7381700D02*
X143275310Y7051700D01*
X142737240Y7693000D02*
X143017470Y7381700D01*
X142653800Y7773500D02*
X142737240Y7693000D01*
X250250200Y29219700D02*
X249901200Y29824200D01*
X250556200Y28592400D02*
X250250200Y29219700D01*
X250818200Y27945200D02*
X250556200Y28592400D01*
X251034200Y27281400D02*
X250818200Y27945200D01*
X232368300Y-34739600D02*
X233271800Y-34083200D01*
X231421200Y-35331400D02*
X232368300Y-34739600D01*
X230435100Y-35855700D02*
X231421200Y-35331400D01*
X229414900Y-36309900D02*
X230435100Y-35855700D01*
X228533200Y-36630800D02*
X229414900Y-36309900D01*
X228365500Y-36879600D02*
X228533200Y-36630800D01*
X226594400Y-39305000D02*
X228365500Y-36879600D01*
X226294600Y-39391000D02*
X226594400Y-39305000D01*
X225737000Y-39593900D02*
X226294600Y-39391000D01*
X225195000Y-39835200D02*
X225737000Y-39593900D01*
X224671200Y-40113800D02*
X225195000Y-39835200D01*
X224571800Y-40175900D02*
X224671200Y-40113800D01*
X102921200Y525000D02*
X89921200Y525000D01*
X103384700Y598400D02*
X102921200Y525000D01*
X103802900Y811500D02*
X103384700Y598400D01*
X104134700Y1143300D02*
X103802900Y811500D01*
X104347800Y1561500D02*
X104134700Y1143300D01*
X104421200Y2025000D02*
X104347800Y1561500D01*
X104347800Y2488500D02*
X104421200Y2025000D01*
X104134700Y2906700D02*
X104347800Y2488500D01*
X103802900Y3238500D02*
X104134700Y2906700D01*
X103384700Y3451600D02*
X103802900Y3238500D01*
X102921200Y3525000D02*
X103384700Y3451600D01*
X89921200Y3525000D02*
X102921200Y3525000D01*
X89457700Y3451600D02*
X89921200Y3525000D01*
X89039500Y3238500D02*
X89457700Y3451600D01*
X88707700Y2906700D02*
X89039500Y3238500D01*
X88494600Y2488500D02*
X88707700Y2906700D01*
X88421200Y2025000D02*
X88494600Y2488500D01*
X88494600Y1561500D02*
X88421200Y2025000D01*
X168453700Y35558000D02*
X168658100Y35243000D01*
X168161900Y35795000D02*
X168453700Y35558000D01*
X167811400Y35929000D02*
X168161900Y35795000D01*
X167436500Y35949000D02*
X167811400Y35929000D01*
X167073800Y35852000D02*
X167436500Y35949000D01*
X166758900Y35647000D02*
X167073800Y35852000D01*
X148477570Y19186500D02*
X166758900Y35647000D01*
X148241300Y18894700D02*
X148477570Y19186500D01*
X148106750Y18544200D02*
X148241300Y18894700D01*
X43421200Y46185000D02*
X44037500Y46513000D01*
X168755300Y40881000D02*
X168735700Y40506000D01*
X168658100Y41243000D02*
X168755300Y40881000D01*
X168453700Y41558000D02*
X168658100Y41243000D01*
X168161900Y41795000D02*
X168453700Y41558000D01*
X167811400Y41929000D02*
X168161900Y41795000D01*
X167436500Y41949000D02*
X167811400Y41929000D01*
X167073800Y41852000D02*
X167436500Y41949000D01*
X26275200Y-1700D02*
X26017200Y-331700D01*
X26293200Y25000D02*
X26275200Y-1700D01*
X23421200Y25000D02*
X26293200Y25000D01*
X23421200Y-8475000D02*
X23421200Y25000D01*
X23460200Y-9591100D02*
X23421200Y-8475000D01*
X23577200Y-10701800D02*
X23460200Y-9591100D01*
X23771200Y-11801600D02*
X23577200Y-10701800D01*
X24041200Y-12885200D02*
X23771200Y-11801600D01*
X24386200Y-13947300D02*
X24041200Y-12885200D01*
X24804200Y-14982800D02*
X24386200Y-13947300D01*
X25294200Y-15986500D02*
X24804200Y-14982800D01*
X25852200Y-16953700D02*
X25294200Y-15986500D01*
X26477200Y-17879600D02*
X25852200Y-16953700D01*
X27164200Y-18759600D02*
X26477200Y-17879600D01*
X27912200Y-19589500D02*
X27164200Y-18759600D01*
X167956200Y-43490300D02*
X144911770Y-19589500D01*
X171622400Y-39824100D02*
X167956200Y-43490300D01*
X171105400Y-39593900D02*
X171622400Y-39824100D01*
X170547800Y-39391000D02*
X171105400Y-39593900D01*
X170497200Y-39376500D02*
X170547800Y-39391000D01*
X169164500Y-37759600D02*
X170497200Y-39376500D01*
X168476900Y-36879600D02*
X169164500Y-37759600D01*
X168309200Y-36630800D02*
X168476900Y-36879600D01*
X167427500Y-36309900D02*
X168309200Y-36630800D01*
X166407300Y-35855700D02*
X167427500Y-36309900D01*
X165421200Y-35331400D02*
X166407300Y-35855700D01*
X164474100Y-34739600D02*
X165421200Y-35331400D01*
X163570600Y-34083200D02*
X164474100Y-34739600D01*
X162715100Y-33365300D02*
X163570600Y-34083200D01*
X161911800Y-32589500D02*
X162715100Y-33365300D01*
X161164500Y-31759600D02*
X161911800Y-32589500D01*
X160476900Y-30879600D02*
X161164500Y-31759600D01*
X159878400Y-29992200D02*
X160476900Y-30879600D01*
X159474100Y-29739600D02*
X159878400Y-29992200D01*
X158570600Y-29083200D02*
X159474100Y-29739600D01*
X157715100Y-28365300D02*
X158570600Y-29083200D01*
X156911800Y-27589500D02*
X157715100Y-28365300D01*
X146911770Y-17589500D02*
X156911800Y-27589500D01*
X146164500Y-16759600D02*
X146911770Y-17589500D01*
X145476940Y-15879600D02*
X146164500Y-16759600D01*
X144852440Y-14953700D02*
X145476940Y-15879600D01*
X144294050Y-13986500D02*
X144852440Y-14953700D01*
X143804490Y-12982800D02*
X144294050Y-13986500D01*
X143386120Y-11947300D02*
X143804490Y-12982800D01*
X143041030Y-10885200D02*
X143386120Y-11947300D01*
X142770840Y-9801600D02*
X143041030Y-10885200D01*
X142576920Y-8701800D02*
X142770840Y-9801600D01*
X142460190Y-7591100D02*
X142576920Y-8701800D01*
X142421200Y-6475000D02*
X142460190Y-7591100D01*
X142421200Y-946300D02*
X142421200Y-6475000D01*
X142435990Y-933900D02*
X142421200Y-946300D01*
X86250000Y50775000D02*
X76592400Y50775000D01*
X15421200Y-196475000D02*
X265421200Y-196475000D01*
X86365500Y50742000D02*
X86250000Y50775000D01*
X89421200Y49381000D02*
X88435100Y49906000D01*
X142737240Y-642900D02*
X142435990Y-933900D01*
X143017470Y-331700D02*
X142737240Y-642900D01*
X143275310Y-1700D02*
X143017470Y-331700D01*
X143293320Y25000D02*
X143275310Y-1700D01*
X140421200Y25000D02*
X143293320Y25000D01*
X140421200Y-8475000D02*
X140421200Y25000D01*
X140460186Y-9591100D02*
X140421200Y-8475000D01*
X140576916Y-10701800D02*
X140460186Y-9591100D01*
X140770840Y-11801600D02*
X140576916Y-10701800D01*
X141041027Y-12885200D02*
X140770840Y-11801600D01*
X141386120Y-13947300D02*
X141041027Y-12885200D01*
X141804490Y-14982800D02*
X141386120Y-13947300D01*
X142294050Y-15986500D02*
X141804490Y-14982800D01*
X142852440Y-16953700D02*
X142294050Y-15986500D01*
X143476940Y-17879600D02*
X142852440Y-16953700D01*
X144164500Y-18759600D02*
X143476940Y-17879600D01*
X144911770Y-19589500D02*
X144164500Y-18759600D01*
X111453000Y-44057000D02*
X107571800Y-40175900D01*
X134930630Y-19589500D02*
X111453000Y-44057000D01*
X135677900Y-18759600D02*
X134930630Y-19589500D01*
X136365460Y-17879600D02*
X135677900Y-18759600D01*
X136989960Y-16953700D02*
X136365460Y-17879600D01*
X137548350Y-15986500D02*
X136989960Y-16953700D01*
X138037910Y-14982800D02*
X137548350Y-15986500D01*
X138456280Y-13947300D02*
X138037910Y-14982800D01*
X138801370Y-12885200D02*
X138456280Y-13947300D01*
X139071560Y-11801600D02*
X138801370Y-12885200D01*
X139265480Y-10701800D02*
X139071560Y-11801600D01*
X139382210Y-9591100D02*
X139265480Y-10701800D01*
X139421200Y-8475000D02*
X139382210Y-9591100D01*
X139421200Y25000D02*
X139421200Y-8475000D01*
X136549080Y25000D02*
X139421200Y25000D01*
X136567090Y-1700D02*
X136549080Y25000D01*
X136824930Y-331700D02*
X136567090Y-1700D01*
X137105160Y-642900D02*
X136824930Y-331700D01*
X137406410Y-933900D02*
X137105160Y-642900D01*
X137421200Y-946300D02*
X137406410Y-933900D01*
X137421200Y-6475000D02*
X137421200Y-946300D01*
X137382210Y-7591100D02*
X137421200Y-6475000D01*
X137265480Y-8701800D02*
X137382210Y-7591100D01*
X137071560Y-9801600D02*
X137265480Y-8701800D01*
X136801370Y-10885200D02*
X137071560Y-9801600D01*
X136456280Y-11947300D02*
X136801370Y-10885200D01*
X136037910Y-12982800D02*
X136456280Y-11947300D01*
X135548350Y-13986500D02*
X136037910Y-12982800D01*
X134989960Y-14953700D02*
X135548350Y-13986500D01*
X134365460Y-15879600D02*
X134989960Y-14953700D01*
X253202200Y28604100D02*
X253324200Y27916700D01*
X253034200Y29281400D02*
X253202200Y28604100D01*
X252818200Y29945200D02*
X253034200Y29281400D01*
X252556200Y30592400D02*
X252818200Y29945200D01*
X252250200Y31219700D02*
X252556200Y30592400D01*
X111379700Y45519000D02*
X111115200Y45297000D01*
X111477600Y33864000D02*
X111241300Y34155000D01*
X129758900Y17402900D02*
X111477600Y33864000D01*
X130073800Y17198400D02*
X129758900Y17402900D01*
X32406200Y17101300D02*
X32031200Y17120900D01*
X32768200Y17198400D02*
X32406200Y17101300D01*
X33083200Y17402900D02*
X32768200Y17198400D01*
X51364800Y33864000D02*
X33083200Y17402900D01*
X51601100Y34155000D02*
X51364800Y33864000D01*
X51735700Y34506000D02*
X51601100Y34155000D01*
X51755300Y34881000D02*
X51735700Y34506000D01*
X51658100Y35243000D02*
X51755300Y34881000D01*
X51453700Y35558000D02*
X51658100Y35243000D01*
X228184300Y41243000D02*
X228388700Y41558000D01*
X228087100Y40881000D02*
X228184300Y41243000D01*
X228106700Y40506000D02*
X228087100Y40881000D01*
X228241300Y40155000D02*
X228106700Y40506000D01*
X228477600Y39864000D02*
X228241300Y40155000D01*
X88707700Y1143300D02*
X88494600Y1561500D01*
X89039500Y811500D02*
X88707700Y1143300D01*
X89457700Y598400D02*
X89039500Y811500D01*
X89921200Y525000D02*
X89457700Y598400D01*
X219921200Y525000D02*
X206921200Y525000D01*
X220384700Y598400D02*
X219921200Y525000D01*
X220802900Y811500D02*
X220384700Y598400D01*
X221134700Y1143300D02*
X220802900Y811500D01*
X221347800Y1561500D02*
X221134700Y1143300D01*
X221421200Y2025000D02*
X221347800Y1561500D01*
X221347800Y2488500D02*
X221421200Y2025000D01*
X221134700Y2906700D02*
X221347800Y2488500D01*
X220802900Y3238500D02*
X221134700Y2906700D01*
X220384700Y3451600D02*
X220802900Y3238500D01*
X219921200Y3525000D02*
X220384700Y3451600D01*
X206921200Y3525000D02*
X219921200Y3525000D01*
X206457700Y3451600D02*
X206921200Y3525000D01*
X206039500Y3238500D02*
X206457700Y3451600D01*
X205707700Y2906700D02*
X206039500Y3238500D01*
X205494600Y2488500D02*
X205707700Y2906700D01*
X205421200Y2025000D02*
X205494600Y2488500D01*
X205494600Y1561500D02*
X205421200Y2025000D01*
X205707700Y1143300D02*
X205494600Y1561500D01*
X147760770Y30952900D02*
X147331040Y30402900D01*
X148227810Y31471600D02*
X147760770Y30952900D01*
X148729900Y31956500D02*
X148227810Y31471600D01*
X160729900Y42956000D02*
X148729900Y31956500D01*
X146285750Y28592400D02*
X146024290Y27945200D01*
X146591730Y29219700D02*
X146285750Y28592400D01*
X146940730Y29824200D02*
X146591730Y29219700D01*
X147331040Y30402900D02*
X146940730Y29824200D01*
X161264600Y43405000D02*
X160729900Y42956000D01*
X161829300Y43815000D02*
X161264600Y43405000D01*
X162421200Y44185000D02*
X161829300Y43815000D01*
X163037500Y44513000D02*
X162421200Y44185000D01*
X30761200Y30952900D02*
X30331200Y30402900D01*
X51921200Y45156000D02*
X51727200Y45297000D01*
X29730200Y33956000D02*
X41729900Y44956000D01*
X133818110Y27945200D02*
X133556650Y28592400D01*
X42829300Y45815000D02*
X43421200Y46185000D01*
X46684700Y47373000D02*
X51921200Y48387000D01*
X185302800Y45519000D02*
X176379700Y45519000D01*
X42264600Y45405000D02*
X42829300Y45815000D01*
X46037500Y44513000D02*
X45421200Y44185000D01*
X28331200Y32402900D02*
X28761200Y32953000D01*
X134323880Y25916700D02*
X134202660Y26604100D01*
X117421200Y44185000D02*
X116804900Y44513000D01*
X31477200Y25186500D02*
X49758900Y41647000D01*
X31241200Y24894700D02*
X31477200Y25186500D01*
X31107200Y24544200D02*
X31241200Y24894700D01*
X31087200Y24169300D02*
X31107200Y24544200D01*
X31184200Y23806600D02*
X31087200Y24169300D01*
X31389200Y23491800D02*
X31184200Y23806600D01*
X31680200Y23255500D02*
X31389200Y23491800D01*
X229770200Y45519000D02*
X228379700Y45519000D01*
X230466500Y45470000D02*
X229770200Y45519000D01*
X231157700Y45373000D02*
X230466500Y45470000D01*
X231840400Y45228000D02*
X231157700Y45373000D01*
X131614590Y31471600D02*
X131112500Y31956500D01*
X145331040Y32402900D02*
X145760770Y32953000D01*
X144940730Y31824200D02*
X145331040Y32402900D01*
X144591730Y31219700D02*
X144940730Y31824200D01*
X144285750Y30592400D02*
X144591730Y31219700D01*
X26017200Y7381700D02*
X26275200Y7051700D01*
X190421200Y49381000D02*
X189474100Y48790000D01*
X51921200Y48387000D02*
X51921200Y45156000D01*
X220921200Y49742000D02*
X220921200Y45156000D01*
X144024290Y29945200D02*
X144285750Y30592400D01*
X143808590Y29281400D02*
X144024290Y29945200D01*
X26275200Y7051700D02*
X26293200Y7025000D01*
X253825200Y7381700D02*
X254105200Y7693000D01*
X253567200Y7051700D02*
X253825200Y7381700D01*
X253549200Y7025000D02*
X253567200Y7051700D01*
X143293330Y7025000D02*
X140580486Y7025000D01*
X148388760Y23491800D02*
X148184280Y23806600D01*
X148680520Y23255500D02*
X148388760Y23491800D01*
X149031030Y23120900D02*
X148680520Y23255500D01*
X247436200Y23101300D02*
X247074200Y23198400D01*
X247811200Y23120900D02*
X247436200Y23101300D01*
X248162200Y23255500D02*
X247811200Y23120900D01*
X166758900Y41647000D02*
X167073800Y41852000D01*
X148477570Y25186500D02*
X166758900Y41647000D01*
X148241300Y24894700D02*
X148477570Y25186500D01*
X148106750Y24544200D02*
X148241300Y24894700D01*
X148087090Y24169300D02*
X148106750Y24544200D01*
X148184280Y23806600D02*
X148087090Y24169300D01*
X143639740Y28604100D02*
X143808590Y29281400D01*
X143518520Y27916700D02*
X143639740Y28604100D01*
X26293200Y7025000D02*
X23580200Y7025000D01*
X145518520Y25916700D02*
X142653800Y7773500D01*
X145639740Y26604100D02*
X145518520Y25916700D01*
X145808590Y27281400D02*
X145639740Y26604100D01*
X146024290Y27945200D02*
X145808590Y27281400D01*
X134081630Y32953000D02*
X134511360Y32402900D01*
X133614590Y33472000D02*
X134081630Y32953000D01*
X23580200Y7025000D02*
X23654200Y9773500D01*
X140653805Y9773500D02*
X143518520Y27916700D01*
X140580486Y7025000D02*
X140653805Y9773500D01*
X227921200Y48387000D02*
X233157700Y47373000D01*
X227921200Y45156000D02*
X227921200Y48387000D01*
X228115200Y45297000D02*
X227921200Y45156000D01*
X228379700Y45519000D02*
X228115200Y45297000D01*
X51161900Y35795000D02*
X51453700Y35558000D01*
X50811400Y35929000D02*
X51161900Y35795000D01*
X50436500Y35949000D02*
X50811400Y35929000D01*
X50073800Y35852000D02*
X50436500Y35949000D01*
X49758900Y35647000D02*
X50073800Y35852000D01*
X31477200Y19186500D02*
X49758900Y35647000D01*
X31241200Y18894700D02*
X31477200Y19186500D01*
X31107200Y18544200D02*
X31241200Y18894700D01*
X31087200Y18169300D02*
X31107200Y18544200D01*
X31184200Y17806600D02*
X31087200Y18169300D01*
X31389200Y17491800D02*
X31184200Y17806600D01*
X136323880Y27916700D02*
X139188600Y9773500D01*
X136202660Y28604100D02*
X136323880Y27916700D01*
X136033810Y29281400D02*
X136202660Y28604100D01*
X135818110Y29945200D02*
X136033810Y29281400D01*
X139261910Y7025000D02*
X136549070Y7025000D01*
X139188600Y9773500D02*
X139261910Y7025000D01*
X136549070Y7025000D02*
X136567090Y7051700D01*
X50072200Y45519000D02*
X49375900Y45470000D01*
X46002000Y47228000D02*
X46684700Y47373000D01*
X246759200Y23402900D02*
X228477600Y39864000D01*
X247074200Y23198400D02*
X246759200Y23402900D01*
X256262200Y7025000D02*
X253549200Y7025000D01*
X256188200Y9773500D02*
X256262200Y7025000D01*
X253324200Y27916700D02*
X256188200Y9773500D01*
X135556650Y30592400D02*
X135818110Y29945200D01*
X135250670Y31219700D02*
X135556650Y30592400D01*
X26518200Y27916700D02*
X26640200Y28604100D01*
X163684700Y47373000D02*
X168921200Y48387000D01*
X163002000Y47228000D02*
X163684700Y47373000D01*
X230083500Y41647000D02*
X248365200Y25186500D01*
X229768600Y41852000D02*
X230083500Y41647000D01*
X229405900Y41949000D02*
X229768600Y41852000D01*
X229031000Y41929000D02*
X229405900Y41949000D01*
X228680500Y41795000D02*
X229031000Y41929000D01*
X228388700Y41558000D02*
X228680500Y41795000D01*
X228388700Y35558000D02*
X228680500Y35795000D01*
X228184300Y35243000D02*
X228388700Y35558000D01*
X228087100Y34881000D02*
X228184300Y35243000D01*
X228106700Y34506000D02*
X228087100Y34881000D01*
X228241300Y34155000D02*
X228106700Y34506000D01*
X228477600Y33864000D02*
X228241300Y34155000D01*
X246759200Y17402900D02*
X228477600Y33864000D01*
X247074200Y17198400D02*
X246759200Y17402900D01*
X130436440Y17101300D02*
X130073800Y17198400D01*
X130811370Y17120900D02*
X130436440Y17101300D01*
X131161880Y17255500D02*
X130811370Y17120900D01*
X131453640Y17491800D02*
X131161880Y17255500D01*
X131658120Y17806600D02*
X131453640Y17491800D01*
X131755310Y18169300D02*
X131658120Y17806600D01*
X207368300Y48790000D02*
X206421200Y49381000D01*
X87414900Y50360000D02*
X86365500Y50742000D01*
X129758900Y23402900D02*
X111477600Y39864000D01*
X130073800Y23198400D02*
X129758900Y23402900D01*
X32406200Y23101300D02*
X32031200Y23120900D01*
X32768200Y23198400D02*
X32406200Y23101300D01*
X33083200Y23402900D02*
X32768200Y23198400D01*
X51364800Y39864000D02*
X33083200Y23402900D01*
X51601100Y40155000D02*
X51364800Y39864000D01*
X51735700Y40506000D02*
X51601100Y40155000D01*
X265421200Y-196475000D02*
X265421200Y61525000D01*
X220921200Y45156000D02*
X220727200Y45297000D01*
X103921200Y45156000D02*
X103727200Y45297000D01*
X115511400Y45036000D02*
X114840400Y45228000D01*
X132901670Y29824200D02*
X132511360Y30402900D01*
X88250000Y52775000D02*
X103921200Y49742000D01*
X71570600Y48133000D02*
X68302800Y45519000D01*
X41729900Y44956000D02*
X42264600Y45405000D01*
X74592400Y52775000D02*
X88250000Y52775000D01*
X58921200Y49742000D02*
X74592400Y52775000D01*
X29024200Y27945200D02*
X28808200Y27281400D01*
X168921200Y45156000D02*
X168727200Y45297000D01*
X168921200Y48387000D02*
X168921200Y45156000D01*
X35905200Y-192896000D02*
X36915200Y-192966000D01*
X34903200Y-192755000D02*
X35905200Y-192896000D01*
X33913200Y-192544000D02*
X34903200Y-192755000D01*
X32940200Y-192265000D02*
X33913200Y-192544000D01*
X31989200Y-191919000D02*
X32940200Y-192265000D01*
X31743200Y-191810000D02*
X31989200Y-191919000D01*
X31728200Y-191835000D02*
X31743200Y-191810000D01*
X31703200Y-191828000D02*
X31728200Y-191835000D01*
X31634200Y-191814000D02*
X31703200Y-191828000D01*
X31565200Y-191804000D02*
X31634200Y-191814000D01*
X31496200Y-191799000D02*
X31565200Y-191804000D01*
X31426200Y-191799000D02*
X31496200Y-191799000D01*
X31356200Y-191804000D02*
X31426200Y-191799000D01*
X31287200Y-191814000D02*
X31356200Y-191804000D01*
X31219200Y-191828000D02*
X31287200Y-191814000D01*
X31152200Y-191847000D02*
X31219200Y-191828000D01*
X31086200Y-191871000D02*
X31152200Y-191847000D01*
X31022200Y-191900000D02*
X31086200Y-191871000D01*
X30961200Y-191932000D02*
X31022200Y-191900000D01*
X30902200Y-191969000D02*
X30961200Y-191932000D01*
X30845200Y-192010000D02*
X30902200Y-191969000D01*
X30792200Y-192055000D02*
X30845200Y-192010000D01*
X30741200Y-192104000D02*
X30792200Y-192055000D01*
X30695200Y-192156000D02*
X30741200Y-192104000D01*
X30652200Y-192211000D02*
X30695200Y-192156000D01*
X30613200Y-192268000D02*
X30652200Y-192211000D01*
X30578200Y-192329000D02*
X30613200Y-192268000D01*
X30547200Y-192392000D02*
X30578200Y-192329000D01*
X30521200Y-192456000D02*
X30547200Y-192392000D01*
X30500200Y-192523000D02*
X30521200Y-192456000D01*
X30483200Y-192590000D02*
X30500200Y-192523000D01*
X30471200Y-192659000D02*
X30483200Y-192590000D01*
X30463200Y-192729000D02*
X30471200Y-192659000D01*
X30461200Y-192798000D02*
X30463200Y-192729000D01*
X30463200Y-192868000D02*
X30461200Y-192798000D01*
X30471200Y-192938000D02*
X30463200Y-192868000D01*
X30483200Y-193006000D02*
X30471200Y-192938000D01*
X30500200Y-193074000D02*
X30483200Y-193006000D01*
X30521200Y-193140000D02*
X30500200Y-193074000D01*
X30547200Y-193205000D02*
X30521200Y-193140000D01*
X30578200Y-193268000D02*
X30547200Y-193205000D01*
X30613200Y-193328000D02*
X30578200Y-193268000D01*
X30652200Y-193386000D02*
X30613200Y-193328000D01*
X30695200Y-193441000D02*
X30652200Y-193386000D01*
X30741200Y-193493000D02*
X30695200Y-193441000D01*
X30760200Y-193511000D02*
X30741200Y-193493000D01*
X30738200Y-193550000D02*
X30760200Y-193511000D01*
X31240200Y-193774000D02*
X30738200Y-193550000D01*
X32322200Y-194167000D02*
X31240200Y-193774000D01*
X33429200Y-194485000D02*
X32322200Y-194167000D01*
X34556200Y-194724000D02*
X33429200Y-194485000D01*
X35696200Y-194885000D02*
X34556200Y-194724000D01*
X36845200Y-194965000D02*
X35696200Y-194885000D01*
X86824800Y-189475000D02*
X76017600Y-189475000D01*
X87129400Y-189388000D02*
X86824800Y-189475000D01*
X87916500Y-189101000D02*
X87129400Y-189388000D01*
X88681700Y-188761000D02*
X87916500Y-189101000D01*
X89421200Y-188367000D02*
X88681700Y-188761000D01*
X90131500Y-187923000D02*
X89421200Y-188367000D01*
X95217200Y-184620000D02*
X90131500Y-187923000D01*
X95499500Y-184415000D02*
X95217200Y-184620000D01*
X95766800Y-184191000D02*
X95499500Y-184415000D01*
X96017900Y-183948000D02*
X95766800Y-184191000D01*
X103053300Y-176811000D02*
X96017900Y-183948000D01*
X106605400Y-173109000D02*
X103053300Y-176811000D01*
X103546600Y-170050000D02*
X106605400Y-173109000D01*
X103503900Y-170292000D02*
X103546600Y-170050000D01*
X103441900Y-170882000D02*
X103503900Y-170292000D01*
X103421200Y-171475000D02*
X103441900Y-170882000D01*
X103430700Y-171746000D02*
X103421200Y-171475000D01*
X102129400Y-173528000D02*
X103430700Y-171746000D01*
X101613700Y-174188000D02*
X102129400Y-173528000D01*
X101053300Y-174811000D02*
X101613700Y-174188000D01*
X94017900Y-181948000D02*
X101053300Y-174811000D01*
X93766800Y-182191000D02*
X94017900Y-181948000D01*
X93499500Y-182415000D02*
X93766800Y-182191000D01*
X93217200Y-182620000D02*
X93499500Y-182415000D01*
X88131500Y-185923000D02*
X93217200Y-182620000D01*
X87421200Y-186367000D02*
X88131500Y-185923000D01*
X86681700Y-186761000D02*
X87421200Y-186367000D01*
X85916500Y-187101000D02*
X86681700Y-186761000D01*
X85129400Y-187388000D02*
X85916500Y-187101000D01*
X84324300Y-187619000D02*
X85129400Y-187388000D01*
X83505000Y-187793000D02*
X84324300Y-187619000D01*
X82675500Y-187909000D02*
X83505000Y-187793000D01*
X81840000Y-187968000D02*
X82675500Y-187909000D01*
X81002400Y-187968000D02*
X81840000Y-187968000D01*
X80166900Y-187909000D02*
X81002400Y-187968000D01*
X79337400Y-187793000D02*
X80166900Y-187909000D01*
X78518100Y-187619000D02*
X79337400Y-187793000D01*
X77713000Y-187388000D02*
X78518100Y-187619000D01*
X76925900Y-187101000D02*
X77713000Y-187388000D01*
X76160700Y-186761000D02*
X76925900Y-187101000D01*
X75421200Y-186367000D02*
X76160700Y-186761000D01*
X74710900Y-185923000D02*
X75421200Y-186367000D01*
X69625200Y-182620000D02*
X74710900Y-185923000D01*
X69342900Y-182415000D02*
X69625200Y-182620000D01*
X69075600Y-182191000D02*
X69342900Y-182415000D01*
X68824500Y-181948000D02*
X69075600Y-182191000D01*
X68591000Y-181689000D02*
X68824500Y-181948000D01*
X59359100Y-170488000D02*
X68591000Y-181689000D01*
X59338500Y-170292000D02*
X59359100Y-170488000D01*
X59235500Y-169708000D02*
X59338500Y-170292000D01*
X59116300Y-169230000D02*
X59235500Y-169708000D01*
X55815600Y-172530000D02*
X59116300Y-169230000D01*
X66824500Y-183948000D02*
X55815600Y-172530000D01*
X67075600Y-184191000D02*
X66824500Y-183948000D01*
X67342900Y-184415000D02*
X67075600Y-184191000D01*
X67625200Y-184620000D02*
X67342900Y-184415000D01*
X72710900Y-187923000D02*
X67625200Y-184620000D01*
X73421200Y-188367000D02*
X72710900Y-187923000D01*
X74160700Y-188761000D02*
X73421200Y-188367000D01*
X74925900Y-189101000D02*
X74160700Y-188761000D01*
X75713000Y-189388000D02*
X74925900Y-189101000D01*
X76017600Y-189475000D02*
X75713000Y-189388000D01*
X203824800Y-189475000D02*
X193017600Y-189475000D01*
X204129400Y-189388000D02*
X203824800Y-189475000D01*
X204916500Y-189101000D02*
X204129400Y-189388000D01*
X205681700Y-188761000D02*
X204916500Y-189101000D01*
X206421200Y-188367000D02*
X205681700Y-188761000D01*
X207131500Y-187923000D02*
X206421200Y-188367000D01*
X212217200Y-184620000D02*
X207131500Y-187923000D01*
X212499500Y-184415000D02*
X212217200Y-184620000D01*
X212766800Y-184191000D02*
X212499500Y-184415000D01*
X213017900Y-183948000D02*
X212766800Y-184191000D01*
X220053300Y-176811000D02*
X213017900Y-183948000D01*
X223605400Y-173109000D02*
X220053300Y-176811000D01*
X220546600Y-170050000D02*
X223605400Y-173109000D01*
X220503900Y-170292000D02*
X220546600Y-170050000D01*
X220441900Y-170882000D02*
X220503900Y-170292000D01*
X220421200Y-171475000D02*
X220441900Y-170882000D01*
X220430700Y-171746000D02*
X220421200Y-171475000D01*
X219129400Y-173528000D02*
X220430700Y-171746000D01*
X218613700Y-174188000D02*
X219129400Y-173528000D01*
X218053300Y-174811000D02*
X218613700Y-174188000D01*
X211017900Y-181948000D02*
X218053300Y-174811000D01*
X210766800Y-182191000D02*
X211017900Y-181948000D01*
X210499500Y-182415000D02*
X210766800Y-182191000D01*
X210217200Y-182620000D02*
X210499500Y-182415000D01*
X205131500Y-185923000D02*
X210217200Y-182620000D01*
X204421200Y-186367000D02*
X205131500Y-185923000D01*
X203681700Y-186761000D02*
X204421200Y-186367000D01*
X202916500Y-187101000D02*
X203681700Y-186761000D01*
X202129400Y-187388000D02*
X202916500Y-187101000D01*
X201324300Y-187619000D02*
X202129400Y-187388000D01*
X200505000Y-187793000D02*
X201324300Y-187619000D01*
X199675500Y-187909000D02*
X200505000Y-187793000D01*
X198840000Y-187968000D02*
X199675500Y-187909000D01*
X198002400Y-187968000D02*
X198840000Y-187968000D01*
X197166900Y-187909000D02*
X198002400Y-187968000D01*
X196337400Y-187793000D02*
X197166900Y-187909000D01*
X195518100Y-187619000D02*
X196337400Y-187793000D01*
X194713000Y-187388000D02*
X195518100Y-187619000D01*
X193925900Y-187101000D02*
X194713000Y-187388000D01*
X193160700Y-186761000D02*
X193925900Y-187101000D01*
X192421200Y-186367000D02*
X193160700Y-186761000D01*
X191710900Y-185923000D02*
X192421200Y-186367000D01*
X186625200Y-182620000D02*
X191710900Y-185923000D01*
X186342900Y-182415000D02*
X186625200Y-182620000D01*
X186075600Y-182191000D02*
X186342900Y-182415000D01*
X185824500Y-181948000D02*
X186075600Y-182191000D01*
X185591000Y-181689000D02*
X185824500Y-181948000D01*
X176359100Y-170488000D02*
X185591000Y-181689000D01*
X176338500Y-170292000D02*
X176359100Y-170488000D01*
X176235500Y-169708000D02*
X176338500Y-170292000D01*
X176116300Y-169230000D02*
X176235500Y-169708000D01*
X172815600Y-172530000D02*
X176116300Y-169230000D01*
X183824500Y-183948000D02*
X172815600Y-172530000D01*
X184075600Y-184191000D02*
X183824500Y-183948000D01*
X184342900Y-184415000D02*
X184075600Y-184191000D01*
X184625200Y-184620000D02*
X184342900Y-184415000D01*
X189710900Y-187923000D02*
X184625200Y-184620000D01*
X190421200Y-188367000D02*
X189710900Y-187923000D01*
X191160700Y-188761000D02*
X190421200Y-188367000D01*
X191925900Y-189101000D02*
X191160700Y-188761000D01*
X192713000Y-189388000D02*
X191925900Y-189101000D01*
X193017600Y-189475000D02*
X192713000Y-189388000D01*
X27707200Y-191800000D02*
X27263200Y-191477000D01*
X27729200Y-191761000D02*
X27707200Y-191800000D01*
X27755200Y-191769000D02*
X27729200Y-191761000D01*
X27823200Y-191783000D02*
X27755200Y-191769000D01*
X27892200Y-191793000D02*
X27823200Y-191783000D01*
X27962200Y-191798000D02*
X27892200Y-191793000D01*
X28032200Y-191798000D02*
X27962200Y-191798000D01*
X28101200Y-191793000D02*
X28032200Y-191798000D01*
X28170200Y-191783000D02*
X28101200Y-191793000D01*
X28239200Y-191769000D02*
X28170200Y-191783000D01*
X28306200Y-191749000D02*
X28239200Y-191769000D01*
X28371200Y-191726000D02*
X28306200Y-191749000D01*
X28435200Y-191697000D02*
X28371200Y-191726000D01*
X28497200Y-191664000D02*
X28435200Y-191697000D01*
X28556200Y-191627000D02*
X28497200Y-191664000D01*
X28612200Y-191586000D02*
X28556200Y-191627000D01*
X28666200Y-191541000D02*
X28612200Y-191586000D01*
X28716200Y-191493000D02*
X28666200Y-191541000D01*
X28763200Y-191441000D02*
X28716200Y-191493000D01*
X28806200Y-191386000D02*
X28763200Y-191441000D01*
X28845200Y-191328000D02*
X28806200Y-191386000D01*
X28880200Y-191268000D02*
X28845200Y-191328000D01*
X28910200Y-191205000D02*
X28880200Y-191268000D01*
X28936200Y-191140000D02*
X28910200Y-191205000D01*
X28958200Y-191074000D02*
X28936200Y-191140000D01*
X28975200Y-191006000D02*
X28958200Y-191074000D01*
X28987200Y-190938000D02*
X28975200Y-191006000D01*
X28994200Y-190868000D02*
X28987200Y-190938000D01*
X28997200Y-190798000D02*
X28994200Y-190868000D01*
X28994200Y-190729000D02*
X28997200Y-190798000D01*
X28987200Y-190659000D02*
X28994200Y-190729000D01*
X28975200Y-190590000D02*
X28987200Y-190659000D01*
X28958200Y-190523000D02*
X28975200Y-190590000D01*
X28936200Y-190456000D02*
X28958200Y-190523000D01*
X28910200Y-190392000D02*
X28936200Y-190456000D01*
X28880200Y-190329000D02*
X28910200Y-190392000D01*
X28845200Y-190268000D02*
X28880200Y-190329000D01*
X28806200Y-190211000D02*
X28845200Y-190268000D01*
X28763200Y-190156000D02*
X28806200Y-190211000D01*
X28716200Y-190104000D02*
X28763200Y-190156000D01*
X28697200Y-190085000D02*
X28716200Y-190104000D01*
X28712200Y-190060000D02*
X28697200Y-190085000D01*
X28494200Y-189901000D02*
X28712200Y-190060000D01*
X27719200Y-189251000D02*
X28494200Y-189901000D01*
X26991200Y-188548000D02*
X27719200Y-189251000D01*
X26313200Y-187795000D02*
X26991200Y-188548000D01*
X25690200Y-186998000D02*
X26313200Y-187795000D01*
X25124200Y-186159000D02*
X25690200Y-186998000D01*
X24618200Y-185282000D02*
X25124200Y-186159000D01*
X24175200Y-184373000D02*
X24618200Y-185282000D01*
X23795200Y-183434000D02*
X24175200Y-184373000D01*
X23483200Y-182472000D02*
X23795200Y-183434000D01*
X23238200Y-181490000D02*
X23483200Y-182472000D01*
X23062200Y-180493000D02*
X23238200Y-181490000D01*
X22956200Y-179486000D02*
X23062200Y-180493000D01*
X22921200Y-178475000D02*
X22956200Y-179486000D01*
X22956200Y-177464000D02*
X22921200Y-178475000D01*
X23062200Y-176457000D02*
X22956200Y-177464000D01*
X23238200Y-175460000D02*
X23062200Y-176457000D01*
X23483200Y-174478000D02*
X23238200Y-175460000D01*
X23795200Y-173516000D02*
X23483200Y-174478000D01*
X24175200Y-172577000D02*
X23795200Y-173516000D01*
X24618200Y-171668000D02*
X24175200Y-172577000D01*
X25124200Y-170791000D02*
X24618200Y-171668000D01*
X25690200Y-169952000D02*
X25124200Y-170791000D01*
X26313200Y-169155000D02*
X25690200Y-169952000D01*
X26991200Y-168402000D02*
X26313200Y-169155000D01*
X27719200Y-167699000D02*
X26991200Y-168402000D01*
X28494200Y-167048900D02*
X27719200Y-167699000D01*
X28712200Y-166890500D02*
X28494200Y-167048900D01*
X28697200Y-166864600D02*
X28712200Y-166890500D01*
X28716200Y-166846300D02*
X28697200Y-166864600D01*
X28763200Y-166794400D02*
X28716200Y-166846300D01*
X28806200Y-166739400D02*
X28763200Y-166794400D01*
X28845200Y-166681500D02*
X28806200Y-166739400D01*
X28880200Y-166621100D02*
X28845200Y-166681500D01*
X28910200Y-166558400D02*
X28880200Y-166621100D01*
X28936200Y-166493600D02*
X28910200Y-166558400D01*
X28958200Y-166427300D02*
X28936200Y-166493600D01*
X28975200Y-166359500D02*
X28958200Y-166427300D01*
X28987200Y-166290800D02*
X28975200Y-166359500D01*
X28994200Y-166221400D02*
X28987200Y-166290800D01*
X28997200Y-166151600D02*
X28994200Y-166221400D01*
X28994200Y-166081900D02*
X28997200Y-166151600D01*
X28987200Y-166012500D02*
X28994200Y-166081900D01*
X28975200Y-165943700D02*
X28987200Y-166012500D01*
X28958200Y-165876000D02*
X28975200Y-165943700D01*
X28936200Y-165809600D02*
X28958200Y-165876000D01*
X28910200Y-165744900D02*
X28936200Y-165809600D01*
X28880200Y-165682200D02*
X28910200Y-165744900D01*
X28845200Y-165621700D02*
X28880200Y-165682200D01*
X28806200Y-165563900D02*
X28845200Y-165621700D01*
X28763200Y-165508900D02*
X28806200Y-165563900D01*
X28716200Y-165457000D02*
X28763200Y-165508900D01*
X28666200Y-165408500D02*
X28716200Y-165457000D01*
X28612200Y-165363600D02*
X28666200Y-165408500D01*
X28556200Y-165322600D02*
X28612200Y-165363600D01*
X28497200Y-165285600D02*
X28556200Y-165322600D01*
X28435200Y-165252900D02*
X28497200Y-165285600D01*
X28371200Y-165224500D02*
X28435200Y-165252900D01*
X28306200Y-165200600D02*
X28371200Y-165224500D01*
X28239200Y-165181300D02*
X28306200Y-165200600D01*
X28170200Y-165166800D02*
X28239200Y-165181300D01*
X28101200Y-165157100D02*
X28170200Y-165166800D01*
X28032200Y-165152200D02*
X28101200Y-165157100D01*
X27962200Y-165152200D02*
X28032200Y-165152200D01*
X27892200Y-165157100D02*
X27962200Y-165152200D01*
X27823200Y-165166800D02*
X27892200Y-165157100D01*
X27755200Y-165181300D02*
X27823200Y-165166800D01*
X27729200Y-165188600D02*
X27755200Y-165181300D01*
X27707200Y-165149900D02*
X27729200Y-165188600D01*
X27263200Y-165472800D02*
X27707200Y-165149900D01*
X26380200Y-166213100D02*
X27263200Y-165472800D01*
X25552200Y-167013100D02*
X26380200Y-166213100D01*
X24781200Y-167869000D02*
X25552200Y-167013100D01*
X24072200Y-168777000D02*
X24781200Y-167869000D01*
X23428200Y-169731000D02*
X24072200Y-168777000D01*
X22852200Y-170729000D02*
X23428200Y-169731000D01*
X22348200Y-171764000D02*
X22852200Y-170729000D01*
X21916200Y-172832000D02*
X22348200Y-171764000D01*
X21560200Y-173927000D02*
X21916200Y-172832000D01*
X21282200Y-175044000D02*
X21560200Y-173927000D01*
X21082200Y-176179000D02*
X21282200Y-175044000D01*
X20961200Y-177324000D02*
X21082200Y-176179000D01*
X20921200Y-178475000D02*
X20961200Y-177324000D01*
X20961200Y-179626000D02*
X20921200Y-178475000D01*
X21082200Y-180771000D02*
X20961200Y-179626000D01*
X21282200Y-181906000D02*
X21082200Y-180771000D01*
X21560200Y-183023000D02*
X21282200Y-181906000D01*
X21916200Y-184118000D02*
X21560200Y-183023000D01*
X22348200Y-185186000D02*
X21916200Y-184118000D01*
X22852200Y-186221000D02*
X22348200Y-185186000D01*
X23428200Y-187219000D02*
X22852200Y-186221000D01*
X24072200Y-188173000D02*
X23428200Y-187219000D01*
X24781200Y-189081000D02*
X24072200Y-188173000D01*
X25552200Y-189937000D02*
X24781200Y-189081000D01*
X26380200Y-190737000D02*
X25552200Y-189937000D01*
X27263200Y-191477000D02*
X26380200Y-190737000D01*
X233707200Y-191800000D02*
X233262800Y-191477000D01*
X233729600Y-191761000D02*
X233707200Y-191800000D01*
X233755000Y-191769000D02*
X233729600Y-191761000D01*
X233823300Y-191783000D02*
X233755000Y-191769000D01*
X233892400Y-191793000D02*
X233823300Y-191783000D01*
X233962000Y-191798000D02*
X233892400Y-191793000D01*
X234031800Y-191798000D02*
X233962000Y-191798000D01*
X234101500Y-191793000D02*
X234031800Y-191798000D01*
X234170600Y-191783000D02*
X234101500Y-191793000D01*
X234238800Y-191769000D02*
X234170600Y-191783000D01*
X234305900Y-191749000D02*
X234238800Y-191769000D01*
X234371500Y-191726000D02*
X234305900Y-191749000D01*
X234435300Y-191697000D02*
X234371500Y-191726000D01*
X234496900Y-191664000D02*
X234435300Y-191697000D01*
X234556100Y-191627000D02*
X234496900Y-191664000D01*
X234612600Y-191586000D02*
X234556100Y-191627000D01*
X234666000Y-191541000D02*
X234612600Y-191586000D01*
X234716300Y-191493000D02*
X234666000Y-191541000D01*
X234763000Y-191441000D02*
X234716300Y-191493000D01*
X234805900Y-191386000D02*
X234763000Y-191441000D01*
X234845000Y-191328000D02*
X234805900Y-191386000D01*
X234879900Y-191268000D02*
X234845000Y-191328000D01*
X234910400Y-191205000D02*
X234879900Y-191268000D01*
X234936600Y-191140000D02*
X234910400Y-191205000D01*
X234958200Y-191074000D02*
X234936600Y-191140000D01*
X234975100Y-191006000D02*
X234958200Y-191074000D01*
X234987200Y-190938000D02*
X234975100Y-191006000D01*
X234994500Y-190868000D02*
X234987200Y-190938000D01*
X234996900Y-190798000D02*
X234994500Y-190868000D01*
X234994500Y-190729000D02*
X234996900Y-190798000D01*
X234987200Y-190659000D02*
X234994500Y-190729000D01*
X234975000Y-190590000D02*
X234987200Y-190659000D01*
X234958200Y-190523000D02*
X234975000Y-190590000D01*
X234936600Y-190456000D02*
X234958200Y-190523000D01*
X234910500Y-190392000D02*
X234936600Y-190456000D01*
X234879900Y-190329000D02*
X234910500Y-190392000D01*
X234845000Y-190268000D02*
X234879900Y-190329000D01*
X234805900Y-190211000D02*
X234845000Y-190268000D01*
X234763000Y-190156000D02*
X234805900Y-190211000D01*
X234716300Y-190104000D02*
X234763000Y-190156000D01*
X234697200Y-190085000D02*
X234716300Y-190104000D01*
X234712100Y-190060000D02*
X234697200Y-190085000D01*
X234494100Y-189901000D02*
X234712100Y-190060000D01*
X233718800Y-189251000D02*
X234494100Y-189901000D01*
X232990800Y-188548000D02*
X233718800Y-189251000D01*
X232313600Y-187795000D02*
X232990800Y-188548000D01*
X231690500Y-186998000D02*
X232313600Y-187795000D01*
X231124500Y-186159000D02*
X231690500Y-186998000D01*
X230618500Y-185282000D02*
X231124500Y-186159000D01*
X230174800Y-184373000D02*
X230618500Y-185282000D01*
X229795700Y-183434000D02*
X230174800Y-184373000D01*
X229482900Y-182472000D02*
X229795700Y-183434000D01*
X229238100Y-181490000D02*
X229482900Y-182472000D01*
X229062300Y-180493000D02*
X229238100Y-181490000D01*
X228956500Y-179486000D02*
X229062300Y-180493000D01*
X228921200Y-178475000D02*
X228956500Y-179486000D01*
X228956500Y-177464000D02*
X228921200Y-178475000D01*
X229062300Y-176457000D02*
X228956500Y-177464000D01*
X229238100Y-175460000D02*
X229062300Y-176457000D01*
X229482900Y-174478000D02*
X229238100Y-175460000D01*
X229795700Y-173516000D02*
X229482900Y-174478000D01*
X230174800Y-172577000D02*
X229795700Y-173516000D01*
X230618500Y-171668000D02*
X230174800Y-172577000D01*
X231124500Y-170791000D02*
X230618500Y-171668000D01*
X231690500Y-169952000D02*
X231124500Y-170791000D01*
X232313600Y-169155000D02*
X231690500Y-169952000D01*
X232990800Y-168402000D02*
X232313600Y-169155000D01*
X233718800Y-167699000D02*
X232990800Y-168402000D01*
X25737200Y7693000D02*
X26017200Y7381700D01*
X43729900Y42956000D02*
X31730200Y31956500D01*
X76518100Y-65618540D02*
X75713000Y-65387670D01*
X77337400Y-65792690D02*
X76518100Y-65618540D01*
X78166900Y-65909250D02*
X77337400Y-65792690D01*
X79002400Y-65967680D02*
X78166900Y-65909250D01*
X27707200Y-71800070D02*
X27263200Y-71477170D01*
X27729200Y-71761360D02*
X27707200Y-71800070D01*
X27755200Y-71768660D02*
X27729200Y-71761360D01*
X27823200Y-71783170D02*
X27755200Y-71768660D01*
X27892200Y-71792870D02*
X27823200Y-71783170D01*
X27962200Y-71797750D02*
X27892200Y-71792870D01*
X28032200Y-71797750D02*
X27962200Y-71797750D01*
X28101200Y-71792890D02*
X28032200Y-71797750D01*
X28170200Y-71783170D02*
X28101200Y-71792890D01*
X28239200Y-71768660D02*
X28170200Y-71783170D01*
X28306200Y-71749410D02*
X28239200Y-71768660D01*
X28371200Y-71725550D02*
X28306200Y-71749410D01*
X28435200Y-71697140D02*
X28371200Y-71725550D01*
X28497200Y-71664380D02*
X28435200Y-71697140D01*
X28556200Y-71627390D02*
X28497200Y-71664380D01*
X28612200Y-71586360D02*
X28556200Y-71627390D01*
X28666200Y-71541500D02*
X28612200Y-71586360D01*
X28716200Y-71493020D02*
X28666200Y-71541500D01*
X28763200Y-71441140D02*
X28716200Y-71493020D01*
X28806200Y-71386150D02*
X28763200Y-71441140D01*
X28845200Y-71328290D02*
X28806200Y-71386150D01*
X28880200Y-71267850D02*
X28845200Y-71328290D01*
X28910200Y-71205100D02*
X28880200Y-71267850D01*
X28936200Y-71140390D02*
X28910200Y-71205100D01*
X28958200Y-71074000D02*
X28936200Y-71140390D01*
X28975200Y-71006280D02*
X28958200Y-71074000D01*
X28987200Y-70937540D02*
X28975200Y-71006280D01*
X28994200Y-70868130D02*
X28987200Y-70937540D01*
X28997200Y-70798360D02*
X28994200Y-70868130D01*
X28994200Y-70728620D02*
X28997200Y-70798360D01*
X28987200Y-70659200D02*
X28994200Y-70728620D01*
X28975200Y-70590460D02*
X28987200Y-70659200D01*
X28958200Y-70522730D02*
X28975200Y-70590460D01*
X28936200Y-70456350D02*
X28958200Y-70522730D01*
X28910200Y-70391630D02*
X28936200Y-70456350D01*
X28880200Y-70328900D02*
X28910200Y-70391630D01*
X28845200Y-70268460D02*
X28880200Y-70328900D01*
X28806200Y-70210580D02*
X28845200Y-70268460D01*
X28763200Y-70155570D02*
X28806200Y-70210580D01*
X28716200Y-70103720D02*
X28763200Y-70155570D01*
X28697200Y-70085350D02*
X28716200Y-70103720D01*
X28712200Y-70059550D02*
X28697200Y-70085350D01*
X28494200Y-69901150D02*
X28712200Y-70059550D01*
X27719200Y-69250590D02*
X28494200Y-69901150D01*
X26991200Y-68547540D02*
X27719200Y-69250590D01*
X26313200Y-67795419D02*
X26991200Y-68547540D01*
X25690200Y-66997873D02*
X26313200Y-67795419D01*
X25124200Y-66158820D02*
X25690200Y-66997873D01*
X24618200Y-65282330D02*
X25124200Y-66158820D01*
X24175200Y-64372670D02*
X24618200Y-65282330D01*
X23795200Y-63434290D02*
X24175200Y-64372670D01*
X23483200Y-62471730D02*
X23795200Y-63434290D01*
X23238200Y-61489710D02*
X23483200Y-62471730D01*
X23062200Y-60493010D02*
X23238200Y-61489710D01*
X22956200Y-59486460D02*
X23062200Y-60493010D01*
X22921200Y-58475000D02*
X22956200Y-59486460D01*
X22956200Y-57463500D02*
X22921200Y-58475000D01*
X23062200Y-56457000D02*
X22956200Y-57463500D01*
X23238200Y-55460300D02*
X23062200Y-56457000D01*
X23483200Y-54478300D02*
X23238200Y-55460300D01*
X23795200Y-53515700D02*
X23483200Y-54478300D01*
X24175200Y-52577300D02*
X23795200Y-53515700D01*
X24618200Y-51667700D02*
X24175200Y-52577300D01*
X25124200Y-50791200D02*
X24618200Y-51667700D01*
X25690200Y-49952100D02*
X25124200Y-50791200D01*
X26313200Y-49154600D02*
X25690200Y-49952100D01*
X26991200Y-48402500D02*
X26313200Y-49154600D01*
X27719200Y-47699400D02*
X26991200Y-48402500D01*
X28494200Y-47048900D02*
X27719200Y-47699400D01*
X28712200Y-46890500D02*
X28494200Y-47048900D01*
X28697200Y-46864600D02*
X28712200Y-46890500D01*
X28716200Y-46846300D02*
X28697200Y-46864600D01*
X28763200Y-46794400D02*
X28716200Y-46846300D01*
X28806200Y-46739400D02*
X28763200Y-46794400D01*
X28845200Y-46681500D02*
X28806200Y-46739400D01*
X28880200Y-46621100D02*
X28845200Y-46681500D01*
X28910200Y-46558400D02*
X28880200Y-46621100D01*
X28936200Y-46493600D02*
X28910200Y-46558400D01*
X28958200Y-46427300D02*
X28936200Y-46493600D01*
X28975200Y-46359500D02*
X28958200Y-46427300D01*
X28987200Y-46290800D02*
X28975200Y-46359500D01*
X28994200Y-46221400D02*
X28987200Y-46290800D01*
X28997200Y-46151600D02*
X28994200Y-46221400D01*
X28994200Y-46081900D02*
X28997200Y-46151600D01*
X28987200Y-46012500D02*
X28994200Y-46081900D01*
X28975200Y-45943700D02*
X28987200Y-46012500D01*
X28958200Y-45876000D02*
X28975200Y-45943700D01*
X28936200Y-45809600D02*
X28958200Y-45876000D01*
X28910200Y-45744900D02*
X28936200Y-45809600D01*
X28880200Y-45682200D02*
X28910200Y-45744900D01*
X28845200Y-45621700D02*
X28880200Y-45682200D01*
X28806200Y-45563900D02*
X28845200Y-45621700D01*
X28763200Y-45508900D02*
X28806200Y-45563900D01*
X28716200Y-45457000D02*
X28763200Y-45508900D01*
X28666200Y-45408500D02*
X28716200Y-45457000D01*
X28612200Y-45363600D02*
X28666200Y-45408500D01*
X28556200Y-45322600D02*
X28612200Y-45363600D01*
X28497200Y-45285600D02*
X28556200Y-45322600D01*
X28435200Y-45252900D02*
X28497200Y-45285600D01*
X28371200Y-45224500D02*
X28435200Y-45252900D01*
X28306200Y-45200600D02*
X28371200Y-45224500D01*
X28239200Y-45181300D02*
X28306200Y-45200600D01*
X28170200Y-45166800D02*
X28239200Y-45181300D01*
X28101200Y-45157100D02*
X28170200Y-45166800D01*
X28032200Y-45152200D02*
X28101200Y-45157100D01*
X27962200Y-45152200D02*
X28032200Y-45152200D01*
X27892200Y-45157100D02*
X27962200Y-45152200D01*
X27823200Y-45166800D02*
X27892200Y-45157100D01*
X27755200Y-45181300D02*
X27823200Y-45166800D01*
X27729200Y-45188600D02*
X27755200Y-45181300D01*
X27707200Y-45149900D02*
X27729200Y-45188600D01*
X27263200Y-45472800D02*
X27707200Y-45149900D01*
X26380200Y-46213100D02*
X27263200Y-45472800D01*
X25552200Y-47013100D02*
X26380200Y-46213100D01*
X24781200Y-47869000D02*
X25552200Y-47013100D01*
X24072200Y-48776500D02*
X24781200Y-47869000D01*
X23428200Y-49731300D02*
X24072200Y-48776500D01*
X22852200Y-50728700D02*
X23428200Y-49731300D01*
X22348200Y-51763800D02*
X22852200Y-50728700D01*
X21916200Y-52831700D02*
X22348200Y-51763800D01*
X21560200Y-53927000D02*
X21916200Y-52831700D01*
X21282200Y-55044500D02*
X21560200Y-53927000D01*
X21082200Y-56178700D02*
X21282200Y-55044500D01*
X20961200Y-57324000D02*
X21082200Y-56178700D01*
X20921200Y-58475000D02*
X20961200Y-57324000D01*
X20961200Y-59625970D02*
X20921200Y-58475000D01*
X21082200Y-60771340D02*
X20961200Y-59625970D01*
X21282200Y-61905540D02*
X21082200Y-60771340D01*
X21560200Y-63023000D02*
X21282200Y-61905540D01*
X21916200Y-64118330D02*
X21560200Y-63023000D01*
X22348200Y-65186150D02*
X21916200Y-64118330D01*
X22852200Y-66221280D02*
X22348200Y-65186150D01*
X23428200Y-67218668D02*
X22852200Y-66221280D01*
X24072200Y-68173456D02*
X23428200Y-67218668D01*
X24781200Y-69080990D02*
X24072200Y-68173456D01*
X25552200Y-69936850D02*
X24781200Y-69080990D01*
X26380200Y-70736890D02*
X25552200Y-69936850D01*
X27263200Y-71477170D02*
X26380200Y-70736890D01*
X233707200Y-71800070D02*
X233262800Y-71477170D01*
X233729600Y-71761360D02*
X233707200Y-71800070D01*
X233755000Y-71768660D02*
X233729600Y-71761360D01*
X233823300Y-71783170D02*
X233755000Y-71768660D01*
X233892400Y-71792870D02*
X233823300Y-71783170D01*
X233962000Y-71797750D02*
X233892400Y-71792870D01*
X234031800Y-71797750D02*
X233962000Y-71797750D01*
X234101500Y-71792890D02*
X234031800Y-71797750D01*
X234170600Y-71783170D02*
X234101500Y-71792890D01*
X234238800Y-71768660D02*
X234170600Y-71783170D01*
X234305900Y-71749410D02*
X234238800Y-71768660D01*
X234371500Y-71725550D02*
X234305900Y-71749410D01*
X234435300Y-71697140D02*
X234371500Y-71725550D01*
X234496900Y-71664380D02*
X234435300Y-71697140D01*
X234556100Y-71627390D02*
X234496900Y-71664380D01*
X234612600Y-71586360D02*
X234556100Y-71627390D01*
X234666000Y-71541500D02*
X234612600Y-71586360D01*
X234716300Y-71493020D02*
X234666000Y-71541500D01*
X234763000Y-71441140D02*
X234716300Y-71493020D01*
X234805900Y-71386150D02*
X234763000Y-71441140D01*
X234845000Y-71328290D02*
X234805900Y-71386150D01*
X234879900Y-71267850D02*
X234845000Y-71328290D01*
X234910400Y-71205100D02*
X234879900Y-71267850D01*
X234936600Y-71140390D02*
X234910400Y-71205100D01*
X234958200Y-71074000D02*
X234936600Y-71140390D01*
X234975100Y-71006280D02*
X234958200Y-71074000D01*
X234987200Y-70937540D02*
X234975100Y-71006280D01*
X234994500Y-70868130D02*
X234987200Y-70937540D01*
X234996900Y-70798360D02*
X234994500Y-70868130D01*
X234994500Y-70728620D02*
X234996900Y-70798360D01*
X234987200Y-70659200D02*
X234994500Y-70728620D01*
X234975000Y-70590460D02*
X234987200Y-70659200D01*
X234958200Y-70522730D02*
X234975000Y-70590460D01*
X234936600Y-70456350D02*
X234958200Y-70522730D01*
X234910500Y-70391630D02*
X234936600Y-70456350D01*
X234879900Y-70328900D02*
X234910500Y-70391630D01*
X234845000Y-70268460D02*
X234879900Y-70328900D01*
X234805900Y-70210580D02*
X234845000Y-70268460D01*
X234763000Y-70155570D02*
X234805900Y-70210580D01*
X234716300Y-70103720D02*
X234763000Y-70155570D01*
X234697200Y-70085350D02*
X234716300Y-70103720D01*
X234712100Y-70059550D02*
X234697200Y-70085350D01*
X234494100Y-69901150D02*
X234712100Y-70059550D01*
X233718800Y-69250590D02*
X234494100Y-69901150D01*
X232990800Y-68547540D02*
X233718800Y-69250590D01*
X232313600Y-67795419D02*
X232990800Y-68547540D01*
X231690500Y-66997873D02*
X232313600Y-67795419D01*
X231124500Y-66158820D02*
X231690500Y-66997873D01*
X230618500Y-65282330D02*
X231124500Y-66158820D01*
X230174800Y-64372670D02*
X230618500Y-65282330D01*
X229795700Y-63434290D02*
X230174800Y-64372670D01*
X229482900Y-62471730D02*
X229795700Y-63434290D01*
X229238100Y-61489710D02*
X229482900Y-62471730D01*
X229062300Y-60493010D02*
X229238100Y-61489710D01*
X228956500Y-59486460D02*
X229062300Y-60493010D01*
X228921200Y-58475000D02*
X228956500Y-59486460D01*
X228956500Y-57463500D02*
X228921200Y-58475000D01*
X229062300Y-56457000D02*
X228956500Y-57463500D01*
X229238100Y-55460300D02*
X229062300Y-56457000D01*
X229482900Y-54478300D02*
X229238100Y-55460300D01*
X229795700Y-53515700D02*
X229482900Y-54478300D01*
X230174800Y-52577300D02*
X229795700Y-53515700D01*
X230618500Y-51667700D02*
X230174800Y-52577300D01*
X231124500Y-50791200D02*
X230618500Y-51667700D01*
X231690500Y-49952100D02*
X231124500Y-50791200D01*
X232313600Y-49154600D02*
X231690500Y-49952100D01*
X232990800Y-48402500D02*
X232313600Y-49154600D01*
X233718800Y-47699400D02*
X232990800Y-48402500D01*
X234494100Y-47048900D02*
X233718800Y-47699400D01*
X234712100Y-46890500D02*
X234494100Y-47048900D01*
X234697200Y-46864600D02*
X234712100Y-46890500D01*
X234716300Y-46846300D02*
X234697200Y-46864600D01*
X234763000Y-46794400D02*
X234716300Y-46846300D01*
X234805900Y-46739400D02*
X234763000Y-46794400D01*
X234845000Y-46681500D02*
X234805900Y-46739400D01*
X234879900Y-46621100D02*
X234845000Y-46681500D01*
X234910500Y-46558400D02*
X234879900Y-46621100D01*
X234936600Y-46493600D02*
X234910500Y-46558400D01*
X234958200Y-46427300D02*
X234936600Y-46493600D01*
X234975000Y-46359500D02*
X234958200Y-46427300D01*
X234987200Y-46290800D02*
X234975000Y-46359500D01*
X234994500Y-46221400D02*
X234987200Y-46290800D01*
X234996900Y-46151600D02*
X234994500Y-46221400D01*
X234994500Y-46081900D02*
X234996900Y-46151600D01*
X234987200Y-46012500D02*
X234994500Y-46081900D01*
X234975100Y-45943700D02*
X234987200Y-46012500D01*
X234958200Y-45876000D02*
X234975100Y-45943700D01*
X234936600Y-45809600D02*
X234958200Y-45876000D01*
X234910400Y-45744900D02*
X234936600Y-45809600D01*
X234879900Y-45682200D02*
X234910400Y-45744900D01*
X234845000Y-45621700D02*
X234879900Y-45682200D01*
X234805900Y-45563900D02*
X234845000Y-45621700D01*
X234763000Y-45508900D02*
X234805900Y-45563900D01*
X234716300Y-45457000D02*
X234763000Y-45508900D01*
X234666000Y-45408500D02*
X234716300Y-45457000D01*
X234612600Y-45363600D02*
X234666000Y-45408500D01*
X234556100Y-45322600D02*
X234612600Y-45363600D01*
X234496900Y-45285600D02*
X234556100Y-45322600D01*
X234435300Y-45252900D02*
X234496900Y-45285600D01*
X234371500Y-45224500D02*
X234435300Y-45252900D01*
X234305900Y-45200600D02*
X234371500Y-45224500D01*
X234238800Y-45181300D02*
X234305900Y-45200600D01*
X234170600Y-45166800D02*
X234238800Y-45181300D01*
X234101500Y-45157100D02*
X234170600Y-45166800D01*
X234031800Y-45152200D02*
X234101500Y-45157100D01*
X233962000Y-45152200D02*
X234031800Y-45152200D01*
X233892400Y-45157100D02*
X233962000Y-45152200D01*
X233823300Y-45166800D02*
X233892400Y-45157100D01*
X233755000Y-45181300D02*
X233823300Y-45166800D01*
X233729600Y-45188600D02*
X233755000Y-45181300D01*
X233707200Y-45149900D02*
X233729600Y-45188600D01*
X233262800Y-45472800D02*
X233707200Y-45149900D01*
X232380600Y-46213100D02*
X233262800Y-45472800D01*
X231552100Y-47013100D02*
X232380600Y-46213100D01*
X230781500Y-47869000D02*
X231552100Y-47013100D01*
X230072400Y-48776500D02*
X230781500Y-47869000D01*
X229428400Y-49731300D02*
X230072400Y-48776500D01*
X228852600Y-50728700D02*
X229428400Y-49731300D01*
X228347700Y-51763800D02*
X228852600Y-50728700D01*
X227916300Y-52831700D02*
X228347700Y-51763800D01*
X227560400Y-53927000D02*
X227916300Y-52831700D01*
X227281800Y-55044500D02*
X227560400Y-53927000D01*
X227081800Y-56178700D02*
X227281800Y-55044500D01*
X226961400Y-57324000D02*
X227081800Y-56178700D01*
X226921200Y-58475000D02*
X226961400Y-57324000D01*
X226961400Y-59625970D02*
X226921200Y-58475000D01*
X227081800Y-60771340D02*
X226961400Y-59625970D01*
X227281800Y-61905540D02*
X227081800Y-60771340D01*
X227560400Y-63023000D02*
X227281800Y-61905540D01*
X227916300Y-64118330D02*
X227560400Y-63023000D01*
X228347700Y-65186150D02*
X227916300Y-64118330D01*
X228852600Y-66221280D02*
X228347700Y-65186150D01*
X229428400Y-67218668D02*
X228852600Y-66221280D01*
X230072400Y-68173456D02*
X229428400Y-67218668D01*
X230781500Y-69080990D02*
X230072400Y-68173456D01*
X231552100Y-69936850D02*
X230781500Y-69080990D01*
X232380600Y-70736890D02*
X231552100Y-69936850D01*
X233262800Y-71477170D02*
X232380600Y-70736890D01*
X52840600Y-57474400D02*
X52770800Y-57474400D01*
X52910200Y-57469500D02*
X52840600Y-57474400D01*
X52979300Y-57459800D02*
X52910200Y-57469500D01*
X53047600Y-57445300D02*
X52979300Y-57459800D01*
X53114700Y-57426100D02*
X53047600Y-57445300D01*
X53180300Y-57402200D02*
X53114700Y-57426100D01*
X53244100Y-57373800D02*
X53180300Y-57402200D01*
X53305700Y-57341000D02*
X53244100Y-57373800D01*
X53364900Y-57304000D02*
X53305700Y-57341000D01*
X53421400Y-57263000D02*
X53364900Y-57304000D01*
X53474800Y-57218100D02*
X53421400Y-57263000D01*
X53525000Y-57169700D02*
X53474800Y-57218100D01*
X53571700Y-57117800D02*
X53525000Y-57169700D01*
X53614700Y-57062800D02*
X53571700Y-57117800D01*
X53653700Y-57004900D02*
X53614700Y-57062800D01*
X53688600Y-56944500D02*
X53653700Y-57004900D01*
X53719200Y-56881700D02*
X53688600Y-56944500D01*
X53745400Y-56817000D02*
X53719200Y-56881700D01*
X53766900Y-56750700D02*
X53745400Y-56817000D01*
X53773300Y-56725000D02*
X53766900Y-56750700D01*
X53818000Y-56725000D02*
X53773300Y-56725000D01*
X53760600Y-56178700D02*
X53818000Y-56725000D01*
X53560600Y-55044500D02*
X53760600Y-56178700D01*
X53282000Y-53927000D02*
X53560600Y-55044500D01*
X52926100Y-52831700D02*
X53282000Y-53927000D01*
X52494700Y-51763800D02*
X52926100Y-52831700D01*
X51989800Y-50728700D02*
X52494700Y-51763800D01*
X51414000Y-49731300D02*
X51989800Y-50728700D01*
X50770000Y-48776500D02*
X51414000Y-49731300D01*
X50060900Y-47869000D02*
X50770000Y-48776500D01*
X49290300Y-47013100D02*
X50060900Y-47869000D01*
X48461800Y-46213100D02*
X49290300Y-47013100D01*
X47579600Y-45472800D02*
X48461800Y-46213100D01*
X46647900Y-44795900D02*
X47579600Y-45472800D01*
X45671200Y-44185600D02*
X46647900Y-44795900D01*
X44654300Y-43644900D02*
X45671200Y-44185600D01*
X43602200Y-43176500D02*
X44654300Y-43644900D01*
X42520000Y-42782600D02*
X43602200Y-43176500D01*
X41412900Y-42465100D02*
X42520000Y-42782600D01*
X40286200Y-42225700D02*
X41412900Y-42465100D01*
X39146200Y-42065400D02*
X40286200Y-42225700D01*
X37997200Y-41985100D02*
X39146200Y-42065400D01*
X36845200Y-41985100D02*
X37997200Y-41985100D01*
X35696200Y-42065400D02*
X36845200Y-41985100D01*
X34556200Y-42225700D02*
X35696200Y-42065400D01*
X33429200Y-42465100D02*
X34556200Y-42225700D01*
X32322200Y-42782600D02*
X33429200Y-42465100D01*
X31240200Y-43176500D02*
X32322200Y-42782600D01*
X30738200Y-43399900D02*
X31240200Y-43176500D01*
X30760200Y-43438600D02*
X30738200Y-43399900D01*
X30741200Y-43457000D02*
X30760200Y-43438600D01*
X30695200Y-43508900D02*
X30741200Y-43457000D01*
X30652200Y-43563900D02*
X30695200Y-43508900D01*
X30613200Y-43621700D02*
X30652200Y-43563900D01*
X30578200Y-43682200D02*
X30613200Y-43621700D01*
X30547200Y-43744900D02*
X30578200Y-43682200D01*
X30521200Y-43809600D02*
X30547200Y-43744900D01*
X30500200Y-43876000D02*
X30521200Y-43809600D01*
X30483200Y-43943700D02*
X30500200Y-43876000D01*
X30471200Y-44012500D02*
X30483200Y-43943700D01*
X30463200Y-44081900D02*
X30471200Y-44012500D01*
X30461200Y-44151700D02*
X30463200Y-44081900D01*
X30463200Y-44221400D02*
X30461200Y-44151700D01*
X236652000Y-44739400D02*
X236612900Y-44681600D01*
X236695000Y-44794400D02*
X236652000Y-44739400D01*
X236741700Y-44846300D02*
X236695000Y-44794400D01*
X236791900Y-44894800D02*
X236741700Y-44846300D01*
X236845300Y-44939600D02*
X236791900Y-44894800D01*
X236901800Y-44980700D02*
X236845300Y-44939600D01*
X236961000Y-45017700D02*
X236901800Y-44980700D01*
X237022600Y-45050400D02*
X236961000Y-45017700D01*
X237086400Y-45078800D02*
X237022600Y-45050400D01*
X237152000Y-45102700D02*
X237086400Y-45078800D01*
X237219100Y-45121900D02*
X237152000Y-45102700D01*
X237287300Y-45136400D02*
X237219100Y-45121900D01*
X237356500Y-45146200D02*
X237287300Y-45136400D01*
X237426100Y-45151000D02*
X237356500Y-45146200D01*
X237495900Y-45151000D02*
X237426100Y-45151000D01*
X237565500Y-45146200D02*
X237495900Y-45151000D01*
X237634700Y-45136500D02*
X237565500Y-45146200D01*
X237702900Y-45121900D02*
X237634700Y-45136500D01*
X237728300Y-45114600D02*
X237702900Y-45121900D01*
X237743200Y-45140500D02*
X237728300Y-45114600D01*
X237989400Y-45030800D02*
X237743200Y-45140500D01*
X238940500Y-44684700D02*
X237989400Y-45030800D01*
X239913300Y-44405700D02*
X238940500Y-44684700D01*
X240903200Y-44195300D02*
X239913300Y-44405700D01*
X241905200Y-44054400D02*
X240903200Y-44195300D01*
X242915200Y-43983800D02*
X241905200Y-44054400D01*
X243927200Y-43983800D02*
X242915200Y-43983800D01*
X244937200Y-44054400D02*
X243927200Y-43983800D01*
X245939200Y-44195300D02*
X244937200Y-44054400D01*
X246929200Y-44405700D02*
X245939200Y-44195300D01*
X247902200Y-44684700D02*
X246929200Y-44405700D01*
X248853200Y-45030800D02*
X247902200Y-44684700D01*
X249777200Y-45442500D02*
X248853200Y-45030800D01*
X250671200Y-45917600D02*
X249777200Y-45442500D01*
X251529200Y-46454000D02*
X250671200Y-45917600D01*
X252348200Y-47048900D02*
X251529200Y-46454000D01*
X253123200Y-47699400D02*
X252348200Y-47048900D01*
X253851200Y-48402500D02*
X253123200Y-47699400D01*
X254529200Y-49154600D02*
X253851200Y-48402500D01*
X255152200Y-49952100D02*
X254529200Y-49154600D01*
X255718200Y-50791200D02*
X255152200Y-49952100D01*
X256224200Y-51667700D02*
X255718200Y-50791200D01*
X256667200Y-52577300D02*
X256224200Y-51667700D01*
X257047200Y-53515700D02*
X256667200Y-52577300D01*
X257359200Y-54478300D02*
X257047200Y-53515700D01*
X257604200Y-55460300D02*
X257359200Y-54478300D01*
X257780200Y-56457000D02*
X257604200Y-55460300D01*
X257808200Y-56725000D02*
X257780200Y-56457000D01*
X257838200Y-56725000D02*
X257808200Y-56725000D01*
X257844200Y-56750700D02*
X257838200Y-56725000D01*
X257866200Y-56817000D02*
X257844200Y-56750700D01*
X257892200Y-56881800D02*
X257866200Y-56817000D01*
X257923200Y-56944500D02*
X257892200Y-56881800D01*
X257957200Y-57004900D02*
X257923200Y-56944500D01*
X257996200Y-57062800D02*
X257957200Y-57004900D01*
X258039200Y-57117800D02*
X257996200Y-57062800D01*
X258086200Y-57169700D02*
X258039200Y-57117800D01*
X258136200Y-57218100D02*
X258086200Y-57169700D01*
X258190200Y-57263000D02*
X258136200Y-57218100D01*
X258246200Y-57304000D02*
X258190200Y-57263000D01*
X258306200Y-57341000D02*
X258246200Y-57304000D01*
X258367200Y-57373800D02*
X258306200Y-57341000D01*
X258431200Y-57402200D02*
X258367200Y-57373800D01*
X258496200Y-57426100D02*
X258431200Y-57402200D01*
X258564200Y-57445300D02*
X258496200Y-57426100D01*
X258632200Y-57459800D02*
X258564200Y-57445300D01*
X258701200Y-57469500D02*
X258632200Y-57459800D01*
X258771200Y-57474400D02*
X258701200Y-57469500D01*
X50956200Y-43490300D02*
X27912200Y-19589500D01*
X54622400Y-39824100D02*
X50956200Y-43490300D01*
X54105400Y-39593900D02*
X54622400Y-39824100D01*
X53547800Y-39391000D02*
X54105400Y-39593900D01*
X53497200Y-39376500D02*
X53547800Y-39391000D01*
X52164500Y-37759600D02*
X53497200Y-39376500D01*
X51476900Y-36879600D02*
X52164500Y-37759600D01*
X51309200Y-36630800D02*
X51476900Y-36879600D01*
X50427500Y-36309900D02*
X51309200Y-36630800D01*
X49407300Y-35855700D02*
X50427500Y-36309900D01*
X48421200Y-35331400D02*
X49407300Y-35855700D01*
X47474100Y-34739600D02*
X48421200Y-35331400D01*
X46570600Y-34083200D02*
X47474100Y-34739600D01*
X45715100Y-33365300D02*
X46570600Y-34083200D01*
X44911800Y-32589500D02*
X45715100Y-33365300D01*
X44164500Y-31759600D02*
X44911800Y-32589500D01*
X43476900Y-30879600D02*
X44164500Y-31759600D01*
X42878400Y-29992200D02*
X43476900Y-30879600D01*
X42474100Y-29739600D02*
X42878400Y-29992200D01*
X41570600Y-29083200D02*
X42474100Y-29739600D01*
X40715100Y-28365300D02*
X41570600Y-29083200D01*
X39912200Y-27589500D02*
X40715100Y-28365300D01*
X29912200Y-17589500D02*
X39912200Y-27589500D01*
X29164200Y-16759600D02*
X29912200Y-17589500D01*
X28477200Y-15879600D02*
X29164200Y-16759600D01*
X27852200Y-14953700D02*
X28477200Y-15879600D01*
X27294200Y-13986500D02*
X27852200Y-14953700D01*
X26804200Y-12982800D02*
X27294200Y-13986500D01*
X26386200Y-11947300D02*
X26804200Y-12982800D01*
X26041200Y-10885200D02*
X26386200Y-11947300D01*
X25771200Y-9801600D02*
X26041200Y-10885200D01*
X25577200Y-8701800D02*
X25771200Y-9801600D01*
X25460200Y-7591100D02*
X25577200Y-8701800D01*
X25421200Y-6475000D02*
X25460200Y-7591100D01*
X25421200Y-946300D02*
X25421200Y-6475000D01*
X25436200Y-933900D02*
X25421200Y-946300D01*
X25737200Y-642900D02*
X25436200Y-933900D01*
X26017200Y-331700D02*
X25737200Y-642900D01*
X68302800Y45519000D02*
X59379700Y45519000D01*
X251202200Y26604100D02*
X251034200Y27281400D01*
X251324200Y25916700D02*
X251202200Y26604100D01*
X254188200Y7773500D02*
X251324200Y25916700D01*
X254105200Y7693000D02*
X254188200Y7773500D01*
X44829300Y43815000D02*
X44264600Y43405000D01*
X74407300Y49906000D02*
X73421200Y49381000D01*
X114157700Y45373000D02*
X113466500Y45470000D01*
X136567090Y7051700D02*
X136824930Y7381700D01*
X30331200Y30402900D02*
X29941200Y29824200D01*
X51727200Y45297000D02*
X51462700Y45519000D01*
X134033810Y27281400D02*
X133818110Y27945200D01*
X31730200Y31956500D02*
X31228200Y31471600D01*
X29941200Y29824200D02*
X29592200Y29219700D01*
X27592200Y31219700D02*
X27941200Y31824200D01*
X116840400Y47228000D02*
X117511400Y47036000D01*
X28640200Y26604100D02*
X28518200Y25916700D01*
X203250000Y50775000D02*
X193592400Y50775000D01*
X59115200Y45297000D02*
X58921200Y45156000D01*
X29592200Y29219700D02*
X29286200Y28592400D01*
X118577800Y43405000D02*
X118013100Y43815000D01*
X45421200Y44185000D02*
X44829300Y43815000D01*
X90368300Y48790000D02*
X89421200Y49381000D01*
X191592400Y52775000D02*
X205250000Y52775000D01*
X73421200Y49381000D02*
X72474100Y48790000D01*
X88435100Y49906000D02*
X87414900Y50360000D01*
X27024200Y29945200D02*
X27286200Y30592400D01*
X188570600Y48133000D02*
X185302800Y45519000D01*
X47331000Y45036000D02*
X46675100Y44797000D01*
X28518200Y25916700D02*
X25654200Y7773500D01*
X94539600Y45519000D02*
X91271800Y48133000D01*
X26640200Y28604100D02*
X26808200Y29281400D01*
X49375900Y45470000D02*
X48684700Y45373000D01*
X118167300Y46797000D02*
X118804900Y46513000D01*
X28808200Y27281400D02*
X28640200Y26604100D01*
X29228200Y33472000D02*
X29730200Y33956000D01*
X193476900Y50742000D02*
X192427500Y50360000D01*
X134901670Y31824200D02*
X135250670Y31219700D01*
X134511360Y32402900D02*
X134901670Y31824200D01*
X44264600Y43405000D02*
X43729900Y42956000D01*
X59379700Y45519000D02*
X59115200Y45297000D01*
X110921200Y45156000D02*
X110921200Y48387000D01*
X116157700Y47373000D02*
X116840400Y47228000D01*
X26808200Y29281400D02*
X27024200Y29945200D01*
X117511400Y47036000D02*
X118167300Y46797000D01*
X110921200Y48387000D02*
X116157700Y47373000D01*
X176115200Y45297000D02*
X175921200Y45156000D01*
X189474100Y48790000D02*
X188570600Y48133000D01*
X111115200Y45297000D02*
X110921200Y45156000D01*
X30471200Y-44290800D02*
X30463200Y-44221400D01*
X30483200Y-44359600D02*
X30471200Y-44290800D01*
X30500200Y-44427300D02*
X30483200Y-44359600D01*
X30521200Y-44493700D02*
X30500200Y-44427300D01*
X30547200Y-44558400D02*
X30521200Y-44493700D01*
X30578200Y-44621100D02*
X30547200Y-44558400D01*
X30613200Y-44681600D02*
X30578200Y-44621100D01*
X30652200Y-44739400D02*
X30613200Y-44681600D01*
X30695200Y-44794400D02*
X30652200Y-44739400D01*
X30741200Y-44846300D02*
X30695200Y-44794400D01*
X30792200Y-44894800D02*
X30741200Y-44846300D01*
X30845200Y-44939600D02*
X30792200Y-44894800D01*
X30902200Y-44980700D02*
X30845200Y-44939600D01*
X30961200Y-45017700D02*
X30902200Y-44980700D01*
X31022200Y-45050400D02*
X30961200Y-45017700D01*
X31086200Y-45078800D02*
X31022200Y-45050400D01*
X31152200Y-45102700D02*
X31086200Y-45078800D01*
X31219200Y-45121900D02*
X31152200Y-45102700D01*
X31287200Y-45136400D02*
X31219200Y-45121900D01*
X31356200Y-45146200D02*
X31287200Y-45136400D01*
X31426200Y-45151000D02*
X31356200Y-45146200D01*
X31496200Y-45151000D02*
X31426200Y-45151000D01*
X31565200Y-45146200D02*
X31496200Y-45151000D01*
X31634200Y-45136500D02*
X31565200Y-45146200D01*
X31703200Y-45121900D02*
X31634200Y-45136500D01*
X31728200Y-45114600D02*
X31703200Y-45121900D01*
X31743200Y-45140500D02*
X31728200Y-45114600D01*
X31989200Y-45030800D02*
X31743200Y-45140500D01*
X32940200Y-44684700D02*
X31989200Y-45030800D01*
X33913200Y-44405700D02*
X32940200Y-44684700D01*
X34903200Y-44195300D02*
X33913200Y-44405700D01*
X35905200Y-44054400D02*
X34903200Y-44195300D01*
X36915200Y-43983800D02*
X35905200Y-44054400D01*
X37927200Y-43983800D02*
X36915200Y-43983800D01*
X38937200Y-44054400D02*
X37927200Y-43983800D01*
X39939200Y-44195300D02*
X38937200Y-44054400D01*
X40929100Y-44405700D02*
X39939200Y-44195300D01*
X41901900Y-44684700D02*
X40929100Y-44405700D01*
X42853000Y-45030800D02*
X41901900Y-44684700D01*
X43777600Y-45442500D02*
X42853000Y-45030800D01*
X44671200Y-45917600D02*
X43777600Y-45442500D01*
X45529500Y-46454000D02*
X44671200Y-45917600D01*
X46348300Y-47048900D02*
X45529500Y-46454000D01*
X47123600Y-47699400D02*
X46348300Y-47048900D01*
X47851600Y-48402500D02*
X47123600Y-47699400D01*
X48528800Y-49154600D02*
X47851600Y-48402500D01*
X49151900Y-49952100D02*
X48528800Y-49154600D01*
X49717900Y-50791200D02*
X49151900Y-49952100D01*
X50223900Y-51667700D02*
X49717900Y-50791200D01*
X50667600Y-52577300D02*
X50223900Y-51667700D01*
X51046700Y-53515700D02*
X50667600Y-52577300D01*
X51359500Y-54478300D02*
X51046700Y-53515700D01*
X51604300Y-55460300D02*
X51359500Y-54478300D01*
X51780100Y-56457000D02*
X51604300Y-55460300D01*
X51808300Y-56725000D02*
X51780100Y-56457000D01*
X51838100Y-56725000D02*
X51808300Y-56725000D01*
X51844400Y-56750700D02*
X51838100Y-56725000D01*
X51866000Y-56817000D02*
X51844400Y-56750700D01*
X51892200Y-56881800D02*
X51866000Y-56817000D01*
X51922800Y-56944500D02*
X51892200Y-56881800D01*
X51957700Y-57004900D02*
X51922800Y-56944500D01*
X51996700Y-57062800D02*
X51957700Y-57004900D01*
X52039700Y-57117800D02*
X51996700Y-57062800D01*
X52086400Y-57169700D02*
X52039700Y-57117800D01*
X52136600Y-57218100D02*
X52086400Y-57169700D01*
X52190000Y-57263000D02*
X52136600Y-57218100D01*
X52246500Y-57304000D02*
X52190000Y-57263000D01*
X52305700Y-57341000D02*
X52246500Y-57304000D01*
X52367300Y-57373800D02*
X52305700Y-57341000D01*
X52431100Y-57402200D02*
X52367300Y-57373800D01*
X52496700Y-57426100D02*
X52431100Y-57402200D01*
X52563800Y-57445300D02*
X52496700Y-57426100D01*
X52632100Y-57459800D02*
X52563800Y-57445300D01*
X52701200Y-57469500D02*
X52632100Y-57459800D01*
X52770800Y-57474400D02*
X52701200Y-57469500D01*
X258840200Y-57474400D02*
X258771200Y-57474400D01*
X258910200Y-57469500D02*
X258840200Y-57474400D01*
X258979200Y-57459800D02*
X258910200Y-57469500D01*
X259047200Y-57445300D02*
X258979200Y-57459800D01*
X259115200Y-57426100D02*
X259047200Y-57445300D01*
X259180200Y-57402200D02*
X259115200Y-57426100D01*
X259244200Y-57373800D02*
X259180200Y-57402200D01*
X259305200Y-57341000D02*
X259244200Y-57373800D01*
X259365200Y-57304000D02*
X259305200Y-57341000D01*
X259421200Y-57263000D02*
X259365200Y-57304000D01*
X259475200Y-57218100D02*
X259421200Y-57263000D01*
X259525200Y-57169700D02*
X259475200Y-57218100D01*
X259572200Y-57117800D02*
X259525200Y-57169700D01*
X259615200Y-57062800D02*
X259572200Y-57117800D01*
X259654200Y-57004900D02*
X259615200Y-57062800D01*
X259688200Y-56944500D02*
X259654200Y-57004900D01*
X259719200Y-56881700D02*
X259688200Y-56944500D01*
X259745200Y-56817000D02*
X259719200Y-56881700D01*
X259767200Y-56750700D02*
X259745200Y-56817000D01*
X259773200Y-56725000D02*
X259767200Y-56750700D01*
X259818200Y-56725000D02*
X259773200Y-56725000D01*
X259760200Y-56178700D02*
X259818200Y-56725000D01*
X259560200Y-55044500D02*
X259760200Y-56178700D01*
X259282200Y-53927000D02*
X259560200Y-55044500D01*
X258926200Y-52831700D02*
X259282200Y-53927000D01*
X258494200Y-51763800D02*
X258926200Y-52831700D01*
X257990200Y-50728700D02*
X258494200Y-51763800D01*
X257414200Y-49731300D02*
X257990200Y-50728700D01*
X256770200Y-48776500D02*
X257414200Y-49731300D01*
X256061200Y-47869000D02*
X256770200Y-48776500D01*
X255290200Y-47013100D02*
X256061200Y-47869000D01*
X254462200Y-46213100D02*
X255290200Y-47013100D01*
X253579200Y-45472800D02*
X254462200Y-46213100D01*
X252648200Y-44795900D02*
X253579200Y-45472800D01*
X251671200Y-44185600D02*
X252648200Y-44795900D01*
X250654200Y-43644900D02*
X251671200Y-44185600D01*
X249602200Y-43176500D02*
X250654200Y-43644900D01*
X248520200Y-42782600D02*
X249602200Y-43176500D01*
X247413200Y-42465100D02*
X248520200Y-42782600D01*
X246286200Y-42225700D02*
X247413200Y-42465100D01*
X245146200Y-42065400D02*
X246286200Y-42225700D01*
X243997200Y-41985100D02*
X245146200Y-42065400D01*
X242845200Y-41985100D02*
X243997200Y-41985100D01*
X241696200Y-42065400D02*
X242845200Y-41985100D01*
X240556200Y-42225700D02*
X241696200Y-42065400D01*
X239429500Y-42465100D02*
X240556200Y-42225700D01*
X238322400Y-42782600D02*
X239429500Y-42465100D01*
X237240200Y-43176500D02*
X238322400Y-42782600D01*
X236738300Y-43399900D02*
X237240200Y-43176500D01*
X236760700Y-43438600D02*
X236738300Y-43399900D01*
X236741700Y-43457000D02*
X236760700Y-43438600D01*
X236695000Y-43508900D02*
X236741700Y-43457000D01*
X236652000Y-43563900D02*
X236695000Y-43508900D01*
X236613000Y-43621700D02*
X236652000Y-43563900D01*
X236578100Y-43682200D02*
X236613000Y-43621700D01*
X236547500Y-43744900D02*
X236578100Y-43682200D01*
X236521300Y-43809600D02*
X236547500Y-43744900D01*
X236499700Y-43876000D02*
X236521300Y-43809600D01*
X236482900Y-43943700D02*
X236499700Y-43876000D01*
X236470700Y-44012500D02*
X236482900Y-43943700D01*
X236463500Y-44081900D02*
X236470700Y-44012500D01*
X236461000Y-44151700D02*
X236463500Y-44081900D01*
X236463400Y-44221400D02*
X236461000Y-44151700D01*
X236470700Y-44290800D02*
X236463400Y-44221400D01*
X236482900Y-44359600D02*
X236470700Y-44290800D01*
X236499700Y-44427300D02*
X236482900Y-44359600D01*
X236521300Y-44493700D02*
X236499700Y-44427300D01*
X236547500Y-44558400D02*
X236521300Y-44493700D01*
X236578000Y-44621100D02*
X236547500Y-44558400D01*
X236612900Y-44681600D02*
X236578000Y-44621100D01*
X256265200Y-10701800D02*
X256071200Y-11801600D01*
X256382200Y-9591100D02*
X256265200Y-10701800D01*
X256421200Y-8475000D02*
X256382200Y-9591100D01*
X256421200Y25000D02*
X256421200Y-8475000D01*
X253549200Y25000D02*
X256421200Y25000D01*
X253567200Y-1700D02*
X253549200Y25000D01*
X253825200Y-331700D02*
X253567200Y-1700D01*
X254105200Y-642900D02*
X253825200Y-331700D01*
X254406200Y-933900D02*
X254105200Y-642900D01*
X254421200Y-946300D02*
X254406200Y-933900D01*
X254421200Y-6475000D02*
X254421200Y-946300D01*
X254382200Y-7591100D02*
X254421200Y-6475000D01*
X254265200Y-8701800D02*
X254382200Y-7591100D01*
X254071200Y-9801600D02*
X254265200Y-8701800D01*
X253801200Y-10885200D02*
X254071200Y-9801600D01*
X253456200Y-11947300D02*
X253801200Y-10885200D01*
X253038200Y-12982800D02*
X253456200Y-11947300D01*
X252548200Y-13986500D02*
X253038200Y-12982800D01*
X251990200Y-14953700D02*
X252548200Y-13986500D01*
X251365200Y-15879600D02*
X251990200Y-14953700D01*
X250678200Y-16759600D02*
X251365200Y-15879600D01*
X249930200Y-17589500D02*
X250678200Y-16759600D01*
X239930600Y-27589500D02*
X249930200Y-17589500D01*
X239127300Y-28365300D02*
X239930600Y-27589500D01*
X238271800Y-29083200D02*
X239127300Y-28365300D01*
X237368300Y-29739600D02*
X238271800Y-29083200D01*
X236964000Y-29992200D02*
X237368300Y-29739600D01*
X236365500Y-30879600D02*
X236964000Y-29992200D01*
X235677900Y-31759600D02*
X236365500Y-30879600D01*
X234930600Y-32589500D02*
X235677900Y-31759600D01*
X234127300Y-33365300D02*
X234930600Y-32589500D01*
X233271800Y-34083200D02*
X234127300Y-33365300D01*
X175921200Y45156000D02*
X175921200Y49742000D01*
X119421200Y46185000D02*
X120013100Y45815000D01*
X118804900Y46513000D02*
X119421200Y46185000D01*
X163675100Y44797000D02*
X163037500Y44513000D01*
X164331000Y45036000D02*
X163675100Y44797000D01*
X165002000Y45228000D02*
X164331000Y45036000D01*
X165684700Y45373000D02*
X165002000Y45228000D01*
X205250000Y52775000D02*
X220921200Y49742000D01*
M02*
